{
.appVersion = "1352";
DisplayStrings = (
"/quotedoubleprime",
"/quotedoubleprimeReversed",
F
);
customParameters = (
{
name = Axes;
value = (
{
Hidden = 1;
Name = Weight;
Tag = wght;
},
{
Name = SHPE;
Tag = SHPE;
}
);
}
);
date = "2021-03-31 17:25:06 +0000";
familyName = Ornamental;
fontMaster = (
{
ascender = 800;
capHeight = 700;
custom = Diamond;
descender = -200;
id = "16A4F72C-6E52-4851-BC55-1EF2E1D4C4EC";
xHeight = 500;
},
{
ascender = 800;
capHeight = 700;
custom = Circle;
descender = -200;
iconName = Bold_Extended;
id = "97FB2712-2ECD-43E8-8EDB-5EDF297461B7";
visible = 1;
widthValue = 0;
xHeight = 500;
}
);
glyphs = (
{
glyphname = A;
lastChange = "2021-04-16 16:47:34 +0000";
layers = (
{
layerId = "16A4F72C-6E52-4851-BC55-1EF2E1D4C4EC";
paths = (
{
closed = 1;
nodes = (
"158 700 LINE",
"159 699 LINE",
"159 465 LINE",
"197 505 OFFCURVE",
"236 545 OFFCURVE",
"275 584 CURVE",
"236 622 OFFCURVE",
"196 662 OFFCURVE",
"158 700 CURVE",
"119 662 OFFCURVE",
"79 622 OFFCURVE",
"40 584 CURVE",
"78 545 OFFCURVE",
"119 505 OFFCURVE",
"157 465 CURVE",
"157 699 LINE"
);
},
{
closed = 1;
nodes = (
"159 465 LINE",
"158 464 LINE",
"157 465 LINE",
"157 465 LINE",
"158 464 LINE",
"159 465 LINE"
);
},
{
closed = 1;
nodes = (
"158 468 LINE",
"159 467 LINE",
"159 234 LINE",
"197 274 OFFCURVE",
"236 313 OFFCURVE",
"275 352 CURVE",
"236 391 OFFCURVE",
"196 430 OFFCURVE",
"158 468 CURVE",
"119 430 OFFCURVE",
"79 391 OFFCURVE",
"40 352 CURVE",
"78 313 OFFCURVE",
"119 274 OFFCURVE",
"157 234 CURVE",
"157 467 LINE"
);
},
{
closed = 1;
nodes = (
"159 234 LINE",
"158 233 LINE",
"157 234 LINE",
"157 234 LINE",
"158 233 LINE",
"159 234 LINE"
);
},
{
closed = 1;
nodes = (
"158 234 LINE",
"159 233 LINE",
"159 0 LINE",
"197 39 OFFCURVE",
"236 78 OFFCURVE",
"275 118 CURVE",
"236 156 OFFCURVE",
"196 196 OFFCURVE",
"158 234 CURVE",
"119 196 OFFCURVE",
"79 156 OFFCURVE",
"40 118 CURVE",
"78 78 OFFCURVE",
"119 39 OFFCURVE",
"157 0 CURVE",
"157 233 LINE"
);
},
{
closed = 1;
nodes = (
"159 346 LINE",
"393 346 LINE",
"393 359 LINE",
"159 359 LINE"
);
},
{
closed = 1;
nodes = (
"159 687 LINE",
"393 687 LINE",
"393 700 LINE",
"159 700 LINE"
);
},
{
closed = 1;
nodes = (
"276 346 LINE",
"510 346 LINE",
"510 359 LINE",
"276 359 LINE"
);
},
{
closed = 1;
nodes = (
"510 0 LINE",
"511 583 LINE",
"497 583 LINE",
"497 0 LINE"
);
},
{
closed = 1;
nodes = (
"384 690 LINE",
"500 574 LINE",
"511 583 LINE",
"393 700 LINE"
);
},
{
closed = 1;
nodes = (
"387 0 LINE",
"620 0 LINE",
"620 13 LINE",
"387 13 LINE"
);
},
{
closed = 1;
nodes = (
"42 0 LINE",
"275 0 LINE",
"275 13 LINE",
"42 13 LINE"
);
}
);
width = 660;
},
{
layerId = "97FB2712-2ECD-43E8-8EDB-5EDF297461B7";
paths = (
{
closed = 1;
nodes = (
"158 700 LINE",
"159 699 LINE",
"159 465 LINE",
"217 465 OFFCURVE",
"275 526 OFFCURVE",
"275 584 CURVE",
"275 642 OFFCURVE",
"216 700 OFFCURVE",
"158 700 CURVE",
"100 700 OFFCURVE",
"40 642 OFFCURVE",
"40 584 CURVE",
"40 526 OFFCURVE",
"99 465 OFFCURVE",
"157 465 CURVE",
"157 699 LINE"
);
},
{
closed = 1;
nodes = (
"159 465 LINE",
"158 464 LINE",
"157 465 LINE",
"157 465 LINE",
"158 464 LINE",
"159 465 LINE"
);
},
{
closed = 1;
nodes = (
"158 468 LINE",
"159 467 LINE",
"159 234 LINE",
"217 234 OFFCURVE",
"275 294 OFFCURVE",
"275 352 CURVE",
"275 410 OFFCURVE",
"216 468 OFFCURVE",
"158 468 CURVE",
"100 468 OFFCURVE",
"40 410 OFFCURVE",
"40 352 CURVE",
"40 294 OFFCURVE",
"99 234 OFFCURVE",
"157 234 CURVE",
"157 467 LINE"
);
},
{
closed = 1;
nodes = (
"159 234 LINE",
"158 233 LINE",
"157 234 LINE",
"157 234 LINE",
"158 233 LINE",
"159 234 LINE"
);
},
{
closed = 1;
nodes = (
"158 234 LINE",
"159 233 LINE",
"159 0 LINE",
"217 0 OFFCURVE",
"275 60 OFFCURVE",
"275 118 CURVE",
"275 176 OFFCURVE",
"216 234 OFFCURVE",
"158 234 CURVE",
"100 234 OFFCURVE",
"40 176 OFFCURVE",
"40 118 CURVE",
"40 60 OFFCURVE",
"99 0 OFFCURVE",
"157 0 CURVE",
"157 233 LINE"
);
},
{
closed = 1;
nodes = (
"159 346 LINE",
"393 346 LINE",
"393 359 LINE",
"159 359 LINE"
);
},
{
closed = 1;
nodes = (
"159 687 LINE",
"393 687 LINE",
"393 700 LINE",
"159 700 LINE"
);
},
{
closed = 1;
nodes = (
"276 346 LINE",
"510 346 LINE",
"510 359 LINE",
"276 359 LINE"
);
},
{
closed = 1;
nodes = (
"510 0 LINE",
"510 583 LINE",
"497 583 LINE",
"497 0 LINE"
);
},
{
closed = 1;
nodes = (
"384 690 LINE",
"500 574 LINE",
"510 583 LINE",
"393 700 LINE"
);
},
{
closed = 1;
nodes = (
"387 0 LINE",
"620 0 LINE",
"620 13 LINE",
"387 13 LINE"
);
},
{
closed = 1;
nodes = (
"42 0 LINE",
"275 0 LINE",
"275 13 LINE",
"42 13 LINE"
);
}
);
width = 660;
}
);
unicode = 0041;
},
{
glyphname = B;
lastChange = "2021-04-16 16:47:59 +0000";
layers = (
{
layerId = "16A4F72C-6E52-4851-BC55-1EF2E1D4C4EC";
paths = (
{
closed = 1;
nodes = (
"158 700 LINE",
"159 699 LINE",
"159 465 LINE",
"197 505 OFFCURVE",
"236 545 OFFCURVE",
"275 584 CURVE",
"236 622 OFFCURVE",
"196 662 OFFCURVE",
"158 700 CURVE",
"119 662 OFFCURVE",
"79 622 OFFCURVE",
"40 584 CURVE",
"78 545 OFFCURVE",
"119 505 OFFCURVE",
"157 465 CURVE",
"157 699 LINE"
);
},
{
closed = 1;
nodes = (
"159 465 LINE",
"158 464 LINE",
"157 465 LINE",
"157 465 LINE",
"158 464 LINE",
"159 465 LINE"
);
},
{
closed = 1;
nodes = (
"158 468 LINE",
"159 467 LINE",
"159 234 LINE",
"197 274 OFFCURVE",
"236 313 OFFCURVE",
"275 352 CURVE",
"236 391 OFFCURVE",
"196 430 OFFCURVE",
"158 468 CURVE",
"119 430 OFFCURVE",
"79 391 OFFCURVE",
"40 352 CURVE",
"78 313 OFFCURVE",
"119 274 OFFCURVE",
"157 234 CURVE",
"157 467 LINE"
);
},
{
closed = 1;
nodes = (
"159 234 LINE",
"158 233 LINE",
"157 234 LINE",
"157 234 LINE",
"158 233 LINE",
"159 234 LINE"
);
},
{
closed = 1;
nodes = (
"158 234 LINE",
"159 233 LINE",
"159 0 LINE",
"197 39 OFFCURVE",
"236 78 OFFCURVE",
"275 118 CURVE",
"236 156 OFFCURVE",
"196 196 OFFCURVE",
"158 234 CURVE",
"119 196 OFFCURVE",
"79 156 OFFCURVE",
"40 118 CURVE",
"78 78 OFFCURVE",
"119 39 OFFCURVE",
"157 0 CURVE",
"157 233 LINE"
);
},
{
closed = 1;
nodes = (
"159 687 LINE",
"505 685 LINE",
"505 698 LINE",
"159 700 LINE"
);
},
{
closed = 1;
nodes = (
"159 0 LINE",
"397 0 LINE",
"397 11 LINE",
"159 13 LINE"
);
},
{
closed = 1;
nodes = (
"492 698 LINE",
"491 576 LINE",
"504 576 LINE",
"505 698 LINE"
);
},
{
closed = 1;
nodes = (
"388 461 LINE",
"503 345 LINE",
"512 354 LINE",
"397 471 LINE"
);
},
{
closed = 1;
nodes = (
"388 461 LINE",
"504 576 LINE",
"495 585 LINE",
"378 470 LINE"
);
},
{
closed = 1;
nodes = (
"499 354 LINE",
"498 113 LINE",
"511 113 LINE",
"512 354 LINE"
);
},
{
closed = 1;
nodes = (
"397 0 LINE",
"511 113 LINE",
"504 124 LINE",
"387 9 LINE"
);
},
{
closed = 1;
nodes = (
"159 460 LINE",
"393 460 LINE",
"393 471 LINE",
"159 473 LINE"
);
},
{
closed = 1;
nodes = (
"41 687 LINE",
"274 687 LINE",
"274 700 LINE",
"41 700 LINE"
);
},
{
closed = 1;
nodes = (
"41 0 LINE",
"274 0 LINE",
"274 13 LINE",
"41 13 LINE"
);
}
);
width = 552;
},
{
layerId = "97FB2712-2ECD-43E8-8EDB-5EDF297461B7";
paths = (
{
closed = 1;
nodes = (
"158 700 LINE",
"159 699 LINE",
"159 465 LINE",
"217 465 OFFCURVE",
"275 526 OFFCURVE",
"275 584 CURVE",
"275 642 OFFCURVE",
"216 700 OFFCURVE",
"158 700 CURVE",
"100 700 OFFCURVE",
"40 642 OFFCURVE",
"40 584 CURVE",
"40 526 OFFCURVE",
"99 465 OFFCURVE",
"157 465 CURVE",
"157 699 LINE"
);
},
{
closed = 1;
nodes = (
"159 465 LINE",
"158 464 LINE",
"157 465 LINE",
"157 465 LINE",
"158 464 LINE",
"159 465 LINE"
);
},
{
closed = 1;
nodes = (
"158 468 LINE",
"159 467 LINE",
"159 234 LINE",
"217 234 OFFCURVE",
"275 294 OFFCURVE",
"275 352 CURVE",
"275 410 OFFCURVE",
"216 468 OFFCURVE",
"158 468 CURVE",
"100 468 OFFCURVE",
"40 410 OFFCURVE",
"40 352 CURVE",
"40 294 OFFCURVE",
"99 234 OFFCURVE",
"157 234 CURVE",
"157 467 LINE"
);
},
{
closed = 1;
nodes = (
"159 234 LINE",
"158 233 LINE",
"157 234 LINE",
"157 234 LINE",
"158 233 LINE",
"159 234 LINE"
);
},
{
closed = 1;
nodes = (
"158 234 LINE",
"159 233 LINE",
"159 0 LINE",
"217 0 OFFCURVE",
"275 60 OFFCURVE",
"275 118 CURVE",
"275 176 OFFCURVE",
"216 234 OFFCURVE",
"158 234 CURVE",
"100 234 OFFCURVE",
"40 176 OFFCURVE",
"40 118 CURVE",
"40 60 OFFCURVE",
"99 0 OFFCURVE",
"157 0 CURVE",
"157 233 LINE"
);
},
{
closed = 1;
nodes = (
"159 687 LINE",
"505 685 LINE",
"505 698 LINE",
"159 700 LINE"
);
},
{
closed = 1;
nodes = (
"159 0 LINE",
"397 0 LINE",
"397 11 LINE",
"159 13 LINE"
);
},
{
closed = 1;
nodes = (
"492 698 LINE",
"491 576 LINE",
"504 576 LINE",
"505 698 LINE"
);
},
{
closed = 1;
nodes = (
"388 461 LINE",
"503 345 LINE",
"512 354 LINE",
"397 471 LINE"
);
},
{
closed = 1;
nodes = (
"388 461 LINE",
"504 576 LINE",
"495 585 LINE",
"378 470 LINE"
);
},
{
closed = 1;
nodes = (
"499 354 LINE",
"498 113 LINE",
"511 113 LINE",
"512 354 LINE"
);
},
{
closed = 1;
nodes = (
"397 0 LINE",
"511 113 LINE",
"504 124 LINE",
"387 9 LINE"
);
},
{
closed = 1;
nodes = (
"159 460 LINE",
"393 460 LINE",
"393 471 LINE",
"159 473 LINE"
);
},
{
closed = 1;
nodes = (
"41 687 LINE",
"274 687 LINE",
"274 700 LINE",
"41 700 LINE"
);
},
{
closed = 1;
nodes = (
"41 0 LINE",
"274 0 LINE",
"274 13 LINE",
"41 13 LINE"
);
}
);
width = 552;
}
);
unicode = 0042;
},
{
glyphname = C;
lastChange = "2021-04-16 16:47:22 +0000";
layers = (
{
layerId = "16A4F72C-6E52-4851-BC55-1EF2E1D4C4EC";
paths = (
{
closed = 1;
nodes = (
"158 585 LINE",
"159 584 LINE",
"159 350 LINE",
"197 390 OFFCURVE",
"236 430 OFFCURVE",
"275 469 CURVE",
"236 507 OFFCURVE",
"196 547 OFFCURVE",
"158 585 CURVE",
"119 547 OFFCURVE",
"79 507 OFFCURVE",
"40 469 CURVE",
"78 430 OFFCURVE",
"119 390 OFFCURVE",
"157 350 CURVE",
"157 584 LINE"
);
},
{
closed = 1;
nodes = (
"159 355 LINE",
"158 354 LINE",
"157 355 LINE",
"157 355 LINE",
"158 354 LINE",
"159 355 LINE"
);
},
{
closed = 1;
nodes = (
"158 353 LINE",
"159 352 LINE",
"159 119 LINE",
"197 159 OFFCURVE",
"236 198 OFFCURVE",
"275 237 CURVE",
"236 276 OFFCURVE",
"196 315 OFFCURVE",
"158 353 CURVE",
"119 315 OFFCURVE",
"79 276 OFFCURVE",
"40 237 CURVE",
"78 198 OFFCURVE",
"119 159 OFFCURVE",
"157 119 CURVE",
"157 352 LINE"
);
},
{
closed = 1;
nodes = (
"159 124 LINE",
"158 123 LINE",
"157 124 LINE",
"157 124 LINE",
"158 123 LINE",
"159 124 LINE"
);
},
{
closed = 0;
nodes = (
"159 590 LINE",
"159 577 LINE"
);
},
{
closed = 0;
nodes = (
"383 13 LINE",
"383 0 LINE"
);
},
{
closed = 0;
nodes = (
"159 363 LINE",
"159 350 LINE"
);
},
{
closed = 1;
nodes = (
"269 687 LINE",
"502 687 LINE",
"502 700 LINE",
"269 700 LINE"
);
},
{
closed = 1;
nodes = (
"493 691 LINE",
"609 574 LINE",
"619 583 LINE",
"502 700 LINE"
);
},
{
closed = 1;
nodes = (
"152 583 LINE",
"162 574 LINE",
"278 691 LINE",
"269 700 LINE"
);
},
{
closed = 1;
nodes = (
"152 119 LINE",
"269 0 LINE",
"279 9 LINE",
"161 128 LINE"
);
},
{
closed = 1;
nodes = (
"619 117 LINE",
"609 126 LINE",
"493 9 LINE",
"502 0 LINE"
);
},
{
closed = 1;
nodes = (
"269 0 LINE",
"502 0 LINE",
"502 13 LINE",
"269 13 LINE"
);
}
);
width = 659;
},
{
layerId = "97FB2712-2ECD-43E8-8EDB-5EDF297461B7";
paths = (
{
closed = 1;
nodes = (
"158 585 LINE",
"159 584 LINE",
"159 350 LINE",
"217 350 OFFCURVE",
"275 411 OFFCURVE",
"275 469 CURVE",
"275 527 OFFCURVE",
"216 585 OFFCURVE",
"158 585 CURVE",
"100 585 OFFCURVE",
"40 527 OFFCURVE",
"40 469 CURVE",
"40 411 OFFCURVE",
"99 350 OFFCURVE",
"157 350 CURVE",
"157 584 LINE"
);
},
{
closed = 1;
nodes = (
"159 355 LINE",
"158 354 LINE",
"157 355 LINE",
"157 355 LINE",
"158 354 LINE",
"159 355 LINE"
);
},
{
closed = 1;
nodes = (
"158 353 LINE",
"159 352 LINE",
"159 119 LINE",
"217 119 OFFCURVE",
"275 179 OFFCURVE",
"275 237 CURVE",
"275 295 OFFCURVE",
"216 353 OFFCURVE",
"158 353 CURVE",
"100 353 OFFCURVE",
"40 295 OFFCURVE",
"40 237 CURVE",
"40 178 OFFCURVE",
"99 119 OFFCURVE",
"157 119 CURVE",
"157 352 LINE"
);
},
{
closed = 1;
nodes = (
"159 124 LINE",
"158 123 LINE",
"157 124 LINE",
"157 124 LINE",
"158 123 LINE",
"159 124 LINE"
);
},
{
closed = 0;
nodes = (
"159 590 LINE",
"159 577 LINE"
);
},
{
closed = 0;
nodes = (
"383 13 LINE",
"383 0 LINE"
);
},
{
closed = 0;
nodes = (
"159 363 LINE",
"159 350 LINE"
);
},
{
closed = 1;
nodes = (
"269 687 LINE",
"502 687 LINE",
"502 700 LINE",
"269 700 LINE"
);
},
{
closed = 1;
nodes = (
"493 691 LINE",
"609 574 LINE",
"619 583 LINE",
"502 700 LINE"
);
},
{
closed = 1;
nodes = (
"152 583 LINE",
"162 574 LINE",
"278 691 LINE",
"269 700 LINE"
);
},
{
closed = 1;
nodes = (
"152 119 LINE",
"269 0 LINE",
"279 9 LINE",
"161 128 LINE"
);
},
{
closed = 1;
nodes = (
"619 117 LINE",
"609 126 LINE",
"493 9 LINE",
"502 0 LINE"
);
},
{
closed = 1;
nodes = (
"269 0 LINE",
"502 0 LINE",
"502 13 LINE",
"269 13 LINE"
);
}
);
width = 659;
}
);
unicode = 0043;
},
{
glyphname = D;
lastChange = "2021-04-16 16:48:18 +0000";
layers = (
{
layerId = "16A4F72C-6E52-4851-BC55-1EF2E1D4C4EC";
paths = (
{
closed = 1;
nodes = (
"158 700 LINE",
"159 699 LINE",
"159 465 LINE",
"197 505 OFFCURVE",
"236 545 OFFCURVE",
"275 584 CURVE",
"236 622 OFFCURVE",
"196 662 OFFCURVE",
"158 700 CURVE",
"119 662 OFFCURVE",
"79 622 OFFCURVE",
"40 584 CURVE",
"78 545 OFFCURVE",
"119 505 OFFCURVE",
"157 465 CURVE",
"157 699 LINE"
);
},
{
closed = 1;
nodes = (
"159 465 LINE",
"158 464 LINE",
"157 465 LINE",
"157 465 LINE",
"158 464 LINE",
"159 465 LINE"
);
},
{
closed = 1;
nodes = (
"158 468 LINE",
"159 467 LINE",
"159 234 LINE",
"197 274 OFFCURVE",
"236 313 OFFCURVE",
"275 352 CURVE",
"236 391 OFFCURVE",
"196 430 OFFCURVE",
"158 468 CURVE",
"119 430 OFFCURVE",
"79 391 OFFCURVE",
"40 352 CURVE",
"78 313 OFFCURVE",
"119 274 OFFCURVE",
"157 234 CURVE",
"157 467 LINE"
);
},
{
closed = 1;
nodes = (
"159 234 LINE",
"158 233 LINE",
"157 234 LINE",
"157 234 LINE",
"158 233 LINE",
"159 234 LINE"
);
},
{
closed = 1;
nodes = (
"158 234 LINE",
"159 233 LINE",
"159 0 LINE",
"197 39 OFFCURVE",
"236 78 OFFCURVE",
"275 118 CURVE",
"236 156 OFFCURVE",
"196 196 OFFCURVE",
"158 234 CURVE",
"119 196 OFFCURVE",
"79 156 OFFCURVE",
"40 118 CURVE",
"78 78 OFFCURVE",
"119 39 OFFCURVE",
"157 0 CURVE",
"157 233 LINE"
);
},
{
closed = 1;
nodes = (
"159 687 LINE",
"387 687 LINE",
"387 700 LINE",
"159 700 LINE"
);
},
{
closed = 1;
nodes = (
"159 0 LINE",
"397 0 LINE",
"397 11 LINE",
"159 13 LINE"
);
},
{
closed = 1;
nodes = (
"499 576 LINE",
"498 113 LINE",
"511 113 LINE",
"512 576 LINE"
);
},
{
closed = 1;
nodes = (
"397 0 LINE",
"511 113 LINE",
"504 124 LINE",
"387 9 LINE"
);
},
{
closed = 1;
nodes = (
"505 565 LINE",
"512 576 LINE",
"387 700 LINE",
"377 691 LINE"
);
},
{
closed = 1;
nodes = (
"41 687 LINE",
"274 687 LINE",
"274 700 LINE",
"41 700 LINE"
);
},
{
closed = 1;
nodes = (
"41 0 LINE",
"274 0 LINE",
"274 13 LINE",
"41 13 LINE"
);
}
);
width = 552;
},
{
layerId = "97FB2712-2ECD-43E8-8EDB-5EDF297461B7";
paths = (
{
closed = 1;
nodes = (
"158 700 LINE",
"159 699 LINE",
"159 465 LINE",
"217 466 OFFCURVE",
"275 526 OFFCURVE",
"275 584 CURVE",
"275 642 OFFCURVE",
"216 700 OFFCURVE",
"158 700 CURVE",
"100 700 OFFCURVE",
"40 641 OFFCURVE",
"40 584 CURVE",
"40 526 OFFCURVE",
"99 466 OFFCURVE",
"157 465 CURVE",
"157 699 LINE"
);
},
{
closed = 1;
nodes = (
"159 465 LINE",
"158 464 LINE",
"157 465 LINE",
"157 465 LINE",
"158 464 LINE",
"159 465 LINE"
);
},
{
closed = 1;
nodes = (
"158 468 LINE",
"159 467 LINE",
"159 234 LINE",
"217 235 OFFCURVE",
"275 294 OFFCURVE",
"275 352 CURVE",
"275 411 OFFCURVE",
"216 468 OFFCURVE",
"158 468 CURVE",
"100 468 OFFCURVE",
"40 410 OFFCURVE",
"40 352 CURVE",
"40 294 OFFCURVE",
"99 235 OFFCURVE",
"157 234 CURVE",
"157 467 LINE"
);
},
{
closed = 1;
nodes = (
"159 234 LINE",
"158 233 LINE",
"157 234 LINE",
"157 234 LINE",
"158 233 LINE",
"159 234 LINE"
);
},
{
closed = 1;
nodes = (
"158 234 LINE",
"159 233 LINE",
"159 0 LINE",
"217 0 OFFCURVE",
"275 60 OFFCURVE",
"275 118 CURVE",
"275 176 OFFCURVE",
"216 234 OFFCURVE",
"158 234 CURVE",
"100 234 OFFCURVE",
"40 175 OFFCURVE",
"40 118 CURVE",
"40 60 OFFCURVE",
"99 0 OFFCURVE",
"157 0 CURVE",
"157 233 LINE"
);
},
{
closed = 1;
nodes = (
"159 687 LINE",
"387 687 LINE",
"387 700 LINE",
"159 700 LINE"
);
},
{
closed = 1;
nodes = (
"159 0 LINE",
"397 0 LINE",
"397 11 LINE",
"159 13 LINE"
);
},
{
closed = 1;
nodes = (
"499 576 LINE",
"498 113 LINE",
"511 113 LINE",
"512 576 LINE"
);
},
{
closed = 1;
nodes = (
"397 0 LINE",
"511 113 LINE",
"504 124 LINE",
"387 9 LINE"
);
},
{
closed = 1;
nodes = (
"505 565 LINE",
"512 576 LINE",
"387 700 LINE",
"377 691 LINE"
);
},
{
closed = 1;
nodes = (
"41 687 LINE",
"274 687 LINE",
"274 700 LINE",
"41 700 LINE"
);
},
{
closed = 1;
nodes = (
"41 0 LINE",
"274 0 LINE",
"274 13 LINE",
"41 13 LINE"
);
}
);
width = 552;
}
);
unicode = 0044;
},
{
glyphname = E;
lastChange = "2021-04-16 16:48:41 +0000";
layers = (
{
layerId = "16A4F72C-6E52-4851-BC55-1EF2E1D4C4EC";
paths = (
{
closed = 1;
nodes = (
"158 700 LINE",
"159 699 LINE",
"159 465 LINE",
"197 505 OFFCURVE",
"236 545 OFFCURVE",
"275 584 CURVE",
"236 622 OFFCURVE",
"196 662 OFFCURVE",
"158 700 CURVE",
"119 662 OFFCURVE",
"79 622 OFFCURVE",
"40 584 CURVE",
"78 545 OFFCURVE",
"119 505 OFFCURVE",
"157 465 CURVE",
"157 699 LINE"
);
},
{
closed = 1;
nodes = (
"159 465 LINE",
"158 464 LINE",
"157 465 LINE",
"157 465 LINE",
"158 464 LINE",
"159 465 LINE"
);
},
{
closed = 1;
nodes = (
"158 468 LINE",
"159 467 LINE",
"159 234 LINE",
"197 274 OFFCURVE",
"236 313 OFFCURVE",
"275 352 CURVE",
"236 391 OFFCURVE",
"196 430 OFFCURVE",
"158 468 CURVE",
"119 430 OFFCURVE",
"79 391 OFFCURVE",
"40 352 CURVE",
"78 313 OFFCURVE",
"119 274 OFFCURVE",
"157 234 CURVE",
"157 467 LINE"
);
},
{
closed = 1;
nodes = (
"159 234 LINE",
"158 233 LINE",
"157 234 LINE",
"157 234 LINE",
"158 233 LINE",
"159 234 LINE"
);
},
{
closed = 1;
nodes = (
"158 234 LINE",
"159 233 LINE",
"159 0 LINE",
"197 39 OFFCURVE",
"236 78 OFFCURVE",
"275 118 CURVE",
"236 156 OFFCURVE",
"196 196 OFFCURVE",
"158 234 CURVE",
"119 196 OFFCURVE",
"79 156 OFFCURVE",
"40 118 CURVE",
"78 78 OFFCURVE",
"119 39 OFFCURVE",
"157 0 CURVE",
"157 233 LINE"
);
},
{
closed = 1;
nodes = (
"159 687 LINE",
"387 687 LINE",
"387 700 LINE",
"159 700 LINE"
);
},
{
closed = 1;
nodes = (
"159 0 LINE",
"397 0 LINE",
"397 11 LINE",
"159 13 LINE"
);
},
{
closed = 1;
nodes = (
"397 0 LINE",
"511 113 LINE",
"504 124 LINE",
"387 9 LINE"
);
},
{
closed = 1;
nodes = (
"505 565 LINE",
"512 576 LINE",
"387 700 LINE",
"377 691 LINE"
);
},
{
closed = 1;
nodes = (
"159 346 LINE",
"387 346 LINE",
"387 359 LINE",
"159 359 LINE"
);
},
{
closed = 1;
nodes = (
"41 687 LINE",
"274 687 LINE",
"274 700 LINE",
"41 700 LINE"
);
},
{
closed = 1;
nodes = (
"41 0 LINE",
"274 0 LINE",
"274 13 LINE",
"41 13 LINE"
);
}
);
width = 552;
},
{
layerId = "97FB2712-2ECD-43E8-8EDB-5EDF297461B7";
paths = (
{
closed = 1;
nodes = (
"158 700 LINE",
"159 699 LINE",
"159 465 LINE",
"217 465 OFFCURVE",
"275 526 OFFCURVE",
"275 584 CURVE",
"275 642 OFFCURVE",
"216 700 OFFCURVE",
"158 700 CURVE",
"100 700 OFFCURVE",
"41 642 OFFCURVE",
"40 584 CURVE",
"40 526 OFFCURVE",
"99 465 OFFCURVE",
"157 465 CURVE",
"157 699 LINE"
);
},
{
closed = 1;
nodes = (
"159 465 LINE",
"158 464 LINE",
"157 465 LINE",
"157 465 LINE",
"158 464 LINE",
"159 465 LINE"
);
},
{
closed = 1;
nodes = (
"158 468 LINE",
"159 467 LINE",
"159 234 LINE",
"217 234 OFFCURVE",
"275 294 OFFCURVE",
"275 352 CURVE",
"275 410 OFFCURVE",
"216 468 OFFCURVE",
"158 468 CURVE",
"100 468 OFFCURVE",
"41 410 OFFCURVE",
"40 352 CURVE",
"40 294 OFFCURVE",
"99 234 OFFCURVE",
"157 234 CURVE",
"157 467 LINE"
);
},
{
closed = 1;
nodes = (
"159 234 LINE",
"158 233 LINE",
"157 234 LINE",
"157 234 LINE",
"158 233 LINE",
"159 234 LINE"
);
},
{
closed = 1;
nodes = (
"158 234 LINE",
"159 233 LINE",
"159 0 LINE",
"217 0 OFFCURVE",
"275 60 OFFCURVE",
"275 118 CURVE",
"275 176 OFFCURVE",
"216 234 OFFCURVE",
"158 234 CURVE",
"100 234 OFFCURVE",
"41 176 OFFCURVE",
"40 118 CURVE",
"40 60 OFFCURVE",
"99 0 OFFCURVE",
"157 0 CURVE",
"157 233 LINE"
);
},
{
closed = 1;
nodes = (
"159 687 LINE",
"387 687 LINE",
"387 700 LINE",
"159 700 LINE"
);
},
{
closed = 1;
nodes = (
"159 0 LINE",
"397 0 LINE",
"397 11 LINE",
"159 13 LINE"
);
},
{
closed = 1;
nodes = (
"397 0 LINE",
"511 113 LINE",
"504 124 LINE",
"387 9 LINE"
);
},
{
closed = 1;
nodes = (
"505 565 LINE",
"512 576 LINE",
"387 700 LINE",
"377 691 LINE"
);
},
{
closed = 1;
nodes = (
"159 346 LINE",
"387 346 LINE",
"387 359 LINE",
"159 359 LINE"
);
},
{
closed = 1;
nodes = (
"41 687 LINE",
"274 687 LINE",
"274 700 LINE",
"41 700 LINE"
);
},
{
closed = 1;
nodes = (
"41 0 LINE",
"274 0 LINE",
"274 13 LINE",
"41 13 LINE"
);
}
);
width = 552;
}
);
unicode = 0045;
},
{
glyphname = F;
lastChange = "2021-04-16 16:57:10 +0000";
layers = (
{
layerId = "16A4F72C-6E52-4851-BC55-1EF2E1D4C4EC";
paths = (
{
closed = 1;
nodes = (
"158 700 LINE",
"159 699 LINE",
"159 465 LINE",
"197 505 OFFCURVE",
"236 545 OFFCURVE",
"275 584 CURVE",
"236 622 OFFCURVE",
"196 662 OFFCURVE",
"158 700 CURVE",
"119 662 OFFCURVE",
"79 622 OFFCURVE",
"40 584 CURVE",
"78 545 OFFCURVE",
"119 505 OFFCURVE",
"157 465 CURVE",
"157 699 LINE"
);
},
{
closed = 1;
nodes = (
"159 465 LINE",
"158 464 LINE",
"157 465 LINE",
"157 465 LINE",
"158 464 LINE",
"159 465 LINE"
);
},
{
closed = 1;
nodes = (
"158 468 LINE",
"159 467 LINE",
"159 234 LINE",
"197 274 OFFCURVE",
"236 313 OFFCURVE",
"275 352 CURVE",
"236 391 OFFCURVE",
"196 430 OFFCURVE",
"158 468 CURVE",
"119 430 OFFCURVE",
"79 391 OFFCURVE",
"40 352 CURVE",
"78 313 OFFCURVE",
"119 274 OFFCURVE",
"157 234 CURVE",
"157 467 LINE"
);
},
{
closed = 1;
nodes = (
"159 234 LINE",
"158 233 LINE",
"157 234 LINE",
"157 234 LINE",
"158 233 LINE",
"159 234 LINE"
);
},
{
closed = 1;
nodes = (
"158 234 LINE",
"159 233 LINE",
"159 0 LINE",
"197 39 OFFCURVE",
"236 78 OFFCURVE",
"275 118 CURVE",
"236 156 OFFCURVE",
"196 196 OFFCURVE",
"158 234 CURVE",
"119 196 OFFCURVE",
"79 156 OFFCURVE",
"40 118 CURVE",
"78 78 OFFCURVE",
"119 39 OFFCURVE",
"157 0 CURVE",
"157 233 LINE"
);
},
{
closed = 1;
nodes = (
"159 687 LINE",
"387 687 LINE",
"387 700 LINE",
"159 700 LINE"
);
},
{
closed = 1;
nodes = (
"505 565 LINE",
"512 576 LINE",
"387 700 LINE",
"377 691 LINE"
);
},
{
closed = 1;
nodes = (
"159 346 LINE",
"387 346 LINE",
"387 359 LINE",
"159 359 LINE"
);
},
{
closed = 1;
nodes = (
"41 0 LINE",
"274 0 LINE",
"274 13 LINE",
"41 13 LINE"
);
},
{
closed = 1;
nodes = (
"41 687 LINE",
"274 687 LINE",
"274 700 LINE",
"41 700 LINE"
);
}
);
width = 552;
},
{
layerId = "97FB2712-2ECD-43E8-8EDB-5EDF297461B7";
paths = (
{
closed = 1;
nodes = (
"158 700 LINE",
"159 699 LINE",
"159 465 LINE",
"217 466 OFFCURVE",
"275 526 OFFCURVE",
"275 584 CURVE",
"275 642 OFFCURVE",
"216 700 OFFCURVE",
"158 700 CURVE",
"99 700 OFFCURVE",
"41 642 OFFCURVE",
"40 584 CURVE",
"40 526 OFFCURVE",
"99 466 OFFCURVE",
"157 465 CURVE",
"157 699 LINE"
);
},
{
closed = 1;
nodes = (
"159 465 LINE",
"158 464 LINE",
"157 465 LINE",
"157 465 LINE",
"158 464 LINE",
"159 465 LINE"
);
},
{
closed = 1;
nodes = (
"158 468 LINE",
"159 467 LINE",
"159 234 LINE",
"217 235 OFFCURVE",
"275 294 OFFCURVE",
"275 352 CURVE",
"275 410 OFFCURVE",
"216 468 OFFCURVE",
"158 468 CURVE",
"99 468 OFFCURVE",
"41 410 OFFCURVE",
"40 352 CURVE",
"40 294 OFFCURVE",
"99 235 OFFCURVE",
"157 234 CURVE",
"157 467 LINE"
);
},
{
closed = 1;
nodes = (
"159 234 LINE",
"158 233 LINE",
"157 234 LINE",
"157 234 LINE",
"158 233 LINE",
"159 234 LINE"
);
},
{
closed = 1;
nodes = (
"158 234 LINE",
"159 233 LINE",
"159 0 LINE",
"217 0 OFFCURVE",
"275 60 OFFCURVE",
"275 118 CURVE",
"275 176 OFFCURVE",
"216 234 OFFCURVE",
"158 234 CURVE",
"100 234 OFFCURVE",
"41 176 OFFCURVE",
"40 118 CURVE",
"40 60 OFFCURVE",
"99 0 OFFCURVE",
"157 0 CURVE",
"157 233 LINE"
);
},
{
closed = 1;
nodes = (
"159 687 LINE",
"387 687 LINE",
"387 700 LINE",
"159 700 LINE"
);
},
{
closed = 1;
nodes = (
"505 565 LINE",
"512 576 LINE",
"387 700 LINE",
"377 691 LINE"
);
},
{
closed = 1;
nodes = (
"159 346 LINE",
"387 346 LINE",
"387 359 LINE",
"159 359 LINE"
);
},
{
closed = 1;
nodes = (
"41 0 LINE",
"274 0 LINE",
"274 13 LINE",
"41 13 LINE"
);
},
{
closed = 1;
nodes = (
"41 687 LINE",
"274 687 LINE",
"274 700 LINE",
"41 700 LINE"
);
}
);
width = 552;
}
);
unicode = 0046;
},
{
glyphname = G;
lastChange = "2021-04-16 16:48:58 +0000";
layers = (
{
layerId = "16A4F72C-6E52-4851-BC55-1EF2E1D4C4EC";
paths = (
{
closed = 1;
nodes = (
"158 700 LINE",
"159 699 LINE",
"159 465 LINE",
"197 505 OFFCURVE",
"236 545 OFFCURVE",
"275 584 CURVE",
"236 622 OFFCURVE",
"196 662 OFFCURVE",
"158 700 CURVE",
"119 662 OFFCURVE",
"79 622 OFFCURVE",
"40 584 CURVE",
"78 545 OFFCURVE",
"119 505 OFFCURVE",
"157 465 CURVE",
"157 699 LINE"
);
},
{
closed = 1;
nodes = (
"159 465 LINE",
"158 464 LINE",
"157 465 LINE",
"157 465 LINE",
"158 464 LINE",
"159 465 LINE"
);
},
{
closed = 1;
nodes = (
"158 468 LINE",
"159 467 LINE",
"159 234 LINE",
"197 274 OFFCURVE",
"236 313 OFFCURVE",
"275 352 CURVE",
"236 391 OFFCURVE",
"196 430 OFFCURVE",
"158 468 CURVE",
"119 430 OFFCURVE",
"79 391 OFFCURVE",
"40 352 CURVE",
"78 313 OFFCURVE",
"119 274 OFFCURVE",
"157 234 CURVE",
"157 467 LINE"
);
},
{
closed = 1;
nodes = (
"159 234 LINE",
"158 233 LINE",
"157 234 LINE",
"157 234 LINE",
"158 233 LINE",
"159 234 LINE"
);
},
{
closed = 1;
nodes = (
"158 234 LINE",
"159 233 LINE",
"159 0 LINE",
"197 39 OFFCURVE",
"236 78 OFFCURVE",
"275 118 CURVE",
"236 156 OFFCURVE",
"196 196 OFFCURVE",
"158 234 CURVE",
"119 196 OFFCURVE",
"79 156 OFFCURVE",
"40 118 CURVE",
"78 78 OFFCURVE",
"119 39 OFFCURVE",
"157 0 CURVE",
"157 233 LINE"
);
},
{
closed = 0;
nodes = (
"159 700 LINE",
"159 687 LINE"
);
},
{
closed = 0;
nodes = (
"159 13 LINE",
"159 0 LINE"
);
},
{
closed = 0;
nodes = (
"159 473 LINE",
"159 460 LINE"
);
},
{
closed = 1;
nodes = (
"158 687 LINE",
"391 687 LINE",
"391 700 LINE",
"158 700 LINE"
);
},
{
closed = 1;
nodes = (
"382 691 LINE",
"498 574 LINE",
"508 583 LINE",
"391 700 LINE"
);
},
{
closed = 1;
nodes = (
"495 583 LINE",
"495 469 LINE",
"508 469 LINE",
"508 583 LINE"
);
},
{
closed = 1;
nodes = (
"495 237 LINE",
"495 117 LINE",
"508 117 LINE",
"508 237 LINE"
);
},
{
closed = 1;
nodes = (
"508 117 LINE",
"498 126 LINE",
"382 9 LINE",
"391 0 LINE"
);
},
{
closed = 1;
nodes = (
"158 0 LINE",
"391 0 LINE",
"391 13 LINE",
"158 13 LINE"
);
},
{
closed = 1;
nodes = (
"508 237 LINE",
"388 237 LINE",
"388 224 LINE",
"508 224 LINE"
);
}
);
width = 548;
},
{
layerId = "97FB2712-2ECD-43E8-8EDB-5EDF297461B7";
paths = (
{
closed = 1;
nodes = (
"158 700 LINE",
"159 699 LINE",
"159 465 LINE",
"217 465 OFFCURVE",
"275 526 OFFCURVE",
"275 584 CURVE",
"275 642 OFFCURVE",
"216 700 OFFCURVE",
"158 700 CURVE",
"100 700 OFFCURVE",
"40 642 OFFCURVE",
"40 584 CURVE",
"40 526 OFFCURVE",
"99 465 OFFCURVE",
"157 465 CURVE",
"157 699 LINE"
);
},
{
closed = 1;
nodes = (
"159 465 LINE",
"158 464 LINE",
"157 465 LINE",
"157 465 LINE",
"158 464 LINE",
"159 465 LINE"
);
},
{
closed = 1;
nodes = (
"158 468 LINE",
"159 467 LINE",
"159 234 LINE",
"217 234 OFFCURVE",
"275 294 OFFCURVE",
"275 352 CURVE",
"275 410 OFFCURVE",
"216 468 OFFCURVE",
"158 468 CURVE",
"100 468 OFFCURVE",
"40 410 OFFCURVE",
"40 352 CURVE",
"40 294 OFFCURVE",
"99 234 OFFCURVE",
"157 234 CURVE",
"157 467 LINE"
);
},
{
closed = 1;
nodes = (
"159 234 LINE",
"158 233 LINE",
"157 234 LINE",
"157 234 LINE",
"158 233 LINE",
"159 234 LINE"
);
},
{
closed = 1;
nodes = (
"158 234 LINE",
"159 233 LINE",
"159 0 LINE",
"217 0 OFFCURVE",
"275 60 OFFCURVE",
"275 118 CURVE",
"275 176 OFFCURVE",
"216 234 OFFCURVE",
"158 234 CURVE",
"100 234 OFFCURVE",
"40 176 OFFCURVE",
"40 118 CURVE",
"40 60 OFFCURVE",
"99 0 OFFCURVE",
"157 0 CURVE",
"157 233 LINE"
);
},
{
closed = 0;
nodes = (
"159 700 LINE",
"159 687 LINE"
);
},
{
closed = 0;
nodes = (
"159 13 LINE",
"159 0 LINE"
);
},
{
closed = 0;
nodes = (
"159 473 LINE",
"159 460 LINE"
);
},
{
closed = 1;
nodes = (
"159 687 LINE",
"391 687 LINE",
"391 700 LINE",
"159 700 LINE"
);
},
{
closed = 1;
nodes = (
"382 691 LINE",
"498 574 LINE",
"508 583 LINE",
"391 700 LINE"
);
},
{
closed = 1;
nodes = (
"495 583 LINE",
"495 469 LINE",
"508 469 LINE",
"508 583 LINE"
);
},
{
closed = 1;
nodes = (
"495 237 LINE",
"495 117 LINE",
"508 117 LINE",
"508 237 LINE"
);
},
{
closed = 1;
nodes = (
"508 117 LINE",
"498 126 LINE",
"382 9 LINE",
"391 0 LINE"
);
},
{
closed = 1;
nodes = (
"158 0 LINE",
"391 0 LINE",
"391 13 LINE",
"158 13 LINE"
);
},
{
closed = 1;
nodes = (
"508 237 LINE",
"388 237 LINE",
"388 224 LINE",
"508 224 LINE"
);
}
);
width = 548;
}
);
unicode = 0047;
},
{
glyphname = H;
lastChange = "2021-04-01 21:19:06 +0000";
layers = (
{
layerId = "16A4F72C-6E52-4851-BC55-1EF2E1D4C4EC";
paths = (
{
closed = 1;
nodes = (
"158 700 LINE",
"159 699 LINE",
"159 465 LINE",
"197 505 OFFCURVE",
"236 545 OFFCURVE",
"275 584 CURVE",
"236 622 OFFCURVE",
"196 662 OFFCURVE",
"158 700 CURVE",
"119 662 OFFCURVE",
"79 622 OFFCURVE",
"40 584 CURVE",
"78 545 OFFCURVE",
"119 505 OFFCURVE",
"157 465 CURVE",
"157 699 LINE"
);
},
{
closed = 1;
nodes = (
"159 465 LINE",
"158 464 LINE",
"157 465 LINE",
"157 465 LINE",
"158 464 LINE",
"159 465 LINE"
);
},
{
closed = 1;
nodes = (
"158 468 LINE",
"159 467 LINE",
"159 234 LINE",
"197 274 OFFCURVE",
"236 313 OFFCURVE",
"275 352 CURVE",
"236 391 OFFCURVE",
"196 430 OFFCURVE",
"158 468 CURVE",
"119 430 OFFCURVE",
"79 391 OFFCURVE",
"40 352 CURVE",
"78 313 OFFCURVE",
"119 274 OFFCURVE",
"157 234 CURVE",
"157 467 LINE"
);
},
{
closed = 1;
nodes = (
"159 234 LINE",
"158 233 LINE",
"157 234 LINE",
"157 234 LINE",
"158 233 LINE",
"159 234 LINE"
);
},
{
closed = 1;
nodes = (
"158 234 LINE",
"159 233 LINE",
"159 0 LINE",
"197 39 OFFCURVE",
"236 78 OFFCURVE",
"275 118 CURVE",
"236 156 OFFCURVE",
"196 196 OFFCURVE",
"158 234 CURVE",
"119 196 OFFCURVE",
"79 156 OFFCURVE",
"40 118 CURVE",
"78 78 OFFCURVE",
"119 39 OFFCURVE",
"157 0 CURVE",
"157 233 LINE"
);
},
{
closed = 0;
nodes = (
"159 700 LINE",
"159 687 LINE"
);
},
{
closed = 0;
nodes = (
"159 13 LINE",
"159 0 LINE"
);
},
{
closed = 0;
nodes = (
"159 473 LINE",
"159 460 LINE"
);
},
{
closed = 1;
nodes = (
"563 700 LINE",
"564 699 LINE",
"564 465 LINE",
"602 505 OFFCURVE",
"641 545 OFFCURVE",
"680 584 CURVE",
"641 622 OFFCURVE",
"601 662 OFFCURVE",
"563 700 CURVE",
"524 662 OFFCURVE",
"484 622 OFFCURVE",
"445 584 CURVE",
"483 545 OFFCURVE",
"524 505 OFFCURVE",
"562 465 CURVE",
"562 699 LINE"
);
},
{
closed = 1;
nodes = (
"564 465 LINE",
"563 464 LINE",
"562 465 LINE",
"562 465 LINE",
"563 464 LINE",
"564 465 LINE"
);
},
{
closed = 1;
nodes = (
"563 468 LINE",
"564 467 LINE",
"564 234 LINE",
"602 274 OFFCURVE",
"641 313 OFFCURVE",
"680 352 CURVE",
"641 391 OFFCURVE",
"601 430 OFFCURVE",
"563 468 CURVE",
"524 430 OFFCURVE",
"484 391 OFFCURVE",
"445 352 CURVE",
"483 313 OFFCURVE",
"524 274 OFFCURVE",
"562 234 CURVE",
"562 467 LINE"
);
},
{
closed = 1;
nodes = (
"564 234 LINE",
"563 233 LINE",
"562 234 LINE",
"562 234 LINE",
"563 233 LINE",
"564 234 LINE"
);
},
{
closed = 1;
nodes = (
"563 234 LINE",
"564 233 LINE",
"564 0 LINE",
"602 39 OFFCURVE",
"641 78 OFFCURVE",
"680 118 CURVE",
"641 156 OFFCURVE",
"601 196 OFFCURVE",
"563 234 CURVE",
"524 196 OFFCURVE",
"484 156 OFFCURVE",
"445 118 CURVE",
"483 78 OFFCURVE",
"524 39 OFFCURVE",
"562 0 CURVE",
"562 233 LINE"
);
},
{
closed = 0;
nodes = (
"564 700 LINE",
"564 687 LINE"
);
},
{
closed = 0;
nodes = (
"564 13 LINE",
"564 0 LINE"
);
},
{
closed = 0;
nodes = (
"564 473 LINE",
"564 460 LINE"
);
},
{
closed = 1;
nodes = (
"218 346 LINE",
"452 346 LINE",
"452 359 LINE",
"218 359 LINE"
);
},
{
closed = 1;
nodes = (
"44 687 LINE",
"277 687 LINE",
"277 700 LINE",
"44 700 LINE"
);
},
{
closed = 1;
nodes = (
"44 0 LINE",
"277 0 LINE",
"277 13 LINE",
"44 13 LINE"
);
},
{
closed = 1;
nodes = (
"449 687 LINE",
"682 687 LINE",
"682 700 LINE",
"449 700 LINE"
);
},
{
closed = 1;
nodes = (
"449 0 LINE",
"682 0 LINE",
"682 13 LINE",
"449 13 LINE"
);
}
);
width = 722;
},
{
layerId = "97FB2712-2ECD-43E8-8EDB-5EDF297461B7";
paths = (
{
closed = 1;
nodes = (
"158 700 LINE",
"159 699 LINE",
"159 465 LINE",
"217 465 OFFCURVE",
"275 526 OFFCURVE",
"275 584 CURVE",
"275 642 OFFCURVE",
"216 700 OFFCURVE",
"158 700 CURVE",
"100 700 OFFCURVE",
"40 642 OFFCURVE",
"40 584 CURVE",
"40 526 OFFCURVE",
"99 465 OFFCURVE",
"157 465 CURVE",
"157 699 LINE"
);
},
{
closed = 1;
nodes = (
"159 465 LINE",
"158 464 LINE",
"157 465 LINE",
"157 465 LINE",
"158 464 LINE",
"159 465 LINE"
);
},
{
closed = 1;
nodes = (
"158 468 LINE",
"159 467 LINE",
"159 234 LINE",
"217 234 OFFCURVE",
"275 294 OFFCURVE",
"275 352 CURVE",
"275 410 OFFCURVE",
"216 468 OFFCURVE",
"158 468 CURVE",
"100 468 OFFCURVE",
"40 410 OFFCURVE",
"40 352 CURVE",
"40 294 OFFCURVE",
"99 234 OFFCURVE",
"157 234 CURVE",
"157 467 LINE"
);
},
{
closed = 1;
nodes = (
"159 234 LINE",
"158 233 LINE",
"157 234 LINE",
"157 234 LINE",
"158 233 LINE",
"159 234 LINE"
);
},
{
closed = 1;
nodes = (
"158 234 LINE",
"159 233 LINE",
"159 0 LINE",
"217 0 OFFCURVE",
"275 60 OFFCURVE",
"275 118 CURVE",
"275 176 OFFCURVE",
"216 234 OFFCURVE",
"158 234 CURVE",
"100 234 OFFCURVE",
"40 176 OFFCURVE",
"40 118 CURVE",
"40 60 OFFCURVE",
"99 0 OFFCURVE",
"157 0 CURVE",
"157 233 LINE"
);
},
{
closed = 0;
nodes = (
"159 700 LINE",
"159 687 LINE"
);
},
{
closed = 0;
nodes = (
"159 13 LINE",
"159 0 LINE"
);
},
{
closed = 0;
nodes = (
"159 473 LINE",
"159 460 LINE"
);
},
{
closed = 1;
nodes = (
"548 700 LINE",
"549 699 LINE",
"549 465 LINE",
"607 465 OFFCURVE",
"665 526 OFFCURVE",
"665 584 CURVE",
"665 642 OFFCURVE",
"606 700 OFFCURVE",
"548 700 CURVE",
"490 700 OFFCURVE",
"430 642 OFFCURVE",
"430 584 CURVE",
"430 526 OFFCURVE",
"489 465 OFFCURVE",
"547 465 CURVE",
"547 699 LINE"
);
},
{
closed = 1;
nodes = (
"549 465 LINE",
"548 464 LINE",
"547 465 LINE",
"547 465 LINE",
"548 464 LINE",
"549 465 LINE"
);
},
{
closed = 1;
nodes = (
"548 468 LINE",
"549 467 LINE",
"549 234 LINE",
"607 234 OFFCURVE",
"665 294 OFFCURVE",
"665 352 CURVE",
"665 410 OFFCURVE",
"606 468 OFFCURVE",
"548 468 CURVE",
"490 468 OFFCURVE",
"430 410 OFFCURVE",
"430 352 CURVE",
"430 294 OFFCURVE",
"489 234 OFFCURVE",
"547 234 CURVE",
"547 467 LINE"
);
},
{
closed = 1;
nodes = (
"549 234 LINE",
"548 233 LINE",
"547 234 LINE",
"547 234 LINE",
"548 233 LINE",
"549 234 LINE"
);
},
{
closed = 1;
nodes = (
"548 234 LINE",
"549 233 LINE",
"549 0 LINE",
"607 0 OFFCURVE",
"665 60 OFFCURVE",
"665 118 CURVE",
"665 176 OFFCURVE",
"606 234 OFFCURVE",
"548 234 CURVE",
"490 234 OFFCURVE",
"430 176 OFFCURVE",
"430 118 CURVE",
"430 60 OFFCURVE",
"489 0 OFFCURVE",
"547 0 CURVE",
"547 233 LINE"
);
},
{
closed = 0;
nodes = (
"549 700 LINE",
"549 687 LINE"
);
},
{
closed = 0;
nodes = (
"549 13 LINE",
"549 0 LINE"
);
},
{
closed = 0;
nodes = (
"549 473 LINE",
"549 460 LINE"
);
},
{
closed = 1;
nodes = (
"196 346 LINE",
"430 346 LINE",
"430 359 LINE",
"196 359 LINE"
);
},
{
closed = 1;
nodes = (
"44 687 LINE",
"277 687 LINE",
"277 700 LINE",
"44 700 LINE"
);
},
{
closed = 1;
nodes = (
"44 0 LINE",
"277 0 LINE",
"277 13 LINE",
"44 13 LINE"
);
},
{
closed = 1;
nodes = (
"434 687 LINE",
"667 687 LINE",
"667 700 LINE",
"434 700 LINE"
);
},
{
closed = 1;
nodes = (
"434 0 LINE",
"667 0 LINE",
"667 13 LINE",
"434 13 LINE"
);
}
);
width = 707;
}
);
unicode = 0048;
},
{
glyphname = I;
lastChange = "2021-04-16 16:49:14 +0000";
layers = (
{
layerId = "16A4F72C-6E52-4851-BC55-1EF2E1D4C4EC";
paths = (
{
closed = 1;
nodes = (
"270 700 LINE",
"271 699 LINE",
"271 465 LINE",
"309 505 OFFCURVE",
"348 545 OFFCURVE",
"387 584 CURVE",
"348 622 OFFCURVE",
"308 662 OFFCURVE",
"270 700 CURVE",
"231 662 OFFCURVE",
"191 622 OFFCURVE",
"152 584 CURVE",
"190 545 OFFCURVE",
"231 505 OFFCURVE",
"269 465 CURVE",
"269 699 LINE"
);
},
{
closed = 1;
nodes = (
"271 465 LINE",
"270 464 LINE",
"269 465 LINE",
"269 465 LINE",
"270 464 LINE",
"271 465 LINE"
);
},
{
closed = 1;
nodes = (
"270 468 LINE",
"271 467 LINE",
"271 234 LINE",
"309 274 OFFCURVE",
"348 313 OFFCURVE",
"387 352 CURVE",
"348 391 OFFCURVE",
"308 430 OFFCURVE",
"270 468 CURVE",
"231 430 OFFCURVE",
"191 391 OFFCURVE",
"152 352 CURVE",
"190 313 OFFCURVE",
"231 274 OFFCURVE",
"269 234 CURVE",
"269 467 LINE"
);
},
{
closed = 1;
nodes = (
"271 234 LINE",
"270 233 LINE",
"269 234 LINE",
"269 234 LINE",
"270 233 LINE",
"271 234 LINE"
);
},
{
closed = 1;
nodes = (
"270 234 LINE",
"271 233 LINE",
"271 0 LINE",
"309 39 OFFCURVE",
"348 78 OFFCURVE",
"387 118 CURVE",
"348 156 OFFCURVE",
"308 196 OFFCURVE",
"270 234 CURVE",
"231 196 OFFCURVE",
"191 156 OFFCURVE",
"152 118 CURVE",
"190 78 OFFCURVE",
"231 39 OFFCURVE",
"269 0 CURVE",
"269 233 LINE"
);
},
{
closed = 0;
nodes = (
"271 700 LINE",
"271 687 LINE"
);
},
{
closed = 0;
nodes = (
"271 13 LINE",
"271 0 LINE"
);
},
{
closed = 0;
nodes = (
"271 473 LINE",
"271 460 LINE"
);
},
{
closed = 1;
nodes = (
"157 687 LINE",
"390 687 LINE",
"390 700 LINE",
"157 700 LINE"
);
},
{
closed = 1;
nodes = (
"157 0 LINE",
"390 0 LINE",
"390 13 LINE",
"157 13 LINE"
);
},
{
closed = 1;
nodes = (
"381 691 LINE",
"497 574 LINE",
"507 583 LINE",
"390 700 LINE"
);
},
{
closed = 1;
nodes = (
"40 583 LINE",
"50 574 LINE",
"166 691 LINE",
"157 700 LINE"
);
},
{
closed = 1;
nodes = (
"507 117 LINE",
"497 126 LINE",
"381 9 LINE",
"390 0 LINE"
);
},
{
closed = 1;
nodes = (
"166 9 LINE",
"50 126 LINE",
"40 117 LINE",
"157 0 LINE"
);
}
);
width = 547;
},
{
layerId = "97FB2712-2ECD-43E8-8EDB-5EDF297461B7";
paths = (
{
closed = 1;
nodes = (
"270 700 LINE",
"271 699 LINE",
"271 465 LINE",
"329 465 OFFCURVE",
"387 526 OFFCURVE",
"387 584 CURVE",
"387 641 OFFCURVE",
"328 700 OFFCURVE",
"270 700 CURVE",
"212 700 OFFCURVE",
"153 642 OFFCURVE",
"152 584 CURVE",
"152 526 OFFCURVE",
"211 465 OFFCURVE",
"269 465 CURVE",
"269 699 LINE"
);
},
{
closed = 1;
nodes = (
"271 465 LINE",
"270 464 LINE",
"269 465 LINE",
"269 465 LINE",
"270 464 LINE",
"271 465 LINE"
);
},
{
closed = 1;
nodes = (
"270 468 LINE",
"271 467 LINE",
"271 234 LINE",
"329 234 OFFCURVE",
"386 294 OFFCURVE",
"387 352 CURVE",
"386 410 OFFCURVE",
"328 468 OFFCURVE",
"270 468 CURVE",
"212 468 OFFCURVE",
"153 410 OFFCURVE",
"152 352 CURVE",
"152 294 OFFCURVE",
"211 234 OFFCURVE",
"269 234 CURVE",
"269 467 LINE"
);
},
{
closed = 1;
nodes = (
"271 234 LINE",
"270 233 LINE",
"269 234 LINE",
"269 234 LINE",
"270 233 LINE",
"271 234 LINE"
);
},
{
closed = 1;
nodes = (
"270 234 LINE",
"271 233 LINE",
"271 0 LINE",
"329 0 OFFCURVE",
"387 60 OFFCURVE",
"387 118 CURVE",
"387 176 OFFCURVE",
"328 234 OFFCURVE",
"270 234 CURVE",
"212 234 OFFCURVE",
"153 176 OFFCURVE",
"152 118 CURVE",
"152 60 OFFCURVE",
"211 0 OFFCURVE",
"269 0 CURVE",
"269 233 LINE"
);
},
{
closed = 0;
nodes = (
"271 700 LINE",
"271 687 LINE"
);
},
{
closed = 0;
nodes = (
"271 13 LINE",
"271 0 LINE"
);
},
{
closed = 0;
nodes = (
"271 473 LINE",
"271 460 LINE"
);
},
{
closed = 1;
nodes = (
"157 687 LINE",
"390 687 LINE",
"390 700 LINE",
"157 700 LINE"
);
},
{
closed = 1;
nodes = (
"157 0 LINE",
"390 0 LINE",
"390 13 LINE",
"157 13 LINE"
);
},
{
closed = 1;
nodes = (
"381 691 LINE",
"497 574 LINE",
"507 583 LINE",
"390 700 LINE"
);
},
{
closed = 1;
nodes = (
"40 583 LINE",
"50 574 LINE",
"166 691 LINE",
"157 700 LINE"
);
},
{
closed = 1;
nodes = (
"507 117 LINE",
"497 126 LINE",
"381 9 LINE",
"390 0 LINE"
);
},
{
closed = 1;
nodes = (
"166 9 LINE",
"50 126 LINE",
"40 117 LINE",
"157 0 LINE"
);
}
);
width = 547;
}
);
unicode = 0049;
},
{
glyphname = J;
lastChange = "2021-04-16 16:49:29 +0000";
layers = (
{
layerId = "16A4F72C-6E52-4851-BC55-1EF2E1D4C4EC";
paths = (
{
closed = 1;
nodes = (
"391 700 LINE",
"392 699 LINE",
"392 465 LINE",
"430 505 OFFCURVE",
"469 545 OFFCURVE",
"508 584 CURVE",
"469 622 OFFCURVE",
"429 662 OFFCURVE",
"391 700 CURVE",
"352 662 OFFCURVE",
"312 622 OFFCURVE",
"273 584 CURVE",
"311 545 OFFCURVE",
"352 505 OFFCURVE",
"390 465 CURVE",
"390 699 LINE"
);
},
{
closed = 1;
nodes = (
"392 465 LINE",
"391 464 LINE",
"390 465 LINE",
"390 465 LINE",
"391 464 LINE",
"392 465 LINE"
);
},
{
closed = 1;
nodes = (
"391 468 LINE",
"392 467 LINE",
"392 234 LINE",
"430 274 OFFCURVE",
"469 313 OFFCURVE",
"508 352 CURVE",
"469 391 OFFCURVE",
"429 430 OFFCURVE",
"391 468 CURVE",
"352 430 OFFCURVE",
"312 391 OFFCURVE",
"273 352 CURVE",
"311 313 OFFCURVE",
"352 274 OFFCURVE",
"390 234 CURVE",
"390 467 LINE"
);
},
{
closed = 1;
nodes = (
"392 234 LINE",
"391 233 LINE",
"390 234 LINE",
"390 234 LINE",
"391 233 LINE",
"392 234 LINE"
);
},
{
closed = 1;
nodes = (
"391 234 LINE",
"392 233 LINE",
"392 0 LINE",
"430 39 OFFCURVE",
"469 78 OFFCURVE",
"508 118 CURVE",
"469 156 OFFCURVE",
"429 196 OFFCURVE",
"391 234 CURVE",
"352 196 OFFCURVE",
"312 156 OFFCURVE",
"273 118 CURVE",
"311 78 OFFCURVE",
"352 39 OFFCURVE",
"390 0 CURVE",
"390 233 LINE"
);
},
{
closed = 0;
nodes = (
"392 700 LINE",
"392 687 LINE"
);
},
{
closed = 0;
nodes = (
"392 13 LINE",
"392 0 LINE"
);
},
{
closed = 0;
nodes = (
"392 473 LINE",
"392 460 LINE"
);
},
{
closed = 1;
nodes = (
"40 119 LINE",
"157 0 LINE",
"167 9 LINE",
"49 128 LINE"
);
},
{
closed = 1;
nodes = (
"157 0 LINE",
"390 0 LINE",
"390 13 LINE",
"157 13 LINE"
);
},
{
closed = 1;
nodes = (
"275 687 LINE",
"508 687 LINE",
"508 700 LINE",
"275 700 LINE"
);
}
);
width = 548;
},
{
layerId = "97FB2712-2ECD-43E8-8EDB-5EDF297461B7";
paths = (
{
closed = 1;
nodes = (
"391 700 LINE",
"392 699 LINE",
"392 465 LINE",
"450 465 OFFCURVE",
"508 526 OFFCURVE",
"508 584 CURVE",
"508 642 OFFCURVE",
"449 700 OFFCURVE",
"391 700 CURVE",
"333 700 OFFCURVE",
"273 642 OFFCURVE",
"273 584 CURVE",
"273 526 OFFCURVE",
"332 465 OFFCURVE",
"390 465 CURVE",
"390 699 LINE"
);
},
{
closed = 1;
nodes = (
"392 465 LINE",
"391 464 LINE",
"390 465 LINE",
"390 465 LINE",
"391 464 LINE",
"392 465 LINE"
);
},
{
closed = 1;
nodes = (
"391 468 LINE",
"392 467 LINE",
"392 234 LINE",
"450 234 OFFCURVE",
"508 294 OFFCURVE",
"508 352 CURVE",
"508 410 OFFCURVE",
"449 468 OFFCURVE",
"391 468 CURVE",
"333 468 OFFCURVE",
"273 410 OFFCURVE",
"273 352 CURVE",
"273 294 OFFCURVE",
"332 234 OFFCURVE",
"390 234 CURVE",
"390 467 LINE"
);
},
{
closed = 1;
nodes = (
"392 234 LINE",
"391 233 LINE",
"390 234 LINE",
"390 234 LINE",
"391 233 LINE",
"392 234 LINE"
);
},
{
closed = 1;
nodes = (
"391 234 LINE",
"392 233 LINE",
"392 0 LINE",
"450 0 OFFCURVE",
"508 60 OFFCURVE",
"508 118 CURVE",
"508 176 OFFCURVE",
"449 234 OFFCURVE",
"391 234 CURVE",
"333 234 OFFCURVE",
"273 176 OFFCURVE",
"273 118 CURVE",
"273 60 OFFCURVE",
"332 0 OFFCURVE",
"390 0 CURVE",
"390 233 LINE"
);
},
{
closed = 0;
nodes = (
"392 700 LINE",
"392 687 LINE"
);
},
{
closed = 0;
nodes = (
"392 13 LINE",
"392 0 LINE"
);
},
{
closed = 0;
nodes = (
"392 473 LINE",
"392 460 LINE"
);
},
{
closed = 1;
nodes = (
"40 119 LINE",
"157 0 LINE",
"167 9 LINE",
"49 128 LINE"
);
},
{
closed = 1;
nodes = (
"157 0 LINE",
"390 0 LINE",
"390 13 LINE",
"157 13 LINE"
);
},
{
closed = 1;
nodes = (
"275 687 LINE",
"508 687 LINE",
"508 700 LINE",
"275 700 LINE"
);
}
);
width = 548;
}
);
unicode = 004A;
},
{
glyphname = K;
lastChange = "2021-04-16 16:49:37 +0000";
layers = (
{
hints = (
{
horizontal = 1;
place = "{473, 17}";
type = Stem;
}
);
layerId = "16A4F72C-6E52-4851-BC55-1EF2E1D4C4EC";
paths = (
{
closed = 1;
nodes = (
"158 700 LINE",
"159 699 LINE",
"159 465 LINE",
"197 505 OFFCURVE",
"236 545 OFFCURVE",
"275 584 CURVE",
"236 622 OFFCURVE",
"196 662 OFFCURVE",
"158 700 CURVE",
"119 662 OFFCURVE",
"79 622 OFFCURVE",
"40 584 CURVE",
"78 545 OFFCURVE",
"119 505 OFFCURVE",
"157 465 CURVE",
"157 699 LINE"
);
},
{
closed = 1;
nodes = (
"159 465 LINE",
"158 464 LINE",
"157 465 LINE",
"157 465 LINE",
"158 464 LINE",
"159 465 LINE"
);
},
{
closed = 1;
nodes = (
"158 468 LINE",
"159 467 LINE",
"159 234 LINE",
"197 274 OFFCURVE",
"236 313 OFFCURVE",
"275 352 CURVE",
"236 391 OFFCURVE",
"196 430 OFFCURVE",
"158 468 CURVE",
"119 430 OFFCURVE",
"79 391 OFFCURVE",
"40 352 CURVE",
"78 313 OFFCURVE",
"119 274 OFFCURVE",
"157 234 CURVE",
"157 467 LINE"
);
},
{
closed = 1;
nodes = (
"159 234 LINE",
"158 233 LINE",
"157 234 LINE",
"157 234 LINE",
"158 233 LINE",
"159 234 LINE"
);
},
{
closed = 1;
nodes = (
"158 234 LINE",
"159 233 LINE",
"159 0 LINE",
"197 39 OFFCURVE",
"236 78 OFFCURVE",
"275 118 CURVE",
"236 156 OFFCURVE",
"196 196 OFFCURVE",
"158 234 CURVE",
"119 196 OFFCURVE",
"79 156 OFFCURVE",
"40 118 CURVE",
"78 78 OFFCURVE",
"119 39 OFFCURVE",
"157 0 CURVE",
"157 233 LINE"
);
},
{
closed = 0;
nodes = (
"159 700 LINE",
"159 687 LINE"
);
},
{
closed = 0;
nodes = (
"159 13 LINE",
"159 0 LINE"
);
},
{
closed = 0;
nodes = (
"159 473 LINE",
"159 460 LINE"
);
},
{
closed = 1;
nodes = (
"503 700 LINE",
"488 700 LINE",
"266 361 LINE",
"275 352 LINE"
);
},
{
closed = 1;
nodes = (
"159 346 LINE",
"387 346 LINE",
"387 359 LINE",
"159 359 LINE"
);
},
{
closed = 1;
nodes = (
"378 350 LINE",
"488 0 LINE",
"503 0 LINE",
"387 359 LINE"
);
},
{
closed = 1;
nodes = (
"377 0 LINE",
"610 0 LINE",
"610 13 LINE",
"377 13 LINE"
);
},
{
closed = 1;
nodes = (
"41 0 LINE",
"274 0 LINE",
"274 13 LINE",
"41 13 LINE"
);
},
{
closed = 1;
nodes = (
"42 687 LINE",
"275 687 LINE",
"275 700 LINE",
"42 700 LINE"
);
},
{
closed = 1;
nodes = (
"373 687 LINE",
"606 687 LINE",
"606 700 LINE",
"373 700 LINE"
);
}
);
width = 650;
},
{
layerId = "97FB2712-2ECD-43E8-8EDB-5EDF297461B7";
paths = (
{
closed = 1;
nodes = (
"158 700 LINE",
"159 699 LINE",
"159 465 LINE",
"217 465 OFFCURVE",
"275 526 OFFCURVE",
"275 584 CURVE",
"275 642 OFFCURVE",
"216 700 OFFCURVE",
"158 700 CURVE",
"100 700 OFFCURVE",
"40 642 OFFCURVE",
"40 584 CURVE",
"40 526 OFFCURVE",
"99 465 OFFCURVE",
"157 465 CURVE",
"157 699 LINE"
);
},
{
closed = 1;
nodes = (
"159 465 LINE",
"158 464 LINE",
"157 465 LINE",
"157 465 LINE",
"158 464 LINE",
"159 465 LINE"
);
},
{
closed = 1;
nodes = (
"158 468 LINE",
"159 467 LINE",
"159 234 LINE",
"217 234 OFFCURVE",
"275 294 OFFCURVE",
"275 352 CURVE",
"275 410 OFFCURVE",
"216 468 OFFCURVE",
"158 468 CURVE",
"100 468 OFFCURVE",
"40 410 OFFCURVE",
"40 352 CURVE",
"40 294 OFFCURVE",
"99 234 OFFCURVE",
"157 234 CURVE",
"157 467 LINE"
);
},
{
closed = 1;
nodes = (
"159 234 LINE",
"158 233 LINE",
"157 234 LINE",
"157 234 LINE",
"158 233 LINE",
"159 234 LINE"
);
},
{
closed = 1;
nodes = (
"158 234 LINE",
"159 233 LINE",
"159 0 LINE",
"217 0 OFFCURVE",
"275 60 OFFCURVE",
"275 118 CURVE",
"275 176 OFFCURVE",
"216 234 OFFCURVE",
"158 234 CURVE",
"100 234 OFFCURVE",
"40 176 OFFCURVE",
"40 118 CURVE",
"40 60 OFFCURVE",
"99 0 OFFCURVE",
"157 0 CURVE",
"157 233 LINE"
);
},
{
closed = 0;
nodes = (
"159 700 LINE",
"159 687 LINE"
);
},
{
closed = 0;
nodes = (
"159 13 LINE",
"159 0 LINE"
);
},
{
closed = 0;
nodes = (
"159 473 LINE",
"159 460 LINE"
);
},
{
closed = 1;
nodes = (
"503 700 LINE",
"488 700 LINE",
"266 361 LINE",
"275 352 LINE"
);
},
{
closed = 1;
nodes = (
"159 346 LINE",
"387 346 LINE",
"387 359 LINE",
"159 359 LINE"
);
},
{
closed = 1;
nodes = (
"378 350 LINE",
"488 0 LINE",
"503 0 LINE",
"387 359 LINE"
);
},
{
closed = 1;
nodes = (
"377 0 LINE",
"610 0 LINE",
"610 13 LINE",
"377 13 LINE"
);
},
{
closed = 1;
nodes = (
"41 0 LINE",
"274 0 LINE",
"274 13 LINE",
"41 13 LINE"
);
},
{
closed = 1;
nodes = (
"42 687 LINE",
"275 687 LINE",
"275 700 LINE",
"42 700 LINE"
);
},
{
closed = 1;
nodes = (
"373 687 LINE",
"606 687 LINE",
"606 700 LINE",
"373 700 LINE"
);
}
);
width = 650;
}
);
unicode = 004B;
},
{
glyphname = L;
lastChange = "2021-04-16 16:49:49 +0000";
layers = (
{
layerId = "16A4F72C-6E52-4851-BC55-1EF2E1D4C4EC";
paths = (
{
closed = 1;
nodes = (
"167 700 LINE",
"168 699 LINE",
"168 465 LINE",
"206 505 OFFCURVE",
"245 545 OFFCURVE",
"284 584 CURVE",
"245 622 OFFCURVE",
"205 662 OFFCURVE",
"167 700 CURVE",
"128 662 OFFCURVE",
"88 622 OFFCURVE",
"49 584 CURVE",
"87 545 OFFCURVE",
"128 505 OFFCURVE",
"166 465 CURVE",
"166 699 LINE"
);
},
{
closed = 1;
nodes = (
"168 465 LINE",
"167 464 LINE",
"166 465 LINE",
"166 465 LINE",
"167 464 LINE",
"168 465 LINE"
);
},
{
closed = 1;
nodes = (
"167 468 LINE",
"168 467 LINE",
"168 234 LINE",
"206 274 OFFCURVE",
"245 313 OFFCURVE",
"284 352 CURVE",
"245 391 OFFCURVE",
"205 430 OFFCURVE",
"167 468 CURVE",
"128 430 OFFCURVE",
"88 391 OFFCURVE",
"49 352 CURVE",
"87 313 OFFCURVE",
"128 274 OFFCURVE",
"166 234 CURVE",
"166 467 LINE"
);
},
{
closed = 1;
nodes = (
"168 234 LINE",
"167 233 LINE",
"166 234 LINE",
"166 234 LINE",
"167 233 LINE",
"168 234 LINE"
);
},
{
closed = 1;
nodes = (
"167 234 LINE",
"168 233 LINE",
"168 0 LINE",
"206 39 OFFCURVE",
"245 78 OFFCURVE",
"284 118 CURVE",
"245 156 OFFCURVE",
"205 196 OFFCURVE",
"167 234 CURVE",
"128 196 OFFCURVE",
"88 156 OFFCURVE",
"49 118 CURVE",
"87 78 OFFCURVE",
"128 39 OFFCURVE",
"166 0 CURVE",
"166 233 LINE"
);
},
{
closed = 0;
nodes = (
"168 700 LINE",
"168 687 LINE"
);
},
{
closed = 0;
nodes = (
"168 13 LINE",
"168 0 LINE"
);
},
{
closed = 0;
nodes = (
"168 473 LINE",
"168 460 LINE"
);
},
{
closed = 1;
nodes = (
"518 117 LINE",
"508 126 LINE",
"392 9 LINE",
"401 0 LINE"
);
},
{
closed = 1;
nodes = (
"168 0 LINE",
"401 0 LINE",
"401 13 LINE",
"168 13 LINE"
);
},
{
closed = 1;
nodes = (
"50 687 LINE",
"283 687 LINE",
"283 700 LINE",
"50 700 LINE"
);
},
{
closed = 1;
nodes = (
"40 0 LINE",
"273 0 LINE",
"273 13 LINE",
"40 13 LINE"
);
}
);
width = 558;
},
{
layerId = "97FB2712-2ECD-43E8-8EDB-5EDF297461B7";
paths = (
{
closed = 1;
nodes = (
"167 700 LINE",
"168 699 LINE",
"168 465 LINE",
"226 465 OFFCURVE",
"284 526 OFFCURVE",
"284 584 CURVE",
"284 642 OFFCURVE",
"225 700 OFFCURVE",
"167 700 CURVE",
"109 700 OFFCURVE",
"50 642 OFFCURVE",
"49 584 CURVE",
"49 526 OFFCURVE",
"108 465 OFFCURVE",
"166 465 CURVE",
"166 699 LINE"
);
},
{
closed = 1;
nodes = (
"168 465 LINE",
"167 464 LINE",
"166 465 LINE",
"166 465 LINE",
"167 464 LINE",
"168 465 LINE"
);
},
{
closed = 1;
nodes = (
"167 468 LINE",
"168 467 LINE",
"168 234 LINE",
"226 234 OFFCURVE",
"284 294 OFFCURVE",
"284 352 CURVE",
"284 410 OFFCURVE",
"225 468 OFFCURVE",
"167 468 CURVE",
"109 468 OFFCURVE",
"50 410 OFFCURVE",
"49 352 CURVE",
"49 294 OFFCURVE",
"108 234 OFFCURVE",
"166 234 CURVE",
"166 467 LINE"
);
},
{
closed = 1;
nodes = (
"168 234 LINE",
"167 233 LINE",
"166 234 LINE",
"166 234 LINE",
"167 233 LINE",
"168 234 LINE"
);
},
{
closed = 1;
nodes = (
"167 234 LINE",
"168 233 LINE",
"168 0 LINE",
"226 0 OFFCURVE",
"284 60 OFFCURVE",
"284 118 CURVE",
"284 176 OFFCURVE",
"225 234 OFFCURVE",
"167 234 CURVE",
"109 234 OFFCURVE",
"50 176 OFFCURVE",
"49 118 CURVE",
"49 60 OFFCURVE",
"108 0 OFFCURVE",
"166 0 CURVE",
"166 233 LINE"
);
},
{
closed = 0;
nodes = (
"168 700 LINE",
"168 687 LINE"
);
},
{
closed = 0;
nodes = (
"168 13 LINE",
"168 0 LINE"
);
},
{
closed = 0;
nodes = (
"168 473 LINE",
"168 460 LINE"
);
},
{
closed = 1;
nodes = (
"518 117 LINE",
"508 126 LINE",
"392 9 LINE",
"401 0 LINE"
);
},
{
closed = 1;
nodes = (
"168 0 LINE",
"401 0 LINE",
"401 13 LINE",
"168 13 LINE"
);
},
{
closed = 1;
nodes = (
"50 687 LINE",
"283 687 LINE",
"283 700 LINE",
"50 700 LINE"
);
},
{
closed = 1;
nodes = (
"40 0 LINE",
"273 0 LINE",
"273 13 LINE",
"40 13 LINE"
);
}
);
width = 558;
}
);
unicode = 004C;
},
{
glyphname = M;
lastChange = "2021-04-01 21:52:50 +0000";
layers = (
{
layerId = "16A4F72C-6E52-4851-BC55-1EF2E1D4C4EC";
paths = (
{
closed = 1;
nodes = (
"158 700 LINE",
"159 699 LINE",
"159 465 LINE",
"197 505 OFFCURVE",
"236 545 OFFCURVE",
"275 584 CURVE",
"236 622 OFFCURVE",
"196 662 OFFCURVE",
"158 700 CURVE",
"119 662 OFFCURVE",
"79 622 OFFCURVE",
"40 584 CURVE",
"78 545 OFFCURVE",
"119 505 OFFCURVE",
"157 465 CURVE",
"157 699 LINE"
);
},
{
closed = 1;
nodes = (
"159 465 LINE",
"158 464 LINE",
"157 465 LINE",
"157 465 LINE",
"158 464 LINE",
"159 465 LINE"
);
},
{
closed = 1;
nodes = (
"158 468 LINE",
"159 467 LINE",
"159 234 LINE",
"197 274 OFFCURVE",
"236 313 OFFCURVE",
"275 352 CURVE",
"236 391 OFFCURVE",
"196 430 OFFCURVE",
"158 468 CURVE",
"119 430 OFFCURVE",
"79 391 OFFCURVE",
"40 352 CURVE",
"78 313 OFFCURVE",
"119 274 OFFCURVE",
"157 234 CURVE",
"157 467 LINE"
);
},
{
closed = 1;
nodes = (
"159 234 LINE",
"158 233 LINE",
"157 234 LINE",
"157 234 LINE",
"158 233 LINE",
"159 234 LINE"
);
},
{
closed = 1;
nodes = (
"158 234 LINE",
"159 233 LINE",
"159 0 LINE",
"197 39 OFFCURVE",
"236 78 OFFCURVE",
"275 118 CURVE",
"236 156 OFFCURVE",
"196 196 OFFCURVE",
"158 234 CURVE",
"119 196 OFFCURVE",
"79 156 OFFCURVE",
"40 118 CURVE",
"78 78 OFFCURVE",
"119 39 OFFCURVE",
"157 0 CURVE",
"157 233 LINE"
);
},
{
closed = 1;
nodes = (
"395 0 LINE",
"395 584 LINE",
"382 584 LINE",
"382 0 LINE"
);
},
{
closed = 1;
nodes = (
"388 571 LINE",
"395 582 LINE",
"275 700 LINE",
"265 691 LINE"
);
},
{
closed = 1;
nodes = (
"275 700 LINE",
"159 700 LINE",
"159 687 LINE",
"275 687 LINE"
);
},
{
closed = 1;
nodes = (
"625 0 LINE",
"625 700 LINE",
"612 700 LINE",
"612 0 LINE"
);
},
{
closed = 1;
nodes = (
"502 700 LINE",
"382 582 LINE",
"389 571 LINE",
"512 691 LINE"
);
},
{
closed = 1;
nodes = (
"618 700 LINE",
"502 700 LINE",
"502 687 LINE",
"618 687 LINE"
);
},
{
closed = 1;
nodes = (
"502 0 LINE",
"735 0 LINE",
"735 13 LINE",
"502 13 LINE"
);
},
{
closed = 1;
nodes = (
"41 0 LINE",
"274 0 LINE",
"274 13 LINE",
"41 13 LINE"
);
}
);
width = 775;
},
{
layerId = "97FB2712-2ECD-43E8-8EDB-5EDF297461B7";
paths = (
{
closed = 1;
nodes = (
"158 700 LINE",
"159 699 LINE",
"159 465 LINE",
"217 465 OFFCURVE",
"275 526 OFFCURVE",
"275 584 CURVE",
"275 642 OFFCURVE",
"216 700 OFFCURVE",
"158 700 CURVE",
"100 700 OFFCURVE",
"40 642 OFFCURVE",
"40 584 CURVE",
"40 526 OFFCURVE",
"99 465 OFFCURVE",
"157 465 CURVE",
"157 699 LINE"
);
},
{
closed = 1;
nodes = (
"159 465 LINE",
"158 464 LINE",
"157 465 LINE",
"157 465 LINE",
"158 464 LINE",
"159 465 LINE"
);
},
{
closed = 1;
nodes = (
"158 468 LINE",
"159 467 LINE",
"159 234 LINE",
"217 234 OFFCURVE",
"275 294 OFFCURVE",
"275 352 CURVE",
"275 410 OFFCURVE",
"216 468 OFFCURVE",
"158 468 CURVE",
"100 468 OFFCURVE",
"40 410 OFFCURVE",
"40 352 CURVE",
"40 294 OFFCURVE",
"99 234 OFFCURVE",
"157 234 CURVE",
"157 467 LINE"
);
},
{
closed = 1;
nodes = (
"159 234 LINE",
"158 233 LINE",
"157 234 LINE",
"157 234 LINE",
"158 233 LINE",
"159 234 LINE"
);
},
{
closed = 1;
nodes = (
"158 234 LINE",
"159 233 LINE",
"159 0 LINE",
"217 0 OFFCURVE",
"275 60 OFFCURVE",
"275 118 CURVE",
"275 176 OFFCURVE",
"216 234 OFFCURVE",
"158 234 CURVE",
"100 234 OFFCURVE",
"40 176 OFFCURVE",
"40 118 CURVE",
"40 60 OFFCURVE",
"99 0 OFFCURVE",
"157 0 CURVE",
"157 233 LINE"
);
},
{
closed = 1;
nodes = (
"395 0 LINE",
"395 584 LINE",
"382 584 LINE",
"382 0 LINE"
);
},
{
closed = 1;
nodes = (
"388 571 LINE",
"395 582 LINE",
"275 700 LINE",
"265 691 LINE"
);
},
{
closed = 1;
nodes = (
"275 700 LINE",
"159 700 LINE",
"159 687 LINE",
"275 687 LINE"
);
},
{
closed = 1;
nodes = (
"625 0 LINE",
"625 700 LINE",
"612 700 LINE",
"612 0 LINE"
);
},
{
closed = 1;
nodes = (
"502 700 LINE",
"382 582 LINE",
"389 571 LINE",
"512 691 LINE"
);
},
{
closed = 1;
nodes = (
"618 700 LINE",
"502 700 LINE",
"502 687 LINE",
"618 687 LINE"
);
},
{
closed = 1;
nodes = (
"502 0 LINE",
"735 0 LINE",
"735 13 LINE",
"502 13 LINE"
);
},
{
closed = 1;
nodes = (
"41 0 LINE",
"274 0 LINE",
"274 13 LINE",
"41 13 LINE"
);
}
);
width = 775;
}
);
unicode = 004D;
},
{
glyphname = N;
lastChange = "2021-04-01 21:04:18 +0000";
layers = (
{
layerId = "16A4F72C-6E52-4851-BC55-1EF2E1D4C4EC";
paths = (
{
closed = 1;
nodes = (
"158 700 LINE",
"159 699 LINE",
"159 465 LINE",
"197 505 OFFCURVE",
"236 545 OFFCURVE",
"275 584 CURVE",
"236 622 OFFCURVE",
"196 662 OFFCURVE",
"158 700 CURVE",
"119 662 OFFCURVE",
"79 622 OFFCURVE",
"40 584 CURVE",
"78 545 OFFCURVE",
"119 505 OFFCURVE",
"157 465 CURVE",
"157 699 LINE"
);
},
{
closed = 1;
nodes = (
"159 465 LINE",
"158 464 LINE",
"157 465 LINE",
"157 465 LINE",
"158 464 LINE",
"159 465 LINE"
);
},
{
closed = 1;
nodes = (
"158 468 LINE",
"159 467 LINE",
"159 234 LINE",
"197 274 OFFCURVE",
"236 313 OFFCURVE",
"275 352 CURVE",
"236 391 OFFCURVE",
"196 430 OFFCURVE",
"158 468 CURVE",
"119 430 OFFCURVE",
"79 391 OFFCURVE",
"40 352 CURVE",
"78 313 OFFCURVE",
"119 274 OFFCURVE",
"157 234 CURVE",
"157 467 LINE"
);
},
{
closed = 1;
nodes = (
"159 234 LINE",
"158 233 LINE",
"157 234 LINE",
"157 234 LINE",
"158 233 LINE",
"159 234 LINE"
);
},
{
closed = 1;
nodes = (
"158 234 LINE",
"159 233 LINE",
"159 0 LINE",
"197 39 OFFCURVE",
"236 78 OFFCURVE",
"275 118 CURVE",
"236 156 OFFCURVE",
"196 196 OFFCURVE",
"158 234 CURVE",
"119 196 OFFCURVE",
"79 156 OFFCURVE",
"40 118 CURVE",
"78 78 OFFCURVE",
"119 39 OFFCURVE",
"157 0 CURVE",
"157 233 LINE"
);
},
{
closed = 1;
nodes = (
"498 0 LINE",
"498 700 LINE",
"485 700 LINE",
"485 0 LINE"
);
},
{
closed = 1;
nodes = (
"375 700 LINE",
"255 582 LINE",
"262 571 LINE",
"385 691 LINE"
);
},
{
closed = 1;
nodes = (
"491 700 LINE",
"375 700 LINE",
"375 687 LINE",
"491 687 LINE"
);
},
{
closed = 1;
nodes = (
"375 0 LINE",
"608 0 LINE",
"608 13 LINE",
"375 13 LINE"
);
},
{
closed = 1;
nodes = (
"41 0 LINE",
"274 0 LINE",
"274 13 LINE",
"41 13 LINE"
);
},
{
closed = 1;
nodes = (
"41 687 LINE",
"274 687 LINE",
"274 700 LINE",
"41 700 LINE"
);
}
);
width = 648;
},
{
layerId = "97FB2712-2ECD-43E8-8EDB-5EDF297461B7";
paths = (
{
closed = 1;
nodes = (
"158 700 LINE",
"159 699 LINE",
"159 465 LINE",
"217 465 OFFCURVE",
"275 526 OFFCURVE",
"275 584 CURVE",
"275 642 OFFCURVE",
"216 700 OFFCURVE",
"158 700 CURVE",
"100 700 OFFCURVE",
"40 642 OFFCURVE",
"40 584 CURVE",
"40 526 OFFCURVE",
"99 465 OFFCURVE",
"157 465 CURVE",
"157 699 LINE"
);
},
{
closed = 1;
nodes = (
"159 465 LINE",
"158 464 LINE",
"157 465 LINE",
"157 465 LINE",
"158 464 LINE",
"159 465 LINE"
);
},
{
closed = 1;
nodes = (
"158 468 LINE",
"159 467 LINE",
"159 234 LINE",
"217 234 OFFCURVE",
"275 294 OFFCURVE",
"275 352 CURVE",
"275 410 OFFCURVE",
"216 468 OFFCURVE",
"158 468 CURVE",
"100 468 OFFCURVE",
"40 410 OFFCURVE",
"40 352 CURVE",
"40 294 OFFCURVE",
"99 234 OFFCURVE",
"157 234 CURVE",
"157 467 LINE"
);
},
{
closed = 1;
nodes = (
"159 234 LINE",
"158 233 LINE",
"157 234 LINE",
"157 234 LINE",
"158 233 LINE",
"159 234 LINE"
);
},
{
closed = 1;
nodes = (
"158 234 LINE",
"159 233 LINE",
"159 0 LINE",
"217 0 OFFCURVE",
"275 60 OFFCURVE",
"275 118 CURVE",
"275 176 OFFCURVE",
"216 234 OFFCURVE",
"158 234 CURVE",
"100 234 OFFCURVE",
"40 176 OFFCURVE",
"40 118 CURVE",
"40 60 OFFCURVE",
"99 0 OFFCURVE",
"157 0 CURVE",
"157 233 LINE"
);
},
{
closed = 1;
nodes = (
"498 0 LINE",
"498 700 LINE",
"485 700 LINE",
"485 0 LINE"
);
},
{
closed = 1;
nodes = (
"375 700 LINE",
"255 582 LINE",
"262 571 LINE",
"385 691 LINE"
);
},
{
closed = 1;
nodes = (
"491 700 LINE",
"375 700 LINE",
"375 687 LINE",
"491 687 LINE"
);
},
{
closed = 1;
nodes = (
"375 0 LINE",
"608 0 LINE",
"608 13 LINE",
"375 13 LINE"
);
},
{
closed = 1;
nodes = (
"41 0 LINE",
"274 0 LINE",
"274 13 LINE",
"41 13 LINE"
);
},
{
closed = 1;
nodes = (
"41 687 LINE",
"274 687 LINE",
"274 700 LINE",
"41 700 LINE"
);
}
);
width = 648;
}
);
unicode = 004E;
},
{
glyphname = O;
lastChange = "2021-04-01 21:27:22 +0000";
layers = (
{
layerId = "16A4F72C-6E52-4851-BC55-1EF2E1D4C4EC";
paths = (
{
closed = 1;
nodes = (
"158 585 LINE",
"159 584 LINE",
"159 350 LINE",
"197 390 OFFCURVE",
"236 430 OFFCURVE",
"275 469 CURVE",
"236 507 OFFCURVE",
"196 547 OFFCURVE",
"158 585 CURVE",
"119 547 OFFCURVE",
"79 507 OFFCURVE",
"40 469 CURVE",
"78 430 OFFCURVE",
"119 390 OFFCURVE",
"157 350 CURVE",
"157 584 LINE"
);
},
{
closed = 1;
nodes = (
"159 355 LINE",
"158 354 LINE",
"157 355 LINE",
"157 355 LINE",
"158 354 LINE",
"159 355 LINE"
);
},
{
closed = 1;
nodes = (
"158 353 LINE",
"159 352 LINE",
"159 119 LINE",
"197 159 OFFCURVE",
"236 198 OFFCURVE",
"275 237 CURVE",
"236 276 OFFCURVE",
"196 315 OFFCURVE",
"158 353 CURVE",
"119 315 OFFCURVE",
"79 276 OFFCURVE",
"40 237 CURVE",
"78 198 OFFCURVE",
"119 159 OFFCURVE",
"157 119 CURVE",
"157 352 LINE"
);
},
{
closed = 1;
nodes = (
"159 124 LINE",
"158 123 LINE",
"157 124 LINE",
"157 124 LINE",
"158 123 LINE",
"159 124 LINE"
);
},
{
closed = 0;
nodes = (
"159 590 LINE",
"159 577 LINE"
);
},
{
closed = 0;
nodes = (
"383 13 LINE",
"383 0 LINE"
);
},
{
closed = 0;
nodes = (
"159 363 LINE",
"159 350 LINE"
);
},
{
closed = 1;
nodes = (
"269 687 LINE",
"502 687 LINE",
"502 700 LINE",
"269 700 LINE"
);
},
{
closed = 1;
nodes = (
"493 691 LINE",
"609 574 LINE",
"619 583 LINE",
"502 700 LINE"
);
},
{
closed = 1;
nodes = (
"152 583 LINE",
"162 574 LINE",
"278 691 LINE",
"269 700 LINE"
);
},
{
closed = 1;
nodes = (
"152 119 LINE",
"269 0 LINE",
"279 9 LINE",
"161 128 LINE"
);
},
{
closed = 1;
nodes = (
"619 117 LINE",
"609 126 LINE",
"493 9 LINE",
"502 0 LINE"
);
},
{
closed = 1;
nodes = (
"269 0 LINE",
"502 0 LINE",
"502 13 LINE",
"269 13 LINE"
);
},
{
closed = 1;
nodes = (
"613 585 LINE",
"614 584 LINE",
"614 350 LINE",
"652 390 OFFCURVE",
"691 430 OFFCURVE",
"730 469 CURVE",
"691 507 OFFCURVE",
"651 547 OFFCURVE",
"613 585 CURVE",
"574 547 OFFCURVE",
"534 507 OFFCURVE",
"495 469 CURVE",
"533 430 OFFCURVE",
"574 390 OFFCURVE",
"612 350 CURVE",
"612 584 LINE"
);
},
{
closed = 1;
nodes = (
"614 355 LINE",
"613 354 LINE",
"612 355 LINE",
"612 355 LINE",
"613 354 LINE",
"614 355 LINE"
);
},
{
closed = 1;
nodes = (
"613 353 LINE",
"614 352 LINE",
"614 119 LINE",
"652 159 OFFCURVE",
"691 198 OFFCURVE",
"730 237 CURVE",
"691 276 OFFCURVE",
"651 315 OFFCURVE",
"613 353 CURVE",
"574 315 OFFCURVE",
"534 276 OFFCURVE",
"495 237 CURVE",
"533 198 OFFCURVE",
"574 159 OFFCURVE",
"612 119 CURVE",
"612 352 LINE"
);
},
{
closed = 1;
nodes = (
"614 124 LINE",
"613 123 LINE",
"612 124 LINE",
"612 124 LINE",
"613 123 LINE",
"614 124 LINE"
);
},
{
closed = 0;
nodes = (
"614 590 LINE",
"614 577 LINE"
);
},
{
closed = 0;
nodes = (
"614 363 LINE",
"614 350 LINE"
);
}
);
width = 770;
},
{
layerId = "97FB2712-2ECD-43E8-8EDB-5EDF297461B7";
paths = (
{
closed = 1;
nodes = (
"158 585 LINE",
"159 584 LINE",
"159 350 LINE",
"217 350 OFFCURVE",
"275 411 OFFCURVE",
"275 469 CURVE",
"275 527 OFFCURVE",
"216 585 OFFCURVE",
"158 585 CURVE",
"100 585 OFFCURVE",
"40 527 OFFCURVE",
"40 469 CURVE",
"40 411 OFFCURVE",
"99 350 OFFCURVE",
"157 350 CURVE",
"157 584 LINE"
);
},
{
closed = 1;
nodes = (
"159 355 LINE",
"158 354 LINE",
"157 355 LINE",
"157 355 LINE",
"158 354 LINE",
"159 355 LINE"
);
},
{
closed = 1;
nodes = (
"158 353 LINE",
"159 352 LINE",
"159 119 LINE",
"217 119 OFFCURVE",
"275 179 OFFCURVE",
"275 237 CURVE",
"275 295 OFFCURVE",
"216 353 OFFCURVE",
"158 353 CURVE",
"100 353 OFFCURVE",
"40 295 OFFCURVE",
"40 237 CURVE",
"40 178 OFFCURVE",
"99 119 OFFCURVE",
"157 119 CURVE",
"157 352 LINE"
);
},
{
closed = 1;
nodes = (
"159 124 LINE",
"158 123 LINE",
"157 124 LINE",
"157 124 LINE",
"158 123 LINE",
"159 124 LINE"
);
},
{
closed = 0;
nodes = (
"159 590 LINE",
"159 577 LINE"
);
},
{
closed = 0;
nodes = (
"383 13 LINE",
"383 0 LINE"
);
},
{
closed = 0;
nodes = (
"159 363 LINE",
"159 350 LINE"
);
},
{
closed = 1;
nodes = (
"269 687 LINE",
"502 687 LINE",
"502 700 LINE",
"269 700 LINE"
);
},
{
closed = 1;
nodes = (
"493 691 LINE",
"609 574 LINE",
"619 583 LINE",
"502 700 LINE"
);
},
{
closed = 1;
nodes = (
"152 583 LINE",
"162 574 LINE",
"278 691 LINE",
"269 700 LINE"
);
},
{
closed = 1;
nodes = (
"152 119 LINE",
"269 0 LINE",
"279 9 LINE",
"161 128 LINE"
);
},
{
closed = 1;
nodes = (
"619 117 LINE",
"609 126 LINE",
"493 9 LINE",
"502 0 LINE"
);
},
{
closed = 1;
nodes = (
"269 0 LINE",
"502 0 LINE",
"502 13 LINE",
"269 13 LINE"
);
},
{
closed = 1;
nodes = (
"613 585 LINE",
"614 584 LINE",
"614 350 LINE",
"672 350 OFFCURVE",
"730 411 OFFCURVE",
"730 469 CURVE",
"730 527 OFFCURVE",
"671 585 OFFCURVE",
"613 585 CURVE",
"555 585 OFFCURVE",
"495 527 OFFCURVE",
"495 469 CURVE",
"495 411 OFFCURVE",
"554 350 OFFCURVE",
"612 350 CURVE",
"612 584 LINE"
);
},
{
closed = 1;
nodes = (
"614 355 LINE",
"613 354 LINE",
"612 355 LINE",
"612 355 LINE",
"613 354 LINE",
"614 355 LINE"
);
},
{
closed = 1;
nodes = (
"613 353 LINE",
"614 352 LINE",
"614 119 LINE",
"672 119 OFFCURVE",
"730 179 OFFCURVE",
"730 237 CURVE",
"730 295 OFFCURVE",
"671 353 OFFCURVE",
"613 353 CURVE",
"555 353 OFFCURVE",
"495 295 OFFCURVE",
"495 237 CURVE",
"495 179 OFFCURVE",
"554 119 OFFCURVE",
"612 119 CURVE",
"612 352 LINE"
);
},
{
closed = 1;
nodes = (
"614 124 LINE",
"613 123 LINE",
"612 124 LINE",
"612 124 LINE",
"613 123 LINE",
"614 124 LINE"
);
},
{
closed = 0;
nodes = (
"614 590 LINE",
"614 577 LINE"
);
},
{
closed = 0;
nodes = (
"614 363 LINE",
"614 350 LINE"
);
}
);
width = 770;
}
);
unicode = 004F;
},
{
glyphname = P;
lastChange = "2021-04-16 16:50:13 +0000";
layers = (
{
layerId = "16A4F72C-6E52-4851-BC55-1EF2E1D4C4EC";
paths = (
{
closed = 1;
nodes = (
"158 700 LINE",
"159 699 LINE",
"159 465 LINE",
"197 505 OFFCURVE",
"236 545 OFFCURVE",
"275 584 CURVE",
"236 622 OFFCURVE",
"196 662 OFFCURVE",
"158 700 CURVE",
"119 662 OFFCURVE",
"79 622 OFFCURVE",
"40 584 CURVE",
"78 545 OFFCURVE",
"119 505 OFFCURVE",
"157 465 CURVE",
"157 699 LINE"
);
},
{
closed = 1;
nodes = (
"159 465 LINE",
"158 464 LINE",
"157 465 LINE",
"157 465 LINE",
"158 464 LINE",
"159 465 LINE"
);
},
{
closed = 1;
nodes = (
"158 468 LINE",
"159 467 LINE",
"159 234 LINE",
"197 274 OFFCURVE",
"236 313 OFFCURVE",
"275 352 CURVE",
"236 391 OFFCURVE",
"196 430 OFFCURVE",
"158 468 CURVE",
"119 430 OFFCURVE",
"79 391 OFFCURVE",
"40 352 CURVE",
"78 313 OFFCURVE",
"119 274 OFFCURVE",
"157 234 CURVE",
"157 467 LINE"
);
},
{
closed = 1;
nodes = (
"159 234 LINE",
"158 233 LINE",
"157 234 LINE",
"157 234 LINE",
"158 233 LINE",
"159 234 LINE"
);
},
{
closed = 1;
nodes = (
"158 234 LINE",
"159 233 LINE",
"159 0 LINE",
"197 39 OFFCURVE",
"236 78 OFFCURVE",
"275 118 CURVE",
"236 156 OFFCURVE",
"196 196 OFFCURVE",
"158 234 CURVE",
"119 196 OFFCURVE",
"79 156 OFFCURVE",
"40 118 CURVE",
"78 78 OFFCURVE",
"119 39 OFFCURVE",
"157 0 CURVE",
"157 233 LINE"
);
},
{
closed = 0;
nodes = (
"159 700 LINE",
"159 687 LINE"
);
},
{
closed = 0;
nodes = (
"159 13 LINE",
"159 0 LINE"
);
},
{
closed = 0;
nodes = (
"159 473 LINE",
"159 460 LINE"
);
},
{
closed = 1;
nodes = (
"383 691 LINE",
"499 574 LINE",
"509 583 LINE",
"392 700 LINE"
);
},
{
closed = 1;
nodes = (
"392 687 LINE",
"392 700 LINE",
"159 700 LINE",
"159 687 LINE"
);
},
{
closed = 1;
nodes = (
"509 346 LINE",
"509 359 LINE",
"266 359 LINE",
"266 346 LINE"
);
},
{
closed = 1;
nodes = (
"496 350 LINE",
"509 350 LINE",
"509 583 LINE",
"496 583 LINE"
);
},
{
closed = 1;
nodes = (
"42 0 LINE",
"275 0 LINE",
"275 13 LINE",
"42 13 LINE"
);
},
{
closed = 1;
nodes = (
"42 687 LINE",
"275 687 LINE",
"275 700 LINE",
"42 700 LINE"
);
}
);
width = 549;
},
{
layerId = "97FB2712-2ECD-43E8-8EDB-5EDF297461B7";
paths = (
{
closed = 1;
nodes = (
"158 700 LINE",
"159 699 LINE",
"159 465 LINE",
"217 465 OFFCURVE",
"275 526 OFFCURVE",
"275 584 CURVE",
"275 642 OFFCURVE",
"216 700 OFFCURVE",
"158 700 CURVE",
"100 700 OFFCURVE",
"40 642 OFFCURVE",
"40 584 CURVE",
"40 526 OFFCURVE",
"99 465 OFFCURVE",
"157 465 CURVE",
"157 699 LINE"
);
},
{
closed = 1;
nodes = (
"159 465 LINE",
"158 464 LINE",
"157 465 LINE",
"157 465 LINE",
"158 464 LINE",
"159 465 LINE"
);
},
{
closed = 1;
nodes = (
"158 468 LINE",
"159 467 LINE",
"159 234 LINE",
"217 234 OFFCURVE",
"275 294 OFFCURVE",
"275 352 CURVE",
"275 410 OFFCURVE",
"216 468 OFFCURVE",
"158 468 CURVE",
"100 468 OFFCURVE",
"40 410 OFFCURVE",
"40 352 CURVE",
"40 294 OFFCURVE",
"99 234 OFFCURVE",
"157 234 CURVE",
"157 467 LINE"
);
},
{
closed = 1;
nodes = (
"159 234 LINE",
"158 233 LINE",
"157 234 LINE",
"157 234 LINE",
"158 233 LINE",
"159 234 LINE"
);
},
{
closed = 1;
nodes = (
"158 234 LINE",
"159 233 LINE",
"159 0 LINE",
"217 0 OFFCURVE",
"275 60 OFFCURVE",
"275 118 CURVE",
"275 176 OFFCURVE",
"216 234 OFFCURVE",
"158 234 CURVE",
"100 234 OFFCURVE",
"40 176 OFFCURVE",
"40 118 CURVE",
"40 60 OFFCURVE",
"99 0 OFFCURVE",
"157 0 CURVE",
"157 233 LINE"
);
},
{
closed = 0;
nodes = (
"159 700 LINE",
"159 687 LINE"
);
},
{
closed = 0;
nodes = (
"159 13 LINE",
"159 0 LINE"
);
},
{
closed = 0;
nodes = (
"159 473 LINE",
"159 460 LINE"
);
},
{
closed = 1;
nodes = (
"383 691 LINE",
"499 574 LINE",
"509 583 LINE",
"392 700 LINE"
);
},
{
closed = 1;
nodes = (
"392 687 LINE",
"392 700 LINE",
"159 700 LINE",
"159 687 LINE"
);
},
{
closed = 1;
nodes = (
"509 346 LINE",
"509 359 LINE",
"266 359 LINE",
"266 346 LINE"
);
},
{
closed = 1;
nodes = (
"496 350 LINE",
"509 350 LINE",
"509 583 LINE",
"496 583 LINE"
);
},
{
closed = 1;
nodes = (
"42 0 LINE",
"275 0 LINE",
"275 13 LINE",
"42 13 LINE"
);
},
{
closed = 1;
nodes = (
"42 687 LINE",
"275 687 LINE",
"275 700 LINE",
"42 700 LINE"
);
}
);
width = 549;
}
);
unicode = 0050;
},
{
glyphname = Q;
lastChange = "2021-04-16 16:50:24 +0000";
layers = (
{
layerId = "16A4F72C-6E52-4851-BC55-1EF2E1D4C4EC";
paths = (
{
closed = 1;
nodes = (
"158 585 LINE",
"159 584 LINE",
"159 350 LINE",
"197 390 OFFCURVE",
"236 430 OFFCURVE",
"275 469 CURVE",
"236 507 OFFCURVE",
"196 547 OFFCURVE",
"158 585 CURVE",
"119 547 OFFCURVE",
"79 507 OFFCURVE",
"40 469 CURVE",
"78 430 OFFCURVE",
"119 390 OFFCURVE",
"157 350 CURVE",
"157 584 LINE"
);
},
{
closed = 1;
nodes = (
"159 355 LINE",
"158 354 LINE",
"157 355 LINE",
"157 355 LINE",
"158 354 LINE",
"159 355 LINE"
);
},
{
closed = 1;
nodes = (
"158 353 LINE",
"159 352 LINE",
"159 119 LINE",
"197 159 OFFCURVE",
"236 198 OFFCURVE",
"275 237 CURVE",
"236 276 OFFCURVE",
"196 315 OFFCURVE",
"158 353 CURVE",
"119 315 OFFCURVE",
"79 276 OFFCURVE",
"40 237 CURVE",
"78 198 OFFCURVE",
"119 159 OFFCURVE",
"157 119 CURVE",
"157 352 LINE"
);
},
{
closed = 1;
nodes = (
"159 124 LINE",
"158 123 LINE",
"157 124 LINE",
"157 124 LINE",
"158 123 LINE",
"159 124 LINE"
);
},
{
closed = 0;
nodes = (
"159 590 LINE",
"159 577 LINE"
);
},
{
closed = 0;
nodes = (
"383 13 LINE",
"383 0 LINE"
);
},
{
closed = 0;
nodes = (
"159 363 LINE",
"159 350 LINE"
);
},
{
closed = 1;
nodes = (
"269 687 LINE",
"502 687 LINE",
"502 700 LINE",
"269 700 LINE"
);
},
{
closed = 1;
nodes = (
"493 691 LINE",
"609 574 LINE",
"619 583 LINE",
"502 700 LINE"
);
},
{
closed = 1;
nodes = (
"152 583 LINE",
"162 574 LINE",
"278 691 LINE",
"269 700 LINE"
);
},
{
closed = 1;
nodes = (
"152 119 LINE",
"269 0 LINE",
"279 9 LINE",
"161 128 LINE"
);
},
{
closed = 1;
nodes = (
"619 117 LINE",
"609 126 LINE",
"493 9 LINE",
"502 0 LINE"
);
},
{
closed = 1;
nodes = (
"269 0 LINE",
"502 0 LINE",
"502 13 LINE",
"269 13 LINE"
);
},
{
closed = 1;
nodes = (
"613 585 LINE",
"614 584 LINE",
"614 350 LINE",
"652 390 OFFCURVE",
"691 430 OFFCURVE",
"730 469 CURVE",
"691 507 OFFCURVE",
"651 547 OFFCURVE",
"613 585 CURVE",
"574 547 OFFCURVE",
"534 507 OFFCURVE",
"495 469 CURVE",
"533 430 OFFCURVE",
"574 390 OFFCURVE",
"612 350 CURVE",
"612 584 LINE"
);
},
{
closed = 1;
nodes = (
"614 355 LINE",
"613 354 LINE",
"612 355 LINE",
"612 355 LINE",
"613 354 LINE",
"614 355 LINE"
);
},
{
closed = 1;
nodes = (
"613 353 LINE",
"614 352 LINE",
"614 119 LINE",
"652 159 OFFCURVE",
"691 198 OFFCURVE",
"730 237 CURVE",
"691 276 OFFCURVE",
"651 315 OFFCURVE",
"613 353 CURVE",
"574 315 OFFCURVE",
"534 276 OFFCURVE",
"495 237 CURVE",
"533 198 OFFCURVE",
"574 159 OFFCURVE",
"612 119 CURVE",
"612 352 LINE"
);
},
{
closed = 1;
nodes = (
"614 124 LINE",
"613 123 LINE",
"612 124 LINE",
"612 124 LINE",
"613 123 LINE",
"614 124 LINE"
);
},
{
closed = 0;
nodes = (
"614 590 LINE",
"614 577 LINE"
);
},
{
closed = 0;
nodes = (
"614 363 LINE",
"614 350 LINE"
);
},
{
closed = 1;
nodes = (
"502 0 LINE",
"735 0 LINE",
"735 13 LINE",
"502 13 LINE"
);
}
);
width = 775;
},
{
layerId = "97FB2712-2ECD-43E8-8EDB-5EDF297461B7";
paths = (
{
closed = 1;
nodes = (
"158 585 LINE",
"159 584 LINE",
"159 350 LINE",
"217 350 OFFCURVE",
"275 411 OFFCURVE",
"275 469 CURVE",
"275 527 OFFCURVE",
"216 585 OFFCURVE",
"158 585 CURVE",
"100 585 OFFCURVE",
"40 527 OFFCURVE",
"40 469 CURVE",
"40 411 OFFCURVE",
"99 350 OFFCURVE",
"157 350 CURVE",
"157 584 LINE"
);
},
{
closed = 1;
nodes = (
"159 355 LINE",
"158 354 LINE",
"157 355 LINE",
"157 355 LINE",
"158 354 LINE",
"159 355 LINE"
);
},
{
closed = 1;
nodes = (
"158 353 LINE",
"159 352 LINE",
"159 119 LINE",
"217 119 OFFCURVE",
"275 179 OFFCURVE",
"275 237 CURVE",
"275 295 OFFCURVE",
"216 353 OFFCURVE",
"158 353 CURVE",
"100 353 OFFCURVE",
"40 295 OFFCURVE",
"40 237 CURVE",
"40 178 OFFCURVE",
"99 119 OFFCURVE",
"157 119 CURVE",
"157 352 LINE"
);
},
{
closed = 1;
nodes = (
"159 124 LINE",
"158 123 LINE",
"157 124 LINE",
"157 124 LINE",
"158 123 LINE",
"159 124 LINE"
);
},
{
closed = 0;
nodes = (
"159 590 LINE",
"159 577 LINE"
);
},
{
closed = 0;
nodes = (
"383 13 LINE",
"383 0 LINE"
);
},
{
closed = 0;
nodes = (
"159 363 LINE",
"159 350 LINE"
);
},
{
closed = 1;
nodes = (
"269 687 LINE",
"502 687 LINE",
"502 700 LINE",
"269 700 LINE"
);
},
{
closed = 1;
nodes = (
"493 691 LINE",
"609 574 LINE",
"619 583 LINE",
"502 700 LINE"
);
},
{
closed = 1;
nodes = (
"152 583 LINE",
"162 574 LINE",
"278 691 LINE",
"269 700 LINE"
);
},
{
closed = 1;
nodes = (
"152 119 LINE",
"269 0 LINE",
"279 9 LINE",
"161 128 LINE"
);
},
{
closed = 1;
nodes = (
"619 117 LINE",
"609 126 LINE",
"493 9 LINE",
"502 0 LINE"
);
},
{
closed = 1;
nodes = (
"269 0 LINE",
"502 0 LINE",
"502 13 LINE",
"269 13 LINE"
);
},
{
closed = 1;
nodes = (
"613 585 LINE",
"614 584 LINE",
"614 350 LINE",
"672 350 OFFCURVE",
"730 411 OFFCURVE",
"730 469 CURVE",
"730 527 OFFCURVE",
"671 585 OFFCURVE",
"613 585 CURVE",
"555 585 OFFCURVE",
"495 527 OFFCURVE",
"495 469 CURVE",
"495 411 OFFCURVE",
"554 350 OFFCURVE",
"612 350 CURVE",
"612 584 LINE"
);
},
{
closed = 1;
nodes = (
"614 355 LINE",
"613 354 LINE",
"612 355 LINE",
"612 355 LINE",
"613 354 LINE",
"614 355 LINE"
);
},
{
closed = 1;
nodes = (
"613 353 LINE",
"614 352 LINE",
"614 119 LINE",
"672 119 OFFCURVE",
"730 179 OFFCURVE",
"730 237 CURVE",
"730 295 OFFCURVE",
"671 353 OFFCURVE",
"613 353 CURVE",
"555 353 OFFCURVE",
"495 295 OFFCURVE",
"495 237 CURVE",
"495 179 OFFCURVE",
"554 119 OFFCURVE",
"612 119 CURVE",
"612 352 LINE"
);
},
{
closed = 1;
nodes = (
"614 124 LINE",
"613 123 LINE",
"612 124 LINE",
"612 124 LINE",
"613 123 LINE",
"614 124 LINE"
);
},
{
closed = 0;
nodes = (
"614 590 LINE",
"614 577 LINE"
);
},
{
closed = 0;
nodes = (
"614 363 LINE",
"614 350 LINE"
);
},
{
closed = 1;
nodes = (
"502 0 LINE",
"735 0 LINE",
"735 13 LINE",
"502 13 LINE"
);
}
);
width = 775;
}
);
unicode = 0051;
},
{
glyphname = R;
lastChange = "2021-04-16 16:50:40 +0000";
layers = (
{
layerId = "16A4F72C-6E52-4851-BC55-1EF2E1D4C4EC";
paths = (
{
closed = 1;
nodes = (
"158 700 LINE",
"159 699 LINE",
"159 465 LINE",
"197 505 OFFCURVE",
"236 545 OFFCURVE",
"275 584 CURVE",
"236 622 OFFCURVE",
"196 662 OFFCURVE",
"158 700 CURVE",
"119 662 OFFCURVE",
"79 622 OFFCURVE",
"40 584 CURVE",
"78 545 OFFCURVE",
"119 505 OFFCURVE",
"157 465 CURVE",
"157 699 LINE"
);
},
{
closed = 1;
nodes = (
"159 465 LINE",
"158 464 LINE",
"157 465 LINE",
"157 465 LINE",
"158 464 LINE",
"159 465 LINE"
);
},
{
closed = 1;
nodes = (
"158 468 LINE",
"159 467 LINE",
"159 234 LINE",
"197 274 OFFCURVE",
"236 313 OFFCURVE",
"275 352 CURVE",
"236 391 OFFCURVE",
"196 430 OFFCURVE",
"158 468 CURVE",
"119 430 OFFCURVE",
"79 391 OFFCURVE",
"40 352 CURVE",
"78 313 OFFCURVE",
"119 274 OFFCURVE",
"157 234 CURVE",
"157 467 LINE"
);
},
{
closed = 1;
nodes = (
"159 234 LINE",
"158 233 LINE",
"157 234 LINE",
"157 234 LINE",
"158 233 LINE",
"159 234 LINE"
);
},
{
closed = 1;
nodes = (
"158 234 LINE",
"159 233 LINE",
"159 0 LINE",
"197 39 OFFCURVE",
"236 78 OFFCURVE",
"275 118 CURVE",
"236 156 OFFCURVE",
"196 196 OFFCURVE",
"158 234 CURVE",
"119 196 OFFCURVE",
"79 156 OFFCURVE",
"40 118 CURVE",
"78 78 OFFCURVE",
"119 39 OFFCURVE",
"157 0 CURVE",
"157 233 LINE"
);
},
{
closed = 0;
nodes = (
"159 700 LINE",
"159 687 LINE"
);
},
{
closed = 0;
nodes = (
"159 13 LINE",
"159 0 LINE"
);
},
{
closed = 0;
nodes = (
"159 473 LINE",
"159 460 LINE"
);
},
{
closed = 1;
nodes = (
"383 691 LINE",
"499 574 LINE",
"509 583 LINE",
"392 700 LINE"
);
},
{
closed = 1;
nodes = (
"392 687 LINE",
"392 700 LINE",
"159 700 LINE",
"159 687 LINE"
);
},
{
closed = 1;
nodes = (
"509 346 LINE",
"509 359 LINE",
"266 359 LINE",
"266 346 LINE"
);
},
{
closed = 1;
nodes = (
"496 350 LINE",
"509 350 LINE",
"509 583 LINE",
"496 583 LINE"
);
},
{
closed = 1;
nodes = (
"159 346 LINE",
"387 346 LINE",
"387 359 LINE",
"159 359 LINE"
);
},
{
closed = 1;
nodes = (
"378 350 LINE",
"488 0 LINE",
"503 0 LINE",
"387 359 LINE"
);
},
{
closed = 1;
nodes = (
"377 0 LINE",
"610 0 LINE",
"610 13 LINE",
"377 13 LINE"
);
},
{
closed = 1;
nodes = (
"41 0 LINE",
"274 0 LINE",
"274 13 LINE",
"41 13 LINE"
);
},
{
closed = 1;
nodes = (
"42 687 LINE",
"275 687 LINE",
"275 700 LINE",
"42 700 LINE"
);
}
);
width = 650;
},
{
layerId = "97FB2712-2ECD-43E8-8EDB-5EDF297461B7";
paths = (
{
closed = 1;
nodes = (
"158 700 LINE",
"159 699 LINE",
"159 465 LINE",
"217 465 OFFCURVE",
"275 526 OFFCURVE",
"275 584 CURVE",
"275 642 OFFCURVE",
"216 700 OFFCURVE",
"158 700 CURVE",
"100 700 OFFCURVE",
"40 642 OFFCURVE",
"40 584 CURVE",
"40 526 OFFCURVE",
"99 465 OFFCURVE",
"157 465 CURVE",
"157 699 LINE"
);
},
{
closed = 1;
nodes = (
"159 465 LINE",
"158 464 LINE",
"157 465 LINE",
"157 465 LINE",
"158 464 LINE",
"159 465 LINE"
);
},
{
closed = 1;
nodes = (
"158 468 LINE",
"159 467 LINE",
"159 234 LINE",
"217 234 OFFCURVE",
"275 294 OFFCURVE",
"275 352 CURVE",
"275 410 OFFCURVE",
"216 468 OFFCURVE",
"158 468 CURVE",
"100 468 OFFCURVE",
"40 410 OFFCURVE",
"40 352 CURVE",
"40 294 OFFCURVE",
"99 234 OFFCURVE",
"157 234 CURVE",
"157 467 LINE"
);
},
{
closed = 1;
nodes = (
"159 234 LINE",
"158 233 LINE",
"157 234 LINE",
"157 234 LINE",
"158 233 LINE",
"159 234 LINE"
);
},
{
closed = 1;
nodes = (
"158 234 LINE",
"159 233 LINE",
"159 0 LINE",
"217 0 OFFCURVE",
"275 60 OFFCURVE",
"275 118 CURVE",
"275 176 OFFCURVE",
"216 234 OFFCURVE",
"158 234 CURVE",
"100 234 OFFCURVE",
"40 176 OFFCURVE",
"40 118 CURVE",
"40 60 OFFCURVE",
"99 0 OFFCURVE",
"157 0 CURVE",
"157 233 LINE"
);
},
{
closed = 0;
nodes = (
"159 700 LINE",
"159 687 LINE"
);
},
{
closed = 0;
nodes = (
"159 13 LINE",
"159 0 LINE"
);
},
{
closed = 0;
nodes = (
"159 473 LINE",
"159 460 LINE"
);
},
{
closed = 1;
nodes = (
"383 691 LINE",
"499 574 LINE",
"509 583 LINE",
"392 700 LINE"
);
},
{
closed = 1;
nodes = (
"392 687 LINE",
"392 700 LINE",
"159 700 LINE",
"159 687 LINE"
);
},
{
closed = 1;
nodes = (
"509 346 LINE",
"509 359 LINE",
"266 359 LINE",
"266 346 LINE"
);
},
{
closed = 1;
nodes = (
"496 350 LINE",
"509 350 LINE",
"509 583 LINE",
"496 583 LINE"
);
},
{
closed = 1;
nodes = (
"159 346 LINE",
"387 346 LINE",
"387 359 LINE",
"159 359 LINE"
);
},
{
closed = 1;
nodes = (
"378 350 LINE",
"488 0 LINE",
"503 0 LINE",
"387 359 LINE"
);
},
{
closed = 1;
nodes = (
"377 0 LINE",
"610 0 LINE",
"610 13 LINE",
"377 13 LINE"
);
},
{
closed = 1;
nodes = (
"41 0 LINE",
"274 0 LINE",
"274 13 LINE",
"41 13 LINE"
);
},
{
closed = 1;
nodes = (
"42 687 LINE",
"275 687 LINE",
"275 700 LINE",
"42 700 LINE"
);
}
);
width = 650;
}
);
unicode = 0052;
},
{
glyphname = S;
lastChange = "2021-04-16 16:50:55 +0000";
layers = (
{
layerId = "16A4F72C-6E52-4851-BC55-1EF2E1D4C4EC";
paths = (
{
closed = 1;
nodes = (
"160 687 LINE",
"393 687 LINE",
"393 700 LINE",
"160 700 LINE"
);
},
{
closed = 1;
nodes = (
"384 691 LINE",
"500 574 LINE",
"510 583 LINE",
"393 700 LINE"
);
},
{
closed = 1;
nodes = (
"43 583 LINE",
"51 572 LINE",
"169 691 LINE",
"160 700 LINE"
);
},
{
closed = 1;
nodes = (
"510 463 LINE",
"510 583 LINE",
"497 583 LINE",
"497 463 LINE"
);
},
{
closed = 1;
nodes = (
"390 5 LINE",
"157 5 LINE",
"157 -8 LINE",
"390 -8 LINE"
);
},
{
closed = 1;
nodes = (
"166 1 LINE",
"50 118 LINE",
"40 109 LINE",
"157 -8 LINE"
);
},
{
closed = 1;
nodes = (
"508 128 LINE",
"499 138 LINE",
"381 1 LINE",
"390 -8 LINE"
);
},
{
closed = 1;
nodes = (
"40 229 LINE",
"40 109 LINE",
"53 109 LINE",
"53 229 LINE"
);
},
{
closed = 1;
nodes = (
"56 463 LINE",
"56 583 LINE",
"43 583 LINE",
"43 463 LINE"
);
},
{
closed = 1;
nodes = (
"177 355 LINE",
"51 474 LINE",
"43 463 LINE",
"168 346 LINE"
);
},
{
closed = 1;
nodes = (
"495 248 LINE",
"495 128 LINE",
"508 128 LINE",
"508 248 LINE"
);
},
{
closed = 1;
nodes = (
"378 353 LINE",
"500 237 LINE",
"508 248 LINE",
"387 362 LINE"
);
},
{
closed = 1;
nodes = (
"280 700 LINE",
"281 699 LINE",
"281 465 LINE",
"319 505 OFFCURVE",
"358 545 OFFCURVE",
"397 584 CURVE",
"358 622 OFFCURVE",
"318 662 OFFCURVE",
"280 700 CURVE",
"241 662 OFFCURVE",
"201 622 OFFCURVE",
"162 584 CURVE",
"200 545 OFFCURVE",
"241 505 OFFCURVE",
"279 465 CURVE",
"279 699 LINE"
);
},
{
closed = 1;
nodes = (
"280 468 LINE",
"281 467 LINE",
"281 234 LINE",
"319 274 OFFCURVE",
"358 313 OFFCURVE",
"397 352 CURVE",
"358 391 OFFCURVE",
"318 430 OFFCURVE",
"280 468 CURVE",
"241 430 OFFCURVE",
"201 391 OFFCURVE",
"162 352 CURVE",
"200 313 OFFCURVE",
"241 274 OFFCURVE",
"279 234 CURVE",
"279 467 LINE"
);
},
{
closed = 1;
nodes = (
"280 234 LINE",
"281 233 LINE",
"281 0 LINE",
"319 39 OFFCURVE",
"358 78 OFFCURVE",
"397 118 CURVE",
"358 156 OFFCURVE",
"318 196 OFFCURVE",
"280 234 CURVE",
"241 196 OFFCURVE",
"201 156 OFFCURVE",
"162 118 CURVE",
"200 78 OFFCURVE",
"241 39 OFFCURVE",
"279 0 CURVE",
"279 233 LINE"
);
}
);
width = 550;
},
{
layerId = "97FB2712-2ECD-43E8-8EDB-5EDF297461B7";
paths = (
{
closed = 1;
nodes = (
"160 687 LINE",
"393 687 LINE",
"393 700 LINE",
"160 700 LINE"
);
},
{
closed = 1;
nodes = (
"384 691 LINE",
"500 574 LINE",
"510 583 LINE",
"393 700 LINE"
);
},
{
closed = 1;
nodes = (
"43 583 LINE",
"51 572 LINE",
"169 691 LINE",
"160 700 LINE"
);
},
{
closed = 1;
nodes = (
"510 463 LINE",
"510 583 LINE",
"497 583 LINE",
"497 463 LINE"
);
},
{
closed = 1;
nodes = (
"390 5 LINE",
"157 5 LINE",
"157 -8 LINE",
"390 -8 LINE"
);
},
{
closed = 1;
nodes = (
"166 1 LINE",
"50 118 LINE",
"40 109 LINE",
"157 -8 LINE"
);
},
{
closed = 1;
nodes = (
"508 128 LINE",
"499 138 LINE",
"381 1 LINE",
"390 -8 LINE"
);
},
{
closed = 1;
nodes = (
"40 229 LINE",
"40 109 LINE",
"53 109 LINE",
"53 229 LINE"
);
},
{
closed = 1;
nodes = (
"56 463 LINE",
"56 583 LINE",
"43 583 LINE",
"43 463 LINE"
);
},
{
closed = 1;
nodes = (
"177 355 LINE",
"51 474 LINE",
"43 463 LINE",
"168 346 LINE"
);
},
{
closed = 1;
nodes = (
"495 248 LINE",
"495 128 LINE",
"508 128 LINE",
"508 248 LINE"
);
},
{
closed = 1;
nodes = (
"378 353 LINE",
"500 237 LINE",
"508 248 LINE",
"387 362 LINE"
);
},
{
closed = 1;
nodes = (
"279 700 LINE",
"280 699 LINE",
"280 465 LINE",
"338 465 OFFCURVE",
"396 526 OFFCURVE",
"396 584 CURVE",
"396 641 OFFCURVE",
"337 700 OFFCURVE",
"279 700 CURVE",
"221 700 OFFCURVE",
"162 642 OFFCURVE",
"161 584 CURVE",
"161 526 OFFCURVE",
"220 465 OFFCURVE",
"278 465 CURVE",
"278 699 LINE"
);
},
{
closed = 1;
nodes = (
"279 468 LINE",
"280 467 LINE",
"280 234 LINE",
"338 234 OFFCURVE",
"395 294 OFFCURVE",
"396 352 CURVE",
"395 410 OFFCURVE",
"337 468 OFFCURVE",
"279 468 CURVE",
"221 468 OFFCURVE",
"162 410 OFFCURVE",
"161 352 CURVE",
"161 294 OFFCURVE",
"220 234 OFFCURVE",
"278 234 CURVE",
"278 467 LINE"
);
},
{
closed = 1;
nodes = (
"279 234 LINE",
"280 233 LINE",
"280 0 LINE",
"338 0 OFFCURVE",
"396 60 OFFCURVE",
"396 118 CURVE",
"396 176 OFFCURVE",
"337 234 OFFCURVE",
"279 234 CURVE",
"221 234 OFFCURVE",
"162 176 OFFCURVE",
"161 118 CURVE",
"161 60 OFFCURVE",
"220 0 OFFCURVE",
"278 0 CURVE",
"278 233 LINE"
);
}
);
width = 550;
}
);
unicode = 0053;
},
{
glyphname = T;
lastChange = "2021-04-16 16:51:12 +0000";
layers = (
{
layerId = "16A4F72C-6E52-4851-BC55-1EF2E1D4C4EC";
paths = (
{
closed = 1;
nodes = (
"270 700 LINE",
"271 699 LINE",
"271 465 LINE",
"309 505 OFFCURVE",
"348 545 OFFCURVE",
"387 584 CURVE",
"348 622 OFFCURVE",
"308 662 OFFCURVE",
"270 700 CURVE",
"231 662 OFFCURVE",
"191 622 OFFCURVE",
"152 584 CURVE",
"190 545 OFFCURVE",
"231 505 OFFCURVE",
"269 465 CURVE",
"269 699 LINE"
);
},
{
closed = 1;
nodes = (
"271 465 LINE",
"270 464 LINE",
"269 465 LINE",
"269 465 LINE",
"270 464 LINE",
"271 465 LINE"
);
},
{
closed = 1;
nodes = (
"270 468 LINE",
"271 467 LINE",
"271 234 LINE",
"309 274 OFFCURVE",
"348 313 OFFCURVE",
"387 352 CURVE",
"348 391 OFFCURVE",
"308 430 OFFCURVE",
"270 468 CURVE",
"231 430 OFFCURVE",
"191 391 OFFCURVE",
"152 352 CURVE",
"190 313 OFFCURVE",
"231 274 OFFCURVE",
"269 234 CURVE",
"269 467 LINE"
);
},
{
closed = 1;
nodes = (
"271 234 LINE",
"270 233 LINE",
"269 234 LINE",
"269 234 LINE",
"270 233 LINE",
"271 234 LINE"
);
},
{
closed = 1;
nodes = (
"270 234 LINE",
"271 233 LINE",
"271 0 LINE",
"309 39 OFFCURVE",
"348 78 OFFCURVE",
"387 118 CURVE",
"348 156 OFFCURVE",
"308 196 OFFCURVE",
"270 234 CURVE",
"231 196 OFFCURVE",
"191 156 OFFCURVE",
"152 118 CURVE",
"190 78 OFFCURVE",
"231 39 OFFCURVE",
"269 0 CURVE",
"269 233 LINE"
);
},
{
closed = 0;
nodes = (
"271 700 LINE",
"271 687 LINE"
);
},
{
closed = 0;
nodes = (
"271 13 LINE",
"271 0 LINE"
);
},
{
closed = 0;
nodes = (
"271 473 LINE",
"271 460 LINE"
);
},
{
closed = 1;
nodes = (
"157 687 LINE",
"390 687 LINE",
"390 700 LINE",
"157 700 LINE"
);
},
{
closed = 1;
nodes = (
"381 691 LINE",
"497 574 LINE",
"507 583 LINE",
"390 700 LINE"
);
},
{
closed = 1;
nodes = (
"40 583 LINE",
"50 574 LINE",
"166 691 LINE",
"157 700 LINE"
);
},
{
closed = 1;
nodes = (
"157 0 LINE",
"390 0 LINE",
"390 13 LINE",
"157 13 LINE"
);
}
);
width = 547;
},
{
layerId = "97FB2712-2ECD-43E8-8EDB-5EDF297461B7";
paths = (
{
closed = 1;
nodes = (
"270 700 LINE",
"271 699 LINE",
"271 465 LINE",
"329 465 OFFCURVE",
"387 526 OFFCURVE",
"387 584 CURVE",
"387 642 OFFCURVE",
"328 700 OFFCURVE",
"270 700 CURVE",
"212 700 OFFCURVE",
"153 642 OFFCURVE",
"152 584 CURVE",
"152 526 OFFCURVE",
"211 465 OFFCURVE",
"269 465 CURVE",
"269 699 LINE"
);
},
{
closed = 1;
nodes = (
"271 465 LINE",
"270 464 LINE",
"269 465 LINE",
"269 465 LINE",
"270 464 LINE",
"271 465 LINE"
);
},
{
closed = 1;
nodes = (
"270 468 LINE",
"271 467 LINE",
"271 234 LINE",
"329 234 OFFCURVE",
"386 294 OFFCURVE",
"387 352 CURVE",
"386 410 OFFCURVE",
"328 468 OFFCURVE",
"270 468 CURVE",
"212 468 OFFCURVE",
"153 410 OFFCURVE",
"152 352 CURVE",
"152 294 OFFCURVE",
"211 234 OFFCURVE",
"269 234 CURVE",
"269 467 LINE"
);
},
{
closed = 1;
nodes = (
"271 234 LINE",
"270 233 LINE",
"269 234 LINE",
"269 234 LINE",
"270 233 LINE",
"271 234 LINE"
);
},
{
closed = 1;
nodes = (
"270 234 LINE",
"271 233 LINE",
"271 0 LINE",
"329 0 OFFCURVE",
"387 60 OFFCURVE",
"387 118 CURVE",
"387 176 OFFCURVE",
"328 234 OFFCURVE",
"270 234 CURVE",
"212 234 OFFCURVE",
"153 176 OFFCURVE",
"152 118 CURVE",
"152 60 OFFCURVE",
"211 0 OFFCURVE",
"269 0 CURVE",
"269 233 LINE"
);
},
{
closed = 0;
nodes = (
"271 700 LINE",
"271 687 LINE"
);
},
{
closed = 0;
nodes = (
"271 13 LINE",
"271 0 LINE"
);
},
{
closed = 0;
nodes = (
"271 473 LINE",
"271 460 LINE"
);
},
{
closed = 1;
nodes = (
"157 687 LINE",
"390 687 LINE",
"390 700 LINE",
"157 700 LINE"
);
},
{
closed = 1;
nodes = (
"381 691 LINE",
"497 574 LINE",
"507 583 LINE",
"390 700 LINE"
);
},
{
closed = 1;
nodes = (
"40 583 LINE",
"50 574 LINE",
"166 691 LINE",
"157 700 LINE"
);
},
{
closed = 1;
nodes = (
"157 0 LINE",
"390 0 LINE",
"390 13 LINE",
"157 13 LINE"
);
}
);
width = 547;
}
);
unicode = 0054;
},
{
glyphname = U;
lastChange = "2021-04-15 23:26:31 +0000";
layers = (
{
layerId = "16A4F72C-6E52-4851-BC55-1EF2E1D4C4EC";
paths = (
{
closed = 1;
nodes = (
"158 700 LINE",
"159 699 LINE",
"159 466 LINE",
"197 506 OFFCURVE",
"236 545 OFFCURVE",
"275 584 CURVE",
"236 623 OFFCURVE",
"196 662 OFFCURVE",
"158 700 CURVE",
"119 662 OFFCURVE",
"79 623 OFFCURVE",
"40 584 CURVE",
"78 545 OFFCURVE",
"119 506 OFFCURVE",
"157 466 CURVE",
"157 699 LINE"
);
},
{
closed = 1;
nodes = (
"158 466 LINE",
"159 465 LINE",
"159 234 LINE",
"197 273 OFFCURVE",
"236 312 OFFCURVE",
"275 352 CURVE",
"236 390 OFFCURVE",
"196 430 OFFCURVE",
"158 468 CURVE",
"119 430 OFFCURVE",
"79 390 OFFCURVE",
"40 352 CURVE",
"78 312 OFFCURVE",
"119 273 OFFCURVE",
"157 234 CURVE",
"157 465 LINE"
);
},
{
closed = 1;
nodes = (
"151 119 LINE",
"268 0 LINE",
"278 9 LINE",
"160 128 LINE"
);
},
{
closed = 1;
nodes = (
"618 117 LINE",
"608 126 LINE",
"492 9 LINE",
"501 0 LINE"
);
},
{
closed = 1;
nodes = (
"268 0 LINE",
"501 0 LINE",
"501 13 LINE",
"268 13 LINE"
);
},
{
closed = 1;
nodes = (
"158 233 LINE",
"152 240 LINE",
"151 119 LINE",
"164 118 LINE",
"165 241 LINE"
);
},
{
closed = 1;
nodes = (
"612 699 LINE",
"613 698 LINE",
"613 465 LINE",
"651 505 OFFCURVE",
"690 544 OFFCURVE",
"729 583 CURVE",
"690 622 OFFCURVE",
"650 661 OFFCURVE",
"612 699 CURVE",
"573 661 OFFCURVE",
"533 622 OFFCURVE",
"494 583 CURVE",
"532 544 OFFCURVE",
"573 505 OFFCURVE",
"611 465 CURVE",
"611 698 LINE"
);
},
{
closed = 1;
nodes = (
"612 465 LINE",
"613 464 LINE",
"613 233 LINE",
"651 272 OFFCURVE",
"690 311 OFFCURVE",
"729 351 CURVE",
"690 389 OFFCURVE",
"650 429 OFFCURVE",
"612 467 CURVE",
"573 429 OFFCURVE",
"533 389 OFFCURVE",
"494 351 CURVE",
"532 311 OFFCURVE",
"573 272 OFFCURVE",
"611 233 CURVE",
"611 464 LINE"
);
},
{
closed = 1;
nodes = (
"612 232 LINE",
"606 239 LINE",
"605 118 LINE",
"618 117 LINE",
"619 240 LINE"
);
},
{
closed = 1;
nodes = (
"41 687 LINE",
"274 687 LINE",
"274 700 LINE",
"41 700 LINE"
);
},
{
closed = 1;
nodes = (
"496 687 LINE",
"729 687 LINE",
"729 700 LINE",
"496 700 LINE"
);
}
);
width = 769;
},
{
layerId = "97FB2712-2ECD-43E8-8EDB-5EDF297461B7";
paths = (
{
closed = 1;
nodes = (
"158 700 LINE",
"159 699 LINE",
"159 466 LINE",
"217 466 OFFCURVE",
"275 526 OFFCURVE",
"275 584 CURVE",
"275 642 OFFCURVE",
"216 700 OFFCURVE",
"158 700 CURVE",
"100 700 OFFCURVE",
"40 642 OFFCURVE",
"40 584 CURVE",
"40 526 OFFCURVE",
"99 466 OFFCURVE",
"157 466 CURVE",
"157 699 LINE"
);
},
{
closed = 1;
nodes = (
"158 466 LINE",
"159 465 LINE",
"159 234 LINE",
"217 234 OFFCURVE",
"275 294 OFFCURVE",
"275 352 CURVE",
"275 410 OFFCURVE",
"216 468 OFFCURVE",
"158 468 CURVE",
"100 468 OFFCURVE",
"40 410 OFFCURVE",
"40 352 CURVE",
"40 294 OFFCURVE",
"99 234 OFFCURVE",
"157 234 CURVE",
"157 465 LINE"
);
},
{
closed = 1;
nodes = (
"151 119 LINE",
"268 0 LINE",
"278 9 LINE",
"160 128 LINE"
);
},
{
closed = 1;
nodes = (
"618 117 LINE",
"608 126 LINE",
"492 9 LINE",
"501 0 LINE"
);
},
{
closed = 1;
nodes = (
"268 0 LINE",
"501 0 LINE",
"501 13 LINE",
"268 13 LINE"
);
},
{
closed = 1;
nodes = (
"158 233 LINE",
"152 240 LINE",
"151 119 LINE",
"164 118 LINE",
"165 241 LINE"
);
},
{
closed = 1;
nodes = (
"612 699 LINE",
"613 698 LINE",
"613 465 LINE",
"671 465 OFFCURVE",
"729 525 OFFCURVE",
"729 583 CURVE",
"729 641 OFFCURVE",
"670 699 OFFCURVE",
"612 699 CURVE",
"554 699 OFFCURVE",
"494 641 OFFCURVE",
"494 583 CURVE",
"494 525 OFFCURVE",
"553 465 OFFCURVE",
"611 465 CURVE",
"611 698 LINE"
);
},
{
closed = 1;
nodes = (
"612 465 LINE",
"613 464 LINE",
"613 233 LINE",
"671 233 OFFCURVE",
"729 293 OFFCURVE",
"729 351 CURVE",
"729 409 OFFCURVE",
"670 467 OFFCURVE",
"612 467 CURVE",
"554 467 OFFCURVE",
"494 409 OFFCURVE",
"494 351 CURVE",
"494 293 OFFCURVE",
"553 233 OFFCURVE",
"611 233 CURVE",
"611 464 LINE"
);
},
{
closed = 1;
nodes = (
"612 232 LINE",
"606 239 LINE",
"605 118 LINE",
"618 117 LINE",
"619 240 LINE"
);
},
{
closed = 1;
nodes = (
"41 687 LINE",
"274 687 LINE",
"274 700 LINE",
"41 700 LINE"
);
},
{
closed = 1;
nodes = (
"496 687 LINE",
"729 687 LINE",
"729 700 LINE",
"496 700 LINE"
);
}
);
width = 769;
}
);
unicode = 0055;
},
{
glyphname = V;
lastChange = "2021-04-15 23:28:34 +0000";
layers = (
{
layerId = "16A4F72C-6E52-4851-BC55-1EF2E1D4C4EC";
paths = (
{
closed = 1;
nodes = (
"604 236 LINE",
"368 8 LINE",
"377 -1 LINE",
"612 226 LINE"
);
},
{
closed = 1;
nodes = (
"377 -1 LINE",
"386 8 LINE",
"167 237 LINE",
"158 227 LINE"
);
},
{
closed = 1;
nodes = (
"158 694 LINE",
"159 693 LINE",
"159 460 LINE",
"197 500 OFFCURVE",
"236 539 OFFCURVE",
"275 578 CURVE",
"236 617 OFFCURVE",
"196 656 OFFCURVE",
"158 694 CURVE",
"119 656 OFFCURVE",
"79 617 OFFCURVE",
"40 578 CURVE",
"78 539 OFFCURVE",
"119 500 OFFCURVE",
"157 460 CURVE",
"157 693 LINE"
);
},
{
closed = 1;
nodes = (
"158 460 LINE",
"159 459 LINE",
"159 228 LINE",
"197 267 OFFCURVE",
"236 306 OFFCURVE",
"275 346 CURVE",
"236 384 OFFCURVE",
"196 424 OFFCURVE",
"158 462 CURVE",
"119 424 OFFCURVE",
"79 384 OFFCURVE",
"40 346 CURVE",
"78 306 OFFCURVE",
"119 267 OFFCURVE",
"157 228 CURVE",
"157 459 LINE"
);
},
{
closed = 1;
nodes = (
"612 693 LINE",
"613 692 LINE",
"613 459 LINE",
"651 499 OFFCURVE",
"690 538 OFFCURVE",
"729 577 CURVE",
"690 616 OFFCURVE",
"650 655 OFFCURVE",
"612 693 CURVE",
"573 655 OFFCURVE",
"533 616 OFFCURVE",
"494 577 CURVE",
"532 538 OFFCURVE",
"573 499 OFFCURVE",
"611 459 CURVE",
"611 692 LINE"
);
},
{
closed = 1;
nodes = (
"612 459 LINE",
"613 458 LINE",
"613 227 LINE",
"651 266 OFFCURVE",
"690 305 OFFCURVE",
"729 345 CURVE",
"690 383 OFFCURVE",
"650 423 OFFCURVE",
"612 461 CURVE",
"573 423 OFFCURVE",
"533 383 OFFCURVE",
"494 345 CURVE",
"532 305 OFFCURVE",
"573 266 OFFCURVE",
"611 227 CURVE",
"611 458 LINE"
);
},
{
closed = 1;
nodes = (
"41 681 LINE",
"274 681 LINE",
"274 694 LINE",
"41 694 LINE"
);
},
{
closed = 1;
nodes = (
"496 681 LINE",
"729 681 LINE",
"729 694 LINE",
"496 694 LINE"
);
}
);
width = 769;
},
{
layerId = "97FB2712-2ECD-43E8-8EDB-5EDF297461B7";
paths = (
{
closed = 1;
nodes = (
"604 236 LINE",
"368 8 LINE",
"377 -1 LINE",
"612 226 LINE"
);
},
{
closed = 1;
nodes = (
"377 -1 LINE",
"386 8 LINE",
"167 237 LINE",
"158 227 LINE"
);
},
{
closed = 1;
nodes = (
"158 694 LINE",
"159 693 LINE",
"159 460 LINE",
"217 460 OFFCURVE",
"275 520 OFFCURVE",
"275 578 CURVE",
"275 636 OFFCURVE",
"216 694 OFFCURVE",
"158 694 CURVE",
"100 694 OFFCURVE",
"40 636 OFFCURVE",
"40 578 CURVE",
"40 520 OFFCURVE",
"99 460 OFFCURVE",
"157 460 CURVE",
"157 693 LINE"
);
},
{
closed = 1;
nodes = (
"158 460 LINE",
"159 459 LINE",
"159 228 LINE",
"217 228 OFFCURVE",
"275 288 OFFCURVE",
"275 346 CURVE",
"275 404 OFFCURVE",
"216 462 OFFCURVE",
"158 462 CURVE",
"100 462 OFFCURVE",
"40 404 OFFCURVE",
"40 346 CURVE",
"40 288 OFFCURVE",
"99 228 OFFCURVE",
"157 228 CURVE",
"157 459 LINE"
);
},
{
closed = 1;
nodes = (
"612 693 LINE",
"613 692 LINE",
"613 459 LINE",
"671 459 OFFCURVE",
"729 519 OFFCURVE",
"729 577 CURVE",
"729 635 OFFCURVE",
"670 693 OFFCURVE",
"612 693 CURVE",
"554 693 OFFCURVE",
"494 635 OFFCURVE",
"494 577 CURVE",
"494 519 OFFCURVE",
"553 459 OFFCURVE",
"611 459 CURVE",
"611 692 LINE"
);
},
{
closed = 1;
nodes = (
"612 459 LINE",
"613 458 LINE",
"613 227 LINE",
"671 227 OFFCURVE",
"729 287 OFFCURVE",
"729 345 CURVE",
"729 403 OFFCURVE",
"670 461 OFFCURVE",
"612 461 CURVE",
"554 461 OFFCURVE",
"494 403 OFFCURVE",
"494 345 CURVE",
"494 287 OFFCURVE",
"553 227 OFFCURVE",
"611 227 CURVE",
"611 458 LINE"
);
},
{
closed = 1;
nodes = (
"41 681 LINE",
"274 681 LINE",
"274 694 LINE",
"41 694 LINE"
);
},
{
closed = 1;
nodes = (
"496 681 LINE",
"729 681 LINE",
"729 694 LINE",
"496 694 LINE"
);
}
);
width = 769;
}
);
unicode = 0056;
},
{
glyphname = W;
lastChange = "2021-04-01 21:01:16 +0000";
layers = (
{
layerId = "16A4F72C-6E52-4851-BC55-1EF2E1D4C4EC";
paths = (
{
closed = 1;
nodes = (
"157 235 LINE",
"119 195 OFFCURVE",
"78 155 OFFCURVE",
"40 116 CURVE",
"79 78 OFFCURVE",
"119 38 OFFCURVE",
"158 0 CURVE",
"196 38 OFFCURVE",
"236 78 OFFCURVE",
"275 116 CURVE",
"236 155 OFFCURVE",
"197 195 OFFCURVE",
"159 235 CURVE",
"159 1 LINE",
"158 0 LINE",
"157 1 LINE"
);
},
{
closed = 1;
nodes = (
"159 235 LINE",
"158 236 LINE",
"157 235 LINE",
"157 235 LINE",
"158 236 LINE",
"159 235 LINE"
);
},
{
closed = 1;
nodes = (
"157 466 LINE",
"119 426 OFFCURVE",
"78 387 OFFCURVE",
"40 348 CURVE",
"79 309 OFFCURVE",
"119 270 OFFCURVE",
"158 232 CURVE",
"196 270 OFFCURVE",
"236 309 OFFCURVE",
"275 348 CURVE",
"236 387 OFFCURVE",
"197 426 OFFCURVE",
"159 466 CURVE",
"159 233 LINE",
"158 232 LINE",
"157 233 LINE"
);
},
{
closed = 1;
nodes = (
"159 466 LINE",
"158 467 LINE",
"157 466 LINE",
"157 466 LINE",
"158 467 LINE",
"159 466 LINE"
);
},
{
closed = 1;
nodes = (
"157 700 LINE",
"119 661 OFFCURVE",
"78 622 OFFCURVE",
"40 582 CURVE",
"79 544 OFFCURVE",
"119 504 OFFCURVE",
"158 466 CURVE",
"196 504 OFFCURVE",
"236 544 OFFCURVE",
"275 582 CURVE",
"236 622 OFFCURVE",
"197 661 OFFCURVE",
"159 700 CURVE",
"159 467 LINE",
"158 466 LINE",
"157 467 LINE"
);
},
{
closed = 1;
nodes = (
"382 116 LINE",
"395 116 LINE",
"395 700 LINE",
"382 700 LINE"
);
},
{
closed = 1;
nodes = (
"275 0 LINE",
"395 118 LINE",
"388 129 LINE",
"265 9 LINE"
);
},
{
closed = 1;
nodes = (
"159 13 LINE",
"159 0 LINE",
"275 0 LINE",
"275 13 LINE"
);
},
{
closed = 1;
nodes = (
"612 0 LINE",
"625 0 LINE",
"625 700 LINE",
"612 700 LINE"
);
},
{
closed = 1;
nodes = (
"389 129 LINE",
"382 118 LINE",
"502 0 LINE",
"512 9 LINE"
);
},
{
closed = 1;
nodes = (
"502 13 LINE",
"502 0 LINE",
"618 0 LINE",
"618 13 LINE"
);
},
{
closed = 1;
nodes = (
"502 687 LINE",
"735 687 LINE",
"735 700 LINE",
"502 700 LINE"
);
},
{
closed = 1;
nodes = (
"42 687 LINE",
"275 687 LINE",
"275 700 LINE",
"42 700 LINE"
);
}
);
width = 775;
},
{
layerId = "97FB2712-2ECD-43E8-8EDB-5EDF297461B7";
paths = (
{
closed = 1;
nodes = (
"157 235 LINE",
"99 235 OFFCURVE",
"40 174 OFFCURVE",
"40 116 CURVE",
"40 58 OFFCURVE",
"100 0 OFFCURVE",
"158 0 CURVE",
"216 0 OFFCURVE",
"275 58 OFFCURVE",
"275 116 CURVE",
"275 174 OFFCURVE",
"217 235 OFFCURVE",
"159 235 CURVE",
"159 1 LINE",
"158 0 LINE",
"157 1 LINE"
);
},
{
closed = 1;
nodes = (
"159 235 LINE",
"158 236 LINE",
"157 235 LINE",
"157 235 LINE",
"158 236 LINE",
"159 235 LINE"
);
},
{
closed = 1;
nodes = (
"157 466 LINE",
"99 466 OFFCURVE",
"40 406 OFFCURVE",
"40 348 CURVE",
"40 290 OFFCURVE",
"100 232 OFFCURVE",
"158 232 CURVE",
"216 232 OFFCURVE",
"275 290 OFFCURVE",
"275 348 CURVE",
"275 406 OFFCURVE",
"217 466 OFFCURVE",
"159 466 CURVE",
"159 233 LINE",
"158 232 LINE",
"157 233 LINE"
);
},
{
closed = 1;
nodes = (
"159 466 LINE",
"158 467 LINE",
"157 466 LINE",
"157 466 LINE",
"158 467 LINE",
"159 466 LINE"
);
},
{
closed = 1;
nodes = (
"157 700 LINE",
"99 700 OFFCURVE",
"40 640 OFFCURVE",
"40 582 CURVE",
"40 524 OFFCURVE",
"100 466 OFFCURVE",
"158 466 CURVE",
"216 466 OFFCURVE",
"275 524 OFFCURVE",
"275 582 CURVE",
"275 640 OFFCURVE",
"217 700 OFFCURVE",
"159 700 CURVE",
"159 467 LINE",
"158 466 LINE",
"157 467 LINE"
);
},
{
closed = 1;
nodes = (
"382 116 LINE",
"395 116 LINE",
"395 700 LINE",
"382 700 LINE"
);
},
{
closed = 1;
nodes = (
"275 0 LINE",
"395 118 LINE",
"388 129 LINE",
"265 9 LINE"
);
},
{
closed = 1;
nodes = (
"159 13 LINE",
"159 0 LINE",
"275 0 LINE",
"275 13 LINE"
);
},
{
closed = 1;
nodes = (
"612 0 LINE",
"625 0 LINE",
"625 700 LINE",
"612 700 LINE"
);
},
{
closed = 1;
nodes = (
"389 129 LINE",
"382 118 LINE",
"502 0 LINE",
"512 9 LINE"
);
},
{
closed = 1;
nodes = (
"502 13 LINE",
"502 0 LINE",
"618 0 LINE",
"618 13 LINE"
);
},
{
closed = 1;
nodes = (
"502 687 LINE",
"735 687 LINE",
"735 700 LINE",
"502 700 LINE"
);
},
{
closed = 1;
nodes = (
"42 687 LINE",
"275 687 LINE",
"275 700 LINE",
"42 700 LINE"
);
}
);
width = 775;
}
);
unicode = 0057;
},
{
glyphname = X;
lastChange = "2021-04-16 16:51:35 +0000";
layers = (
{
layerId = "16A4F72C-6E52-4851-BC55-1EF2E1D4C4EC";
paths = (
{
closed = 1;
nodes = (
"385 700 LINE",
"386 699 LINE",
"386 465 LINE",
"424 505 OFFCURVE",
"463 545 OFFCURVE",
"502 584 CURVE",
"463 622 OFFCURVE",
"423 662 OFFCURVE",
"385 700 CURVE",
"346 662 OFFCURVE",
"306 622 OFFCURVE",
"267 584 CURVE",
"305 545 OFFCURVE",
"346 505 OFFCURVE",
"384 465 CURVE",
"384 699 LINE"
);
},
{
closed = 1;
nodes = (
"386 465 LINE",
"385 464 LINE",
"384 465 LINE",
"384 465 LINE",
"385 464 LINE",
"386 465 LINE"
);
},
{
closed = 1;
nodes = (
"385 468 LINE",
"386 467 LINE",
"386 234 LINE",
"424 274 OFFCURVE",
"463 313 OFFCURVE",
"502 352 CURVE",
"463 391 OFFCURVE",
"423 430 OFFCURVE",
"385 468 CURVE",
"346 430 OFFCURVE",
"306 391 OFFCURVE",
"267 352 CURVE",
"305 313 OFFCURVE",
"346 274 OFFCURVE",
"384 234 CURVE",
"384 467 LINE"
);
},
{
closed = 1;
nodes = (
"386 234 LINE",
"385 233 LINE",
"384 234 LINE",
"384 234 LINE",
"385 233 LINE",
"386 234 LINE"
);
},
{
closed = 1;
nodes = (
"385 234 LINE",
"386 233 LINE",
"386 0 LINE",
"424 39 OFFCURVE",
"463 78 OFFCURVE",
"502 118 CURVE",
"463 156 OFFCURVE",
"423 196 OFFCURVE",
"385 234 CURVE",
"346 196 OFFCURVE",
"306 156 OFFCURVE",
"267 118 CURVE",
"305 78 OFFCURVE",
"346 39 OFFCURVE",
"384 0 CURVE",
"384 233 LINE"
);
},
{
closed = 0;
nodes = (
"386 700 LINE",
"386 687 LINE"
);
},
{
closed = 0;
nodes = (
"386 13 LINE",
"386 0 LINE"
);
},
{
closed = 0;
nodes = (
"386 473 LINE",
"386 460 LINE"
);
},
{
closed = 1;
nodes = (
"607 700 LINE",
"607 468 LINE",
"620 468 LINE",
"620 700 LINE"
);
},
{
closed = 1;
nodes = (
"610 477 LINE",
"388 255 LINE",
"397 246 LINE",
"620 468 LINE"
);
},
{
closed = 1;
nodes = (
"150 468 LINE",
"163 468 LINE",
"163 700 LINE",
"150 700 LINE"
);
},
{
closed = 1;
nodes = (
"373 246 LINE",
"382 255 LINE",
"160 477 LINE",
"150 468 LINE"
);
},
{
closed = 1;
nodes = (
"621 233 LINE",
"608 233 LINE",
"608 0 LINE",
"621 0 LINE"
);
},
{
closed = 1;
nodes = (
"398 455 LINE",
"389 446 LINE",
"611 224 LINE",
"621 233 LINE"
);
},
{
closed = 1;
nodes = (
"164 0 LINE",
"164 233 LINE",
"151 233 LINE",
"151 0 LINE"
);
},
{
closed = 1;
nodes = (
"161 224 LINE",
"383 446 LINE",
"374 455 LINE",
"151 233 LINE"
);
},
{
closed = 1;
nodes = (
"41 0 LINE",
"274 0 LINE",
"274 13 LINE",
"41 13 LINE"
);
},
{
closed = 1;
nodes = (
"498 0 LINE",
"731 0 LINE",
"731 13 LINE",
"498 13 LINE"
);
},
{
closed = 1;
nodes = (
"40 687 LINE",
"273 687 LINE",
"273 700 LINE",
"40 700 LINE"
);
},
{
closed = 1;
nodes = (
"497 687 LINE",
"730 687 LINE",
"730 700 LINE",
"497 700 LINE"
);
}
);
width = 771;
},
{
layerId = "97FB2712-2ECD-43E8-8EDB-5EDF297461B7";
paths = (
{
closed = 1;
nodes = (
"384 700 LINE",
"385 699 LINE",
"385 465 LINE",
"443 465 OFFCURVE",
"501 526 OFFCURVE",
"501 584 CURVE",
"501 642 OFFCURVE",
"442 700 OFFCURVE",
"384 700 CURVE",
"326 700 OFFCURVE",
"266 642 OFFCURVE",
"266 584 CURVE",
"266 526 OFFCURVE",
"325 465 OFFCURVE",
"383 465 CURVE",
"383 699 LINE"
);
},
{
closed = 1;
nodes = (
"385 465 LINE",
"384 464 LINE",
"383 465 LINE",
"383 465 LINE",
"384 464 LINE",
"385 465 LINE"
);
},
{
closed = 1;
nodes = (
"384 468 LINE",
"385 467 LINE",
"385 234 LINE",
"443 234 OFFCURVE",
"501 294 OFFCURVE",
"501 352 CURVE",
"501 410 OFFCURVE",
"442 468 OFFCURVE",
"384 468 CURVE",
"326 468 OFFCURVE",
"266 410 OFFCURVE",
"266 352 CURVE",
"266 294 OFFCURVE",
"325 234 OFFCURVE",
"383 234 CURVE",
"383 467 LINE"
);
},
{
closed = 1;
nodes = (
"385 234 LINE",
"384 233 LINE",
"383 234 LINE",
"383 234 LINE",
"384 233 LINE",
"385 234 LINE"
);
},
{
closed = 1;
nodes = (
"384 234 LINE",
"385 233 LINE",
"385 0 LINE",
"443 0 OFFCURVE",
"501 60 OFFCURVE",
"501 118 CURVE",
"501 176 OFFCURVE",
"442 234 OFFCURVE",
"384 234 CURVE",
"326 234 OFFCURVE",
"266 176 OFFCURVE",
"266 118 CURVE",
"266 60 OFFCURVE",
"325 0 OFFCURVE",
"383 0 CURVE",
"383 233 LINE"
);
},
{
closed = 0;
nodes = (
"385 700 LINE",
"385 687 LINE"
);
},
{
closed = 0;
nodes = (
"385 13 LINE",
"385 0 LINE"
);
},
{
closed = 0;
nodes = (
"385 473 LINE",
"385 460 LINE"
);
},
{
closed = 1;
nodes = (
"606 700 LINE",
"606 468 LINE",
"619 468 LINE",
"619 700 LINE"
);
},
{
closed = 1;
nodes = (
"609 477 LINE",
"387 255 LINE",
"396 246 LINE",
"619 468 LINE"
);
},
{
closed = 1;
nodes = (
"149 468 LINE",
"162 468 LINE",
"162 700 LINE",
"149 700 LINE"
);
},
{
closed = 1;
nodes = (
"372 246 LINE",
"381 255 LINE",
"159 477 LINE",
"149 468 LINE"
);
},
{
closed = 1;
nodes = (
"620 233 LINE",
"607 233 LINE",
"607 0 LINE",
"620 0 LINE"
);
},
{
closed = 1;
nodes = (
"397 455 LINE",
"388 446 LINE",
"610 224 LINE",
"620 233 LINE"
);
},
{
closed = 1;
nodes = (
"163 0 LINE",
"163 233 LINE",
"150 233 LINE",
"150 0 LINE"
);
},
{
closed = 1;
nodes = (
"160 224 LINE",
"382 446 LINE",
"373 455 LINE",
"150 233 LINE"
);
},
{
closed = 1;
nodes = (
"40 0 LINE",
"273 0 LINE",
"273 13 LINE",
"40 13 LINE"
);
},
{
closed = 1;
nodes = (
"497 0 LINE",
"730 0 LINE",
"730 13 LINE",
"497 13 LINE"
);
},
{
closed = 1;
nodes = (
"40 687 LINE",
"273 687 LINE",
"273 700 LINE",
"40 700 LINE"
);
},
{
closed = 1;
nodes = (
"497 687 LINE",
"730 687 LINE",
"730 700 LINE",
"497 700 LINE"
);
}
);
width = 770;
}
);
unicode = 0058;
},
{
glyphname = Y;
lastChange = "2021-04-14 17:34:16 +0000";
layers = (
{
layerId = "16A4F72C-6E52-4851-BC55-1EF2E1D4C4EC";
paths = (
{
closed = 1;
nodes = (
"385 700 LINE",
"386 699 LINE",
"386 465 LINE",
"424 505 OFFCURVE",
"463 545 OFFCURVE",
"502 584 CURVE",
"463 622 OFFCURVE",
"423 662 OFFCURVE",
"385 700 CURVE",
"346 662 OFFCURVE",
"306 622 OFFCURVE",
"267 584 CURVE",
"305 545 OFFCURVE",
"346 505 OFFCURVE",
"384 465 CURVE",
"384 699 LINE"
);
},
{
closed = 1;
nodes = (
"386 465 LINE",
"385 464 LINE",
"384 465 LINE",
"384 465 LINE",
"385 464 LINE",
"386 465 LINE"
);
},
{
closed = 1;
nodes = (
"385 468 LINE",
"386 467 LINE",
"386 234 LINE",
"424 274 OFFCURVE",
"463 313 OFFCURVE",
"502 352 CURVE",
"463 391 OFFCURVE",
"423 430 OFFCURVE",
"385 468 CURVE",
"346 430 OFFCURVE",
"306 391 OFFCURVE",
"267 352 CURVE",
"305 313 OFFCURVE",
"346 274 OFFCURVE",
"384 234 CURVE",
"384 467 LINE"
);
},
{
closed = 1;
nodes = (
"386 234 LINE",
"385 233 LINE",
"384 234 LINE",
"384 234 LINE",
"385 233 LINE",
"386 234 LINE"
);
},
{
closed = 1;
nodes = (
"385 234 LINE",
"386 233 LINE",
"386 0 LINE",
"424 39 OFFCURVE",
"463 78 OFFCURVE",
"502 118 CURVE",
"463 156 OFFCURVE",
"423 196 OFFCURVE",
"385 234 CURVE",
"346 196 OFFCURVE",
"306 156 OFFCURVE",
"267 118 CURVE",
"305 78 OFFCURVE",
"346 39 OFFCURVE",
"384 0 CURVE",
"384 233 LINE"
);
},
{
closed = 0;
nodes = (
"386 700 LINE",
"386 687 LINE"
);
},
{
closed = 0;
nodes = (
"386 13 LINE",
"386 0 LINE"
);
},
{
closed = 0;
nodes = (
"386 473 LINE",
"386 460 LINE"
);
},
{
closed = 1;
nodes = (
"607 700 LINE",
"607 468 LINE",
"620 468 LINE",
"620 700 LINE"
);
},
{
closed = 1;
nodes = (
"610 477 LINE",
"388 255 LINE",
"397 246 LINE",
"620 468 LINE"
);
},
{
closed = 1;
nodes = (
"150 468 LINE",
"163 468 LINE",
"163 700 LINE",
"150 700 LINE"
);
},
{
closed = 1;
nodes = (
"373 246 LINE",
"382 255 LINE",
"160 477 LINE",
"150 468 LINE"
);
},
{
closed = 1;
nodes = (
"269 0 LINE",
"502 0 LINE",
"502 13 LINE",
"269 13 LINE"
);
},
{
closed = 1;
nodes = (
"40 687 LINE",
"273 687 LINE",
"273 700 LINE",
"40 700 LINE"
);
},
{
closed = 1;
nodes = (
"497 687 LINE",
"730 687 LINE",
"730 700 LINE",
"497 700 LINE"
);
}
);
width = 770;
},
{
layerId = "97FB2712-2ECD-43E8-8EDB-5EDF297461B7";
paths = (
{
closed = 1;
nodes = (
"385 700 LINE",
"386 699 LINE",
"386 465 LINE",
"444 465 OFFCURVE",
"502 526 OFFCURVE",
"502 584 CURVE",
"502 642 OFFCURVE",
"443 700 OFFCURVE",
"385 700 CURVE",
"327 700 OFFCURVE",
"267 642 OFFCURVE",
"267 584 CURVE",
"267 526 OFFCURVE",
"326 465 OFFCURVE",
"384 465 CURVE",
"384 699 LINE"
);
},
{
closed = 1;
nodes = (
"386 465 LINE",
"385 464 LINE",
"384 465 LINE",
"384 465 LINE",
"385 464 LINE",
"386 465 LINE"
);
},
{
closed = 1;
nodes = (
"385 468 LINE",
"386 467 LINE",
"386 234 LINE",
"444 234 OFFCURVE",
"502 294 OFFCURVE",
"502 352 CURVE",
"502 410 OFFCURVE",
"443 468 OFFCURVE",
"385 468 CURVE",
"327 468 OFFCURVE",
"267 410 OFFCURVE",
"267 352 CURVE",
"267 294 OFFCURVE",
"326 234 OFFCURVE",
"384 234 CURVE",
"384 467 LINE"
);
},
{
closed = 1;
nodes = (
"386 234 LINE",
"385 233 LINE",
"384 234 LINE",
"384 234 LINE",
"385 233 LINE",
"386 234 LINE"
);
},
{
closed = 1;
nodes = (
"385 234 LINE",
"386 233 LINE",
"386 0 LINE",
"444 0 OFFCURVE",
"502 60 OFFCURVE",
"502 118 CURVE",
"502 176 OFFCURVE",
"443 234 OFFCURVE",
"385 234 CURVE",
"327 234 OFFCURVE",
"267 176 OFFCURVE",
"267 118 CURVE",
"267 60 OFFCURVE",
"326 0 OFFCURVE",
"384 0 CURVE",
"384 233 LINE"
);
},
{
closed = 0;
nodes = (
"386 700 LINE",
"386 687 LINE"
);
},
{
closed = 0;
nodes = (
"386 13 LINE",
"386 0 LINE"
);
},
{
closed = 0;
nodes = (
"386 473 LINE",
"386 460 LINE"
);
},
{
closed = 1;
nodes = (
"607 700 LINE",
"607 468 LINE",
"620 468 LINE",
"620 700 LINE"
);
},
{
closed = 1;
nodes = (
"610 477 LINE",
"388 255 LINE",
"397 246 LINE",
"620 468 LINE"
);
},
{
closed = 1;
nodes = (
"150 468 LINE",
"163 468 LINE",
"163 700 LINE",
"150 700 LINE"
);
},
{
closed = 1;
nodes = (
"373 246 LINE",
"382 255 LINE",
"160 477 LINE",
"150 468 LINE"
);
},
{
closed = 1;
nodes = (
"269 0 LINE",
"502 0 LINE",
"502 13 LINE",
"269 13 LINE"
);
},
{
closed = 1;
nodes = (
"40 687 LINE",
"273 687 LINE",
"273 700 LINE",
"40 700 LINE"
);
},
{
closed = 1;
nodes = (
"497 687 LINE",
"730 687 LINE",
"730 700 LINE",
"497 700 LINE"
);
}
);
width = 770;
}
);
unicode = 0059;
},
{
glyphname = Z;
lastChange = "2021-04-16 16:51:50 +0000";
layers = (
{
layerId = "16A4F72C-6E52-4851-BC55-1EF2E1D4C4EC";
paths = (
{
closed = 1;
nodes = (
"274 700 LINE",
"275 699 LINE",
"275 465 LINE",
"313 505 OFFCURVE",
"352 545 OFFCURVE",
"391 584 CURVE",
"352 622 OFFCURVE",
"312 662 OFFCURVE",
"274 700 CURVE",
"235 662 OFFCURVE",
"195 622 OFFCURVE",
"156 584 CURVE",
"194 545 OFFCURVE",
"235 505 OFFCURVE",
"273 465 CURVE",
"273 699 LINE"
);
},
{
closed = 1;
nodes = (
"275 465 LINE",
"274 464 LINE",
"273 465 LINE",
"273 465 LINE",
"274 464 LINE",
"275 465 LINE"
);
},
{
closed = 1;
nodes = (
"274 468 LINE",
"275 467 LINE",
"275 234 LINE",
"313 274 OFFCURVE",
"352 313 OFFCURVE",
"391 352 CURVE",
"352 391 OFFCURVE",
"312 430 OFFCURVE",
"274 468 CURVE",
"235 430 OFFCURVE",
"195 391 OFFCURVE",
"156 352 CURVE",
"194 313 OFFCURVE",
"235 274 OFFCURVE",
"273 234 CURVE",
"273 467 LINE"
);
},
{
closed = 1;
nodes = (
"275 234 LINE",
"274 233 LINE",
"273 234 LINE",
"273 234 LINE",
"274 233 LINE",
"275 234 LINE"
);
},
{
closed = 1;
nodes = (
"274 234 LINE",
"275 233 LINE",
"275 0 LINE",
"313 39 OFFCURVE",
"352 78 OFFCURVE",
"391 118 CURVE",
"352 156 OFFCURVE",
"312 196 OFFCURVE",
"274 234 CURVE",
"235 196 OFFCURVE",
"195 156 OFFCURVE",
"156 118 CURVE",
"194 78 OFFCURVE",
"235 39 OFFCURVE",
"273 0 CURVE",
"273 233 LINE"
);
},
{
closed = 0;
nodes = (
"275 700 LINE",
"275 687 LINE"
);
},
{
closed = 0;
nodes = (
"275 13 LINE",
"275 0 LINE"
);
},
{
closed = 0;
nodes = (
"275 473 LINE",
"275 460 LINE"
);
},
{
closed = 1;
nodes = (
"40 687 LINE",
"273 687 LINE",
"273 700 LINE",
"40 700 LINE"
);
},
{
closed = 1;
nodes = (
"40 700 LINE",
"40 586 LINE",
"53 586 LINE",
"53 700 LINE"
);
},
{
closed = 1;
nodes = (
"495 120 LINE",
"495 0 LINE",
"508 0 LINE",
"508 120 LINE"
);
},
{
closed = 1;
nodes = (
"275 687 LINE",
"495 687 LINE",
"495 700 LINE",
"275 700 LINE"
);
},
{
closed = 1;
nodes = (
"52 0 LINE",
"273 0 LINE",
"273 13 LINE",
"52 13 LINE"
);
},
{
closed = 1;
nodes = (
"275 0 LINE",
"508 0 LINE",
"508 13 LINE",
"275 13 LINE"
);
},
{
closed = 1;
nodes = (
"330 523 LINE",
"495 687 LINE",
"486 697 LINE",
"321 532 LINE"
);
},
{
closed = 1;
nodes = (
"61 4 LINE",
"226 168 LINE",
"217 178 LINE",
"52 13 LINE"
);
}
);
width = 548;
},
{
layerId = "97FB2712-2ECD-43E8-8EDB-5EDF297461B7";
paths = (
{
closed = 1;
nodes = (
"274 700 LINE",
"275 699 LINE",
"275 465 LINE",
"333 465 OFFCURVE",
"391 526 OFFCURVE",
"391 584 CURVE",
"391 642 OFFCURVE",
"332 700 OFFCURVE",
"274 700 CURVE",
"216 700 OFFCURVE",
"156 642 OFFCURVE",
"156 584 CURVE",
"156 526 OFFCURVE",
"215 465 OFFCURVE",
"273 465 CURVE",
"273 699 LINE"
);
},
{
closed = 1;
nodes = (
"275 465 LINE",
"274 464 LINE",
"273 465 LINE",
"273 465 LINE",
"274 464 LINE",
"275 465 LINE"
);
},
{
closed = 1;
nodes = (
"274 468 LINE",
"275 467 LINE",
"275 234 LINE",
"333 234 OFFCURVE",
"391 294 OFFCURVE",
"391 352 CURVE",
"391 410 OFFCURVE",
"332 468 OFFCURVE",
"274 468 CURVE",
"216 468 OFFCURVE",
"156 410 OFFCURVE",
"156 352 CURVE",
"156 294 OFFCURVE",
"215 234 OFFCURVE",
"273 234 CURVE",
"273 467 LINE"
);
},
{
closed = 1;
nodes = (
"275 234 LINE",
"274 233 LINE",
"273 234 LINE",
"273 234 LINE",
"274 233 LINE",
"275 234 LINE"
);
},
{
closed = 1;
nodes = (
"274 234 LINE",
"275 233 LINE",
"275 0 LINE",
"333 0 OFFCURVE",
"391 60 OFFCURVE",
"391 118 CURVE",
"391 176 OFFCURVE",
"332 234 OFFCURVE",
"274 234 CURVE",
"216 234 OFFCURVE",
"156 176 OFFCURVE",
"156 118 CURVE",
"156 60 OFFCURVE",
"215 0 OFFCURVE",
"273 0 CURVE",
"273 233 LINE"
);
},
{
closed = 0;
nodes = (
"275 700 LINE",
"275 687 LINE"
);
},
{
closed = 0;
nodes = (
"275 13 LINE",
"275 0 LINE"
);
},
{
closed = 0;
nodes = (
"275 473 LINE",
"275 460 LINE"
);
},
{
closed = 1;
nodes = (
"40 687 LINE",
"273 687 LINE",
"273 700 LINE",
"40 700 LINE"
);
},
{
closed = 1;
nodes = (
"40 700 LINE",
"40 586 LINE",
"53 586 LINE",
"53 700 LINE"
);
},
{
closed = 1;
nodes = (
"495 120 LINE",
"495 0 LINE",
"508 0 LINE",
"508 120 LINE"
);
},
{
closed = 1;
nodes = (
"275 687 LINE",
"495 687 LINE",
"495 700 LINE",
"275 700 LINE"
);
},
{
closed = 1;
nodes = (
"52 0 LINE",
"273 0 LINE",
"273 13 LINE",
"52 13 LINE"
);
},
{
closed = 1;
nodes = (
"275 0 LINE",
"508 0 LINE",
"508 13 LINE",
"275 13 LINE"
);
},
{
closed = 1;
nodes = (
"330 523 LINE",
"495 687 LINE",
"486 697 LINE",
"321 532 LINE"
);
},
{
closed = 1;
nodes = (
"61 4 LINE",
"226 168 LINE",
"217 178 LINE",
"52 13 LINE"
);
}
);
width = 548;
}
);
unicode = 005A;
},
{
glyphname = a;
lastChange = "2021-04-14 02:20:57 +0000";
layers = (
{
layerId = "16A4F72C-6E52-4851-BC55-1EF2E1D4C4EC";
paths = (
{
closed = 1;
nodes = (
"159 346 LINE",
"393 346 LINE",
"393 359 LINE",
"159 359 LINE"
);
},
{
closed = 1;
nodes = (
"270 687 LINE",
"393 687 LINE",
"393 700 LINE",
"270 700 LINE"
);
},
{
closed = 1;
nodes = (
"276 346 LINE",
"510 346 LINE",
"510 359 LINE",
"276 359 LINE"
);
},
{
closed = 1;
nodes = (
"510 0 LINE",
"511 583 LINE",
"497 583 LINE",
"497 0 LINE"
);
},
{
closed = 1;
nodes = (
"384 690 LINE",
"500 574 LINE",
"511 583 LINE",
"393 700 LINE"
);
},
{
closed = 1;
nodes = (
"387 0 LINE",
"620 0 LINE",
"620 13 LINE",
"387 13 LINE"
);
},
{
closed = 1;
nodes = (
"42 0 LINE",
"275 0 LINE",
"275 13 LINE",
"42 13 LINE"
);
},
{
closed = 1;
nodes = (
"165 0 LINE",
"166 583 LINE",
"152 583 LINE",
"152 0 LINE"
);
},
{
closed = 1;
nodes = (
"152 583 LINE",
"163 574 LINE",
"279 690 LINE",
"270 700 LINE"
);
}
);
width = 660;
},
{
layerId = "97FB2712-2ECD-43E8-8EDB-5EDF297461B7";
paths = (
{
closed = 1;
nodes = (
"157 346 LINE",
"391 346 LINE",
"391 359 LINE",
"157 359 LINE"
);
},
{
closed = 1;
nodes = (
"268 687 LINE",
"391 687 LINE",
"391 700 LINE",
"268 700 LINE"
);
},
{
closed = 1;
nodes = (
"274 346 LINE",
"508 346 LINE",
"508 359 LINE",
"274 359 LINE"
);
},
{
closed = 1;
nodes = (
"508 0 LINE",
"509 583 LINE",
"495 583 LINE",
"495 0 LINE"
);
},
{
closed = 1;
nodes = (
"382 690 LINE",
"498 574 LINE",
"509 583 LINE",
"391 700 LINE"
);
},
{
closed = 1;
nodes = (
"385 0 LINE",
"618 0 LINE",
"618 13 LINE",
"385 13 LINE"
);
},
{
closed = 1;
nodes = (
"40 0 LINE",
"273 0 LINE",
"273 13 LINE",
"40 13 LINE"
);
},
{
closed = 1;
nodes = (
"163 0 LINE",
"164 583 LINE",
"150 583 LINE",
"150 0 LINE"
);
},
{
closed = 1;
nodes = (
"150 583 LINE",
"161 574 LINE",
"277 690 LINE",
"268 700 LINE"
);
}
);
width = 658;
}
);
unicode = 0061;
},
{
glyphname = b;
lastChange = "2021-04-14 02:22:43 +0000";
layers = (
{
layerId = "16A4F72C-6E52-4851-BC55-1EF2E1D4C4EC";
paths = (
{
closed = 1;
nodes = (
"159 687 LINE",
"505 685 LINE",
"505 698 LINE",
"159 700 LINE"
);
},
{
closed = 1;
nodes = (
"159 0 LINE",
"397 0 LINE",
"397 11 LINE",
"159 13 LINE"
);
},
{
closed = 1;
nodes = (
"492 698 LINE",
"491 576 LINE",
"504 576 LINE",
"505 698 LINE"
);
},
{
closed = 1;
nodes = (
"388 461 LINE",
"503 345 LINE",
"512 354 LINE",
"397 471 LINE"
);
},
{
closed = 1;
nodes = (
"388 461 LINE",
"504 576 LINE",
"495 585 LINE",
"378 470 LINE"
);
},
{
closed = 1;
nodes = (
"499 354 LINE",
"498 113 LINE",
"511 113 LINE",
"512 354 LINE"
);
},
{
closed = 1;
nodes = (
"397 0 LINE",
"511 113 LINE",
"504 124 LINE",
"387 9 LINE"
);
},
{
closed = 1;
nodes = (
"159 460 LINE",
"393 460 LINE",
"393 471 LINE",
"159 473 LINE"
);
},
{
closed = 1;
nodes = (
"41 687 LINE",
"274 687 LINE",
"274 700 LINE",
"41 700 LINE"
);
},
{
closed = 1;
nodes = (
"41 0 LINE",
"274 0 LINE",
"274 13 LINE",
"41 13 LINE"
);
},
{
closed = 1;
nodes = (
"148 700 LINE",
"146 4 LINE",
"159 4 LINE",
"161 700 LINE"
);
}
);
width = 552;
},
{
layerId = "97FB2712-2ECD-43E8-8EDB-5EDF297461B7";
paths = (
{
closed = 1;
nodes = (
"158 687 LINE",
"504 685 LINE",
"504 698 LINE",
"158 700 LINE"
);
},
{
closed = 1;
nodes = (
"158 0 LINE",
"396 0 LINE",
"396 11 LINE",
"158 13 LINE"
);
},
{
closed = 1;
nodes = (
"491 698 LINE",
"490 576 LINE",
"503 576 LINE",
"504 698 LINE"
);
},
{
closed = 1;
nodes = (
"387 461 LINE",
"502 345 LINE",
"511 354 LINE",
"396 471 LINE"
);
},
{
closed = 1;
nodes = (
"387 461 LINE",
"503 576 LINE",
"494 585 LINE",
"377 470 LINE"
);
},
{
closed = 1;
nodes = (
"498 354 LINE",
"497 113 LINE",
"510 113 LINE",
"511 354 LINE"
);
},
{
closed = 1;
nodes = (
"396 0 LINE",
"510 113 LINE",
"503 124 LINE",
"386 9 LINE"
);
},
{
closed = 1;
nodes = (
"158 460 LINE",
"392 460 LINE",
"392 471 LINE",
"158 473 LINE"
);
},
{
closed = 1;
nodes = (
"40 687 LINE",
"273 687 LINE",
"273 700 LINE",
"40 700 LINE"
);
},
{
closed = 1;
nodes = (
"40 0 LINE",
"273 0 LINE",
"273 13 LINE",
"40 13 LINE"
);
},
{
closed = 1;
nodes = (
"147 700 LINE",
"145 4 LINE",
"158 4 LINE",
"160 700 LINE"
);
}
);
width = 551;
}
);
unicode = 0062;
},
{
glyphname = c;
lastChange = "2021-04-14 02:25:06 +0000";
layers = (
{
layerId = "16A4F72C-6E52-4851-BC55-1EF2E1D4C4EC";
paths = (
{
closed = 0;
nodes = (
"48 590 LINE",
"48 577 LINE"
);
},
{
closed = 0;
nodes = (
"272 13 LINE",
"272 0 LINE"
);
},
{
closed = 1;
nodes = (
"157 687 LINE",
"390 687 LINE",
"390 700 LINE",
"157 700 LINE"
);
},
{
closed = 1;
nodes = (
"381 691 LINE",
"497 574 LINE",
"507 583 LINE",
"390 700 LINE"
);
},
{
closed = 1;
nodes = (
"40 583 LINE",
"50 574 LINE",
"166 691 LINE",
"157 700 LINE"
);
},
{
closed = 1;
nodes = (
"41 119 LINE",
"158 0 LINE",
"168 9 LINE",
"50 128 LINE"
);
},
{
closed = 1;
nodes = (
"508 117 LINE",
"498 126 LINE",
"382 9 LINE",
"391 0 LINE"
);
},
{
closed = 1;
nodes = (
"158 0 LINE",
"391 0 LINE",
"391 13 LINE",
"158 13 LINE"
);
},
{
closed = 1;
nodes = (
"40 583 LINE",
"41 119 LINE",
"54 119 LINE",
"53 583 LINE"
);
}
);
width = 548;
},
{
layerId = "97FB2712-2ECD-43E8-8EDB-5EDF297461B7";
paths = (
{
closed = 0;
nodes = (
"48 590 LINE",
"48 577 LINE"
);
},
{
closed = 0;
nodes = (
"272 13 LINE",
"272 0 LINE"
);
},
{
closed = 1;
nodes = (
"157 687 LINE",
"390 687 LINE",
"390 700 LINE",
"157 700 LINE"
);
},
{
closed = 1;
nodes = (
"381 691 LINE",
"497 574 LINE",
"507 583 LINE",
"390 700 LINE"
);
},
{
closed = 1;
nodes = (
"40 583 LINE",
"50 574 LINE",
"166 691 LINE",
"157 700 LINE"
);
},
{
closed = 1;
nodes = (
"41 119 LINE",
"158 0 LINE",
"168 9 LINE",
"50 128 LINE"
);
},
{
closed = 1;
nodes = (
"508 117 LINE",
"498 126 LINE",
"382 9 LINE",
"391 0 LINE"
);
},
{
closed = 1;
nodes = (
"158 0 LINE",
"391 0 LINE",
"391 13 LINE",
"158 13 LINE"
);
},
{
closed = 1;
nodes = (
"40 583 LINE",
"41 119 LINE",
"54 119 LINE",
"53 583 LINE"
);
}
);
width = 548;
}
);
unicode = 0063;
},
{
glyphname = d;
lastChange = "2021-04-14 02:26:06 +0000";
layers = (
{
layerId = "16A4F72C-6E52-4851-BC55-1EF2E1D4C4EC";
paths = (
{
closed = 1;
nodes = (
"158 687 LINE",
"386 687 LINE",
"386 700 LINE",
"158 700 LINE"
);
},
{
closed = 1;
nodes = (
"158 0 LINE",
"396 0 LINE",
"396 11 LINE",
"158 13 LINE"
);
},
{
closed = 1;
nodes = (
"498 576 LINE",
"497 113 LINE",
"510 113 LINE",
"511 576 LINE"
);
},
{
closed = 1;
nodes = (
"396 0 LINE",
"510 113 LINE",
"503 124 LINE",
"386 9 LINE"
);
},
{
closed = 1;
nodes = (
"504 565 LINE",
"511 576 LINE",
"386 700 LINE",
"376 691 LINE"
);
},
{
closed = 1;
nodes = (
"40 687 LINE",
"273 687 LINE",
"273 700 LINE",
"40 700 LINE"
);
},
{
closed = 1;
nodes = (
"40 0 LINE",
"273 0 LINE",
"273 13 LINE",
"40 13 LINE"
);
},
{
closed = 1;
nodes = (
"152 689 LINE",
"151 6 LINE",
"164 6 LINE",
"165 689 LINE"
);
}
);
width = 551;
},
{
layerId = "97FB2712-2ECD-43E8-8EDB-5EDF297461B7";
paths = (
{
closed = 1;
nodes = (
"158 687 LINE",
"386 687 LINE",
"386 700 LINE",
"158 700 LINE"
);
},
{
closed = 1;
nodes = (
"158 0 LINE",
"396 0 LINE",
"396 11 LINE",
"158 13 LINE"
);
},
{
closed = 1;
nodes = (
"498 576 LINE",
"497 113 LINE",
"510 113 LINE",
"511 576 LINE"
);
},
{
closed = 1;
nodes = (
"396 0 LINE",
"510 113 LINE",
"503 124 LINE",
"386 9 LINE"
);
},
{
closed = 1;
nodes = (
"504 565 LINE",
"511 576 LINE",
"386 700 LINE",
"376 691 LINE"
);
},
{
closed = 1;
nodes = (
"40 687 LINE",
"273 687 LINE",
"273 700 LINE",
"40 700 LINE"
);
},
{
closed = 1;
nodes = (
"40 0 LINE",
"273 0 LINE",
"273 13 LINE",
"40 13 LINE"
);
},
{
closed = 1;
nodes = (
"152 689 LINE",
"151 6 LINE",
"164 6 LINE",
"165 689 LINE"
);
}
);
width = 551;
}
);
unicode = 0064;
},
{
glyphname = e;
lastChange = "2021-04-14 02:30:59 +0000";
layers = (
{
layerId = "16A4F72C-6E52-4851-BC55-1EF2E1D4C4EC";
paths = (
{
closed = 1;
nodes = (
"158 687 LINE",
"386 687 LINE",
"386 700 LINE",
"158 700 LINE"
);
},
{
closed = 1;
nodes = (
"158 0 LINE",
"396 0 LINE",
"396 11 LINE",
"158 13 LINE"
);
},
{
closed = 1;
nodes = (
"396 0 LINE",
"510 113 LINE",
"503 124 LINE",
"386 9 LINE"
);
},
{
closed = 1;
nodes = (
"504 565 LINE",
"511 576 LINE",
"386 700 LINE",
"376 691 LINE"
);
},
{
closed = 1;
nodes = (
"158 346 LINE",
"386 346 LINE",
"386 359 LINE",
"158 359 LINE"
);
},
{
closed = 1;
nodes = (
"40 687 LINE",
"273 687 LINE",
"273 700 LINE",
"40 700 LINE"
);
},
{
closed = 1;
nodes = (
"40 0 LINE",
"273 0 LINE",
"273 13 LINE",
"40 13 LINE"
);
},
{
closed = 1;
nodes = (
"151 687 LINE",
"151 9 LINE",
"164 9 LINE",
"164 687 LINE"
);
}
);
width = 551;
},
{
layerId = "97FB2712-2ECD-43E8-8EDB-5EDF297461B7";
paths = (
{
closed = 1;
nodes = (
"158 687 LINE",
"386 687 LINE",
"386 700 LINE",
"158 700 LINE"
);
},
{
closed = 1;
nodes = (
"158 0 LINE",
"396 0 LINE",
"396 11 LINE",
"158 13 LINE"
);
},
{
closed = 1;
nodes = (
"396 0 LINE",
"510 113 LINE",
"503 124 LINE",
"386 9 LINE"
);
},
{
closed = 1;
nodes = (
"504 565 LINE",
"511 576 LINE",
"386 700 LINE",
"376 691 LINE"
);
},
{
closed = 1;
nodes = (
"158 346 LINE",
"386 346 LINE",
"386 359 LINE",
"158 359 LINE"
);
},
{
closed = 1;
nodes = (
"40 687 LINE",
"273 687 LINE",
"273 700 LINE",
"40 700 LINE"
);
},
{
closed = 1;
nodes = (
"40 0 LINE",
"273 0 LINE",
"273 13 LINE",
"40 13 LINE"
);
},
{
closed = 1;
nodes = (
"151 687 LINE",
"151 9 LINE",
"164 9 LINE",
"164 687 LINE"
);
}
);
width = 551;
}
);
unicode = 0065;
},
{
glyphname = f;
lastChange = "2021-04-14 02:32:33 +0000";
layers = (
{
layerId = "16A4F72C-6E52-4851-BC55-1EF2E1D4C4EC";
paths = (
{
closed = 1;
nodes = (
"158 687 LINE",
"386 687 LINE",
"386 700 LINE",
"158 700 LINE"
);
},
{
closed = 1;
nodes = (
"504 565 LINE",
"511 576 LINE",
"386 700 LINE",
"376 691 LINE"
);
},
{
closed = 1;
nodes = (
"158 346 LINE",
"386 346 LINE",
"386 359 LINE",
"158 359 LINE"
);
},
{
closed = 1;
nodes = (
"40 0 LINE",
"273 0 LINE",
"273 13 LINE",
"40 13 LINE"
);
},
{
closed = 1;
nodes = (
"40 687 LINE",
"273 687 LINE",
"273 700 LINE",
"40 700 LINE"
);
},
{
closed = 1;
nodes = (
"145 688 LINE",
"145 10 LINE",
"158 10 LINE",
"158 688 LINE"
);
}
);
width = 551;
},
{
layerId = "97FB2712-2ECD-43E8-8EDB-5EDF297461B7";
paths = (
{
closed = 1;
nodes = (
"158 687 LINE",
"386 687 LINE",
"386 700 LINE",
"158 700 LINE"
);
},
{
closed = 1;
nodes = (
"504 565 LINE",
"511 576 LINE",
"386 700 LINE",
"376 691 LINE"
);
},
{
closed = 1;
nodes = (
"158 346 LINE",
"386 346 LINE",
"386 359 LINE",
"158 359 LINE"
);
},
{
closed = 1;
nodes = (
"40 0 LINE",
"273 0 LINE",
"273 13 LINE",
"40 13 LINE"
);
},
{
closed = 1;
nodes = (
"40 687 LINE",
"273 687 LINE",
"273 700 LINE",
"40 700 LINE"
);
},
{
closed = 1;
nodes = (
"145 688 LINE",
"145 10 LINE",
"158 10 LINE",
"158 688 LINE"
);
}
);
width = 551;
}
);
unicode = 0066;
},
{
glyphname = g;
lastChange = "2021-04-14 02:35:04 +0000";
layers = (
{
layerId = "16A4F72C-6E52-4851-BC55-1EF2E1D4C4EC";
paths = (
{
closed = 0;
nodes = (
"158 700 LINE",
"158 687 LINE"
);
},
{
closed = 0;
nodes = (
"158 13 LINE",
"158 0 LINE"
);
},
{
closed = 1;
nodes = (
"157 687 LINE",
"390 687 LINE",
"390 700 LINE",
"157 700 LINE"
);
},
{
closed = 1;
nodes = (
"381 691 LINE",
"497 574 LINE",
"507 583 LINE",
"390 700 LINE"
);
},
{
closed = 1;
nodes = (
"494 583 LINE",
"494 469 LINE",
"507 469 LINE",
"507 583 LINE"
);
},
{
closed = 1;
nodes = (
"494 237 LINE",
"494 117 LINE",
"507 117 LINE",
"507 237 LINE"
);
},
{
closed = 1;
nodes = (
"507 117 LINE",
"497 126 LINE",
"381 9 LINE",
"390 0 LINE"
);
},
{
closed = 1;
nodes = (
"157 0 LINE",
"390 0 LINE",
"390 13 LINE",
"157 13 LINE"
);
},
{
closed = 1;
nodes = (
"507 237 LINE",
"387 237 LINE",
"387 224 LINE",
"507 224 LINE"
);
},
{
closed = 0;
nodes = (
"48 590 LINE",
"48 577 LINE"
);
},
{
closed = 0;
nodes = (
"272 13 LINE",
"272 0 LINE"
);
},
{
closed = 1;
nodes = (
"157 687 LINE",
"390 687 LINE",
"390 700 LINE",
"157 700 LINE"
);
},
{
closed = 1;
nodes = (
"381 691 LINE",
"497 574 LINE",
"507 583 LINE",
"390 700 LINE"
);
},
{
closed = 1;
nodes = (
"40 583 LINE",
"50 574 LINE",
"166 691 LINE",
"157 700 LINE"
);
},
{
closed = 1;
nodes = (
"41 119 LINE",
"158 0 LINE",
"168 9 LINE",
"50 128 LINE"
);
},
{
closed = 1;
nodes = (
"508 117 LINE",
"498 126 LINE",
"382 9 LINE",
"391 0 LINE"
);
},
{
closed = 1;
nodes = (
"158 0 LINE",
"391 0 LINE",
"391 13 LINE",
"158 13 LINE"
);
},
{
closed = 1;
nodes = (
"40 583 LINE",
"41 119 LINE",
"54 119 LINE",
"53 583 LINE"
);
}
);
width = 548;
},
{
layerId = "97FB2712-2ECD-43E8-8EDB-5EDF297461B7";
paths = (
{
closed = 0;
nodes = (
"158 700 LINE",
"158 687 LINE"
);
},
{
closed = 0;
nodes = (
"158 13 LINE",
"158 0 LINE"
);
},
{
closed = 1;
nodes = (
"157 687 LINE",
"390 687 LINE",
"390 700 LINE",
"157 700 LINE"
);
},
{
closed = 1;
nodes = (
"381 691 LINE",
"497 574 LINE",
"507 583 LINE",
"390 700 LINE"
);
},
{
closed = 1;
nodes = (
"494 583 LINE",
"494 469 LINE",
"507 469 LINE",
"507 583 LINE"
);
},
{
closed = 1;
nodes = (
"494 237 LINE",
"494 117 LINE",
"507 117 LINE",
"507 237 LINE"
);
},
{
closed = 1;
nodes = (
"507 117 LINE",
"497 126 LINE",
"381 9 LINE",
"390 0 LINE"
);
},
{
closed = 1;
nodes = (
"157 0 LINE",
"390 0 LINE",
"390 13 LINE",
"157 13 LINE"
);
},
{
closed = 1;
nodes = (
"507 237 LINE",
"387 237 LINE",
"387 224 LINE",
"507 224 LINE"
);
},
{
closed = 0;
nodes = (
"48 590 LINE",
"48 577 LINE"
);
},
{
closed = 0;
nodes = (
"272 13 LINE",
"272 0 LINE"
);
},
{
closed = 1;
nodes = (
"157 687 LINE",
"390 687 LINE",
"390 700 LINE",
"157 700 LINE"
);
},
{
closed = 1;
nodes = (
"381 691 LINE",
"497 574 LINE",
"507 583 LINE",
"390 700 LINE"
);
},
{
closed = 1;
nodes = (
"40 583 LINE",
"50 574 LINE",
"166 691 LINE",
"157 700 LINE"
);
},
{
closed = 1;
nodes = (
"41 119 LINE",
"158 0 LINE",
"168 9 LINE",
"50 128 LINE"
);
},
{
closed = 1;
nodes = (
"508 117 LINE",
"498 126 LINE",
"382 9 LINE",
"391 0 LINE"
);
},
{
closed = 1;
nodes = (
"158 0 LINE",
"391 0 LINE",
"391 13 LINE",
"158 13 LINE"
);
},
{
closed = 1;
nodes = (
"40 583 LINE",
"41 119 LINE",
"54 119 LINE",
"53 583 LINE"
);
}
);
width = 548;
}
);
unicode = 0067;
},
{
glyphname = h;
lastChange = "2021-04-14 02:37:13 +0000";
layers = (
{
layerId = "16A4F72C-6E52-4851-BC55-1EF2E1D4C4EC";
paths = (
{
closed = 0;
nodes = (
"155 700 LINE",
"155 687 LINE"
);
},
{
closed = 0;
nodes = (
"155 13 LINE",
"155 0 LINE"
);
},
{
closed = 0;
nodes = (
"560 700 LINE",
"560 687 LINE"
);
},
{
closed = 0;
nodes = (
"560 13 LINE",
"560 0 LINE"
);
},
{
closed = 1;
nodes = (
"162 346 LINE",
"556 346 LINE",
"556 359 LINE",
"162 359 LINE"
);
},
{
closed = 1;
nodes = (
"40 687 LINE",
"273 687 LINE",
"273 700 LINE",
"40 700 LINE"
);
},
{
closed = 1;
nodes = (
"40 0 LINE",
"273 0 LINE",
"273 13 LINE",
"40 13 LINE"
);
},
{
closed = 1;
nodes = (
"445 687 LINE",
"678 687 LINE",
"678 700 LINE",
"445 700 LINE"
);
},
{
closed = 1;
nodes = (
"445 0 LINE",
"678 0 LINE",
"678 13 LINE",
"445 13 LINE"
);
},
{
closed = 1;
nodes = (
"149 687 LINE",
"149 3 LINE",
"162 3 LINE",
"162 687 LINE"
);
},
{
closed = 1;
nodes = (
"553 687 LINE",
"553 3 LINE",
"566 3 LINE",
"566 687 LINE"
);
}
);
width = 718;
},
{
layerId = "97FB2712-2ECD-43E8-8EDB-5EDF297461B7";
paths = (
{
closed = 0;
nodes = (
"155 700 LINE",
"155 687 LINE"
);
},
{
closed = 0;
nodes = (
"155 13 LINE",
"155 0 LINE"
);
},
{
closed = 0;
nodes = (
"560 700 LINE",
"560 687 LINE"
);
},
{
closed = 0;
nodes = (
"560 13 LINE",
"560 0 LINE"
);
},
{
closed = 1;
nodes = (
"162 346 LINE",
"556 346 LINE",
"556 359 LINE",
"162 359 LINE"
);
},
{
closed = 1;
nodes = (
"40 687 LINE",
"273 687 LINE",
"273 700 LINE",
"40 700 LINE"
);
},
{
closed = 1;
nodes = (
"40 0 LINE",
"273 0 LINE",
"273 13 LINE",
"40 13 LINE"
);
},
{
closed = 1;
nodes = (
"445 687 LINE",
"678 687 LINE",
"678 700 LINE",
"445 700 LINE"
);
},
{
closed = 1;
nodes = (
"445 0 LINE",
"678 0 LINE",
"678 13 LINE",
"445 13 LINE"
);
},
{
closed = 1;
nodes = (
"149 687 LINE",
"149 3 LINE",
"162 3 LINE",
"162 687 LINE"
);
},
{
closed = 1;
nodes = (
"553 687 LINE",
"553 3 LINE",
"566 3 LINE",
"566 687 LINE"
);
}
);
width = 718;
}
);
unicode = 0068;
},
{
glyphname = i;
lastChange = "2021-04-14 02:38:29 +0000";
layers = (
{
layerId = "16A4F72C-6E52-4851-BC55-1EF2E1D4C4EC";
paths = (
{
closed = 0;
nodes = (
"271 700 LINE",
"271 687 LINE"
);
},
{
closed = 0;
nodes = (
"271 13 LINE",
"271 0 LINE"
);
},
{
closed = 1;
nodes = (
"157 687 LINE",
"390 687 LINE",
"390 700 LINE",
"157 700 LINE"
);
},
{
closed = 1;
nodes = (
"157 0 LINE",
"390 0 LINE",
"390 13 LINE",
"157 13 LINE"
);
},
{
closed = 1;
nodes = (
"381 691 LINE",
"497 574 LINE",
"507 583 LINE",
"390 700 LINE"
);
},
{
closed = 1;
nodes = (
"40 583 LINE",
"50 574 LINE",
"166 691 LINE",
"157 700 LINE"
);
},
{
closed = 1;
nodes = (
"507 117 LINE",
"497 126 LINE",
"381 9 LINE",
"390 0 LINE"
);
},
{
closed = 1;
nodes = (
"166 9 LINE",
"50 126 LINE",
"40 117 LINE",
"157 0 LINE"
);
},
{
closed = 1;
nodes = (
"264 689 LINE",
"264 6 LINE",
"277 6 LINE",
"277 689 LINE"
);
}
);
width = 547;
},
{
layerId = "97FB2712-2ECD-43E8-8EDB-5EDF297461B7";
paths = (
{
closed = 0;
nodes = (
"271 700 LINE",
"271 687 LINE"
);
},
{
closed = 0;
nodes = (
"271 13 LINE",
"271 0 LINE"
);
},
{
closed = 1;
nodes = (
"157 687 LINE",
"390 687 LINE",
"390 700 LINE",
"157 700 LINE"
);
},
{
closed = 1;
nodes = (
"157 0 LINE",
"390 0 LINE",
"390 13 LINE",
"157 13 LINE"
);
},
{
closed = 1;
nodes = (
"381 691 LINE",
"497 574 LINE",
"507 583 LINE",
"390 700 LINE"
);
},
{
closed = 1;
nodes = (
"40 583 LINE",
"50 574 LINE",
"166 691 LINE",
"157 700 LINE"
);
},
{
closed = 1;
nodes = (
"507 117 LINE",
"497 126 LINE",
"381 9 LINE",
"390 0 LINE"
);
},
{
closed = 1;
nodes = (
"166 9 LINE",
"50 126 LINE",
"40 117 LINE",
"157 0 LINE"
);
},
{
closed = 1;
nodes = (
"264 689 LINE",
"264 6 LINE",
"277 6 LINE",
"277 689 LINE"
);
}
);
width = 547;
}
);
unicode = 0069;
},
{
glyphname = j;
lastChange = "2021-04-14 03:21:47 +0000";
layers = (
{
layerId = "16A4F72C-6E52-4851-BC55-1EF2E1D4C4EC";
paths = (
{
closed = 0;
nodes = (
"392 700 LINE",
"392 687 LINE"
);
},
{
closed = 1;
nodes = (
"40 119 LINE",
"157 0 LINE",
"167 9 LINE",
"49 128 LINE"
);
},
{
closed = 1;
nodes = (
"157 0 LINE",
"273 0 LINE",
"273 13 LINE",
"157 13 LINE"
);
},
{
closed = 1;
nodes = (
"377 693 LINE",
"377 119 LINE",
"390 119 LINE",
"390 693 LINE"
);
},
{
closed = 1;
nodes = (
"263 9 LINE",
"273 0 LINE",
"390 119 LINE",
"381 128 LINE"
);
},
{
closed = 1;
nodes = (
"261 687 LINE",
"398 687 LINE",
"398 700 LINE",
"261 700 LINE"
);
},
{
closed = 1;
nodes = (
"390 687 LINE",
"506 687 LINE",
"506 700 LINE",
"390 700 LINE"
);
},
{
closed = 1;
nodes = (
"124 687 LINE",
"261 687 LINE",
"261 700 LINE",
"124 700 LINE"
);
}
);
width = 546;
},
{
layerId = "97FB2712-2ECD-43E8-8EDB-5EDF297461B7";
paths = (
{
closed = 0;
nodes = (
"392 700 LINE",
"392 687 LINE"
);
},
{
closed = 1;
nodes = (
"40 119 LINE",
"157 0 LINE",
"167 9 LINE",
"49 128 LINE"
);
},
{
closed = 1;
nodes = (
"157 0 LINE",
"273 0 LINE",
"273 13 LINE",
"157 13 LINE"
);
},
{
closed = 1;
nodes = (
"377 693 LINE",
"377 119 LINE",
"390 119 LINE",
"390 693 LINE"
);
},
{
closed = 1;
nodes = (
"263 9 LINE",
"273 0 LINE",
"390 119 LINE",
"381 128 LINE"
);
},
{
closed = 1;
nodes = (
"261 687 LINE",
"398 687 LINE",
"398 700 LINE",
"261 700 LINE"
);
},
{
closed = 1;
nodes = (
"390 687 LINE",
"506 687 LINE",
"506 700 LINE",
"390 700 LINE"
);
},
{
closed = 1;
nodes = (
"124 687 LINE",
"261 687 LINE",
"261 700 LINE",
"124 700 LINE"
);
}
);
width = 546;
}
);
unicode = 006A;
},
{
glyphname = k;
lastChange = "2021-04-14 02:44:46 +0000";
layers = (
{
layerId = "16A4F72C-6E52-4851-BC55-1EF2E1D4C4EC";
paths = (
{
closed = 0;
nodes = (
"158 700 LINE",
"158 687 LINE"
);
},
{
closed = 0;
nodes = (
"158 13 LINE",
"158 0 LINE"
);
},
{
closed = 1;
nodes = (
"502 700 LINE",
"487 700 LINE",
"265 361 LINE",
"274 352 LINE"
);
},
{
closed = 1;
nodes = (
"158 346 LINE",
"386 346 LINE",
"386 359 LINE",
"158 359 LINE"
);
},
{
closed = 1;
nodes = (
"377 350 LINE",
"487 0 LINE",
"502 0 LINE",
"386 359 LINE"
);
},
{
closed = 1;
nodes = (
"376 0 LINE",
"609 0 LINE",
"609 13 LINE",
"376 13 LINE"
);
},
{
closed = 1;
nodes = (
"40 0 LINE",
"273 0 LINE",
"273 13 LINE",
"40 13 LINE"
);
},
{
closed = 1;
nodes = (
"41 687 LINE",
"274 687 LINE",
"274 700 LINE",
"41 700 LINE"
);
},
{
closed = 1;
nodes = (
"372 687 LINE",
"605 687 LINE",
"605 700 LINE",
"372 700 LINE"
);
},
{
closed = 1;
nodes = (
"148 697 LINE",
"148 4 LINE",
"161 4 LINE",
"161 697 LINE"
);
}
);
width = 649;
},
{
layerId = "97FB2712-2ECD-43E8-8EDB-5EDF297461B7";
paths = (
{
closed = 0;
nodes = (
"158 700 LINE",
"158 687 LINE"
);
},
{
closed = 0;
nodes = (
"158 13 LINE",
"158 0 LINE"
);
},
{
closed = 1;
nodes = (
"502 700 LINE",
"487 700 LINE",
"265 361 LINE",
"274 352 LINE"
);
},
{
closed = 1;
nodes = (
"158 346 LINE",
"386 346 LINE",
"386 359 LINE",
"158 359 LINE"
);
},
{
closed = 1;
nodes = (
"377 350 LINE",
"487 0 LINE",
"502 0 LINE",
"386 359 LINE"
);
},
{
closed = 1;
nodes = (
"376 0 LINE",
"609 0 LINE",
"609 13 LINE",
"376 13 LINE"
);
},
{
closed = 1;
nodes = (
"40 0 LINE",
"273 0 LINE",
"273 13 LINE",
"40 13 LINE"
);
},
{
closed = 1;
nodes = (
"41 687 LINE",
"274 687 LINE",
"274 700 LINE",
"41 700 LINE"
);
},
{
closed = 1;
nodes = (
"372 687 LINE",
"605 687 LINE",
"605 700 LINE",
"372 700 LINE"
);
},
{
closed = 1;
nodes = (
"148 697 LINE",
"148 4 LINE",
"161 4 LINE",
"161 697 LINE"
);
}
);
width = 649;
}
);
unicode = 006B;
},
{
glyphname = l;
lastChange = "2021-04-14 02:46:40 +0000";
layers = (
{
layerId = "16A4F72C-6E52-4851-BC55-1EF2E1D4C4EC";
paths = (
{
closed = 0;
nodes = (
"168 700 LINE",
"168 687 LINE"
);
},
{
closed = 0;
nodes = (
"168 13 LINE",
"168 0 LINE"
);
},
{
closed = 1;
nodes = (
"518 117 LINE",
"508 126 LINE",
"392 9 LINE",
"401 0 LINE"
);
},
{
closed = 1;
nodes = (
"168 0 LINE",
"401 0 LINE",
"401 13 LINE",
"168 13 LINE"
);
},
{
closed = 1;
nodes = (
"50 687 LINE",
"283 687 LINE",
"283 700 LINE",
"50 700 LINE"
);
},
{
closed = 1;
nodes = (
"40 0 LINE",
"273 0 LINE",
"273 13 LINE",
"40 13 LINE"
);
},
{
closed = 1;
nodes = (
"161 689 LINE",
"161 6 LINE",
"174 6 LINE",
"174 689 LINE"
);
}
);
width = 558;
},
{
layerId = "97FB2712-2ECD-43E8-8EDB-5EDF297461B7";
paths = (
{
closed = 0;
nodes = (
"168 700 LINE",
"168 687 LINE"
);
},
{
closed = 0;
nodes = (
"168 13 LINE",
"168 0 LINE"
);
},
{
closed = 1;
nodes = (
"518 117 LINE",
"508 126 LINE",
"392 9 LINE",
"401 0 LINE"
);
},
{
closed = 1;
nodes = (
"168 0 LINE",
"401 0 LINE",
"401 13 LINE",
"168 13 LINE"
);
},
{
closed = 1;
nodes = (
"50 687 LINE",
"283 687 LINE",
"283 700 LINE",
"50 700 LINE"
);
},
{
closed = 1;
nodes = (
"40 0 LINE",
"273 0 LINE",
"273 13 LINE",
"40 13 LINE"
);
},
{
closed = 1;
nodes = (
"161 689 LINE",
"161 6 LINE",
"174 6 LINE",
"174 689 LINE"
);
}
);
width = 558;
}
);
unicode = 006C;
},
{
glyphname = m;
lastChange = "2021-04-14 02:47:43 +0000";
layers = (
{
layerId = "16A4F72C-6E52-4851-BC55-1EF2E1D4C4EC";
paths = (
{
closed = 1;
nodes = (
"394 0 LINE",
"394 584 LINE",
"381 584 LINE",
"381 0 LINE"
);
},
{
closed = 1;
nodes = (
"387 571 LINE",
"394 582 LINE",
"274 700 LINE",
"264 691 LINE"
);
},
{
closed = 1;
nodes = (
"274 700 LINE",
"158 700 LINE",
"158 687 LINE",
"274 687 LINE"
);
},
{
closed = 1;
nodes = (
"624 0 LINE",
"624 700 LINE",
"611 700 LINE",
"611 0 LINE"
);
},
{
closed = 1;
nodes = (
"501 700 LINE",
"381 582 LINE",
"388 571 LINE",
"511 691 LINE"
);
},
{
closed = 1;
nodes = (
"617 700 LINE",
"501 700 LINE",
"501 687 LINE",
"617 687 LINE"
);
},
{
closed = 1;
nodes = (
"501 0 LINE",
"734 0 LINE",
"734 13 LINE",
"501 13 LINE"
);
},
{
closed = 1;
nodes = (
"40 0 LINE",
"273 0 LINE",
"273 13 LINE",
"40 13 LINE"
);
},
{
closed = 1;
nodes = (
"161 0 LINE",
"161 700 LINE",
"148 700 LINE",
"148 0 LINE"
);
}
);
width = 774;
},
{
layerId = "97FB2712-2ECD-43E8-8EDB-5EDF297461B7";
paths = (
{
closed = 1;
nodes = (
"394 0 LINE",
"394 584 LINE",
"381 584 LINE",
"381 0 LINE"
);
},
{
closed = 1;
nodes = (
"387 571 LINE",
"394 582 LINE",
"274 700 LINE",
"264 691 LINE"
);
},
{
closed = 1;
nodes = (
"274 700 LINE",
"158 700 LINE",
"158 687 LINE",
"274 687 LINE"
);
},
{
closed = 1;
nodes = (
"624 0 LINE",
"624 700 LINE",
"611 700 LINE",
"611 0 LINE"
);
},
{
closed = 1;
nodes = (
"501 700 LINE",
"381 582 LINE",
"388 571 LINE",
"511 691 LINE"
);
},
{
closed = 1;
nodes = (
"617 700 LINE",
"501 700 LINE",
"501 687 LINE",
"617 687 LINE"
);
},
{
closed = 1;
nodes = (
"501 0 LINE",
"734 0 LINE",
"734 13 LINE",
"501 13 LINE"
);
},
{
closed = 1;
nodes = (
"40 0 LINE",
"273 0 LINE",
"273 13 LINE",
"40 13 LINE"
);
},
{
closed = 1;
nodes = (
"161 0 LINE",
"161 700 LINE",
"148 700 LINE",
"148 0 LINE"
);
}
);
width = 774;
}
);
unicode = 006D;
},
{
glyphname = n;
lastChange = "2021-04-14 02:49:49 +0000";
layers = (
{
layerId = "16A4F72C-6E52-4851-BC55-1EF2E1D4C4EC";
paths = (
{
closed = 1;
nodes = (
"497 0 LINE",
"497 700 LINE",
"484 700 LINE",
"484 0 LINE"
);
},
{
closed = 1;
nodes = (
"374 700 LINE",
"153 483 LINE",
"160 472 LINE",
"384 691 LINE"
);
},
{
closed = 1;
nodes = (
"490 700 LINE",
"374 700 LINE",
"374 687 LINE",
"490 687 LINE"
);
},
{
closed = 1;
nodes = (
"374 0 LINE",
"607 0 LINE",
"607 13 LINE",
"374 13 LINE"
);
},
{
closed = 1;
nodes = (
"40 0 LINE",
"273 0 LINE",
"273 13 LINE",
"40 13 LINE"
);
},
{
closed = 1;
nodes = (
"40 687 LINE",
"273 687 LINE",
"273 700 LINE",
"40 700 LINE"
);
},
{
closed = 1;
nodes = (
"164 0 LINE",
"164 700 LINE",
"151 700 LINE",
"151 0 LINE"
);
}
);
width = 647;
},
{
layerId = "97FB2712-2ECD-43E8-8EDB-5EDF297461B7";
paths = (
{
closed = 1;
nodes = (
"497 0 LINE",
"497 700 LINE",
"484 700 LINE",
"484 0 LINE"
);
},
{
closed = 1;
nodes = (
"374 700 LINE",
"153 483 LINE",
"160 472 LINE",
"384 691 LINE"
);
},
{
closed = 1;
nodes = (
"490 700 LINE",
"374 700 LINE",
"374 687 LINE",
"490 687 LINE"
);
},
{
closed = 1;
nodes = (
"374 0 LINE",
"607 0 LINE",
"607 13 LINE",
"374 13 LINE"
);
},
{
closed = 1;
nodes = (
"40 0 LINE",
"273 0 LINE",
"273 13 LINE",
"40 13 LINE"
);
},
{
closed = 1;
nodes = (
"40 687 LINE",
"273 687 LINE",
"273 700 LINE",
"40 700 LINE"
);
},
{
closed = 1;
nodes = (
"164 0 LINE",
"164 700 LINE",
"151 700 LINE",
"151 0 LINE"
);
}
);
width = 647;
}
);
unicode = 006E;
},
{
glyphname = o;
lastChange = "2021-04-14 02:53:24 +0000";
layers = (
{
layerId = "16A4F72C-6E52-4851-BC55-1EF2E1D4C4EC";
paths = (
{
closed = 0;
nodes = (
"47 590 LINE",
"47 577 LINE"
);
},
{
closed = 0;
nodes = (
"271 13 LINE",
"271 0 LINE"
);
},
{
closed = 1;
nodes = (
"157 687 LINE",
"390 687 LINE",
"390 700 LINE",
"157 700 LINE"
);
},
{
closed = 1;
nodes = (
"381 691 LINE",
"497 574 LINE",
"507 583 LINE",
"390 700 LINE"
);
},
{
closed = 1;
nodes = (
"40 583 LINE",
"50 574 LINE",
"166 691 LINE",
"157 700 LINE"
);
},
{
closed = 1;
nodes = (
"41 119 LINE",
"158 0 LINE",
"168 9 LINE",
"50 128 LINE"
);
},
{
closed = 1;
nodes = (
"507 117 LINE",
"497 126 LINE",
"381 9 LINE",
"390 0 LINE"
);
},
{
closed = 1;
nodes = (
"158 0 LINE",
"391 0 LINE",
"391 13 LINE",
"158 13 LINE"
);
},
{
closed = 0;
nodes = (
"502 590 LINE",
"502 577 LINE"
);
},
{
closed = 1;
nodes = (
"54 584 LINE",
"40 584 LINE",
"41 119 LINE",
"54 119 LINE"
);
},
{
closed = 1;
nodes = (
"507 583 LINE",
"493 583 LINE",
"494 117 LINE",
"507 117 LINE"
);
}
);
width = 547;
},
{
layerId = "97FB2712-2ECD-43E8-8EDB-5EDF297461B7";
paths = (
{
closed = 0;
nodes = (
"47 590 LINE",
"47 577 LINE"
);
},
{
closed = 0;
nodes = (
"271 13 LINE",
"271 0 LINE"
);
},
{
closed = 1;
nodes = (
"157 687 LINE",
"390 687 LINE",
"390 700 LINE",
"157 700 LINE"
);
},
{
closed = 1;
nodes = (
"381 691 LINE",
"497 574 LINE",
"507 583 LINE",
"390 700 LINE"
);
},
{
closed = 1;
nodes = (
"40 583 LINE",
"50 574 LINE",
"166 691 LINE",
"157 700 LINE"
);
},
{
closed = 1;
nodes = (
"41 119 LINE",
"158 0 LINE",
"168 9 LINE",
"50 128 LINE"
);
},
{
closed = 1;
nodes = (
"507 117 LINE",
"497 126 LINE",
"381 9 LINE",
"390 0 LINE"
);
},
{
closed = 1;
nodes = (
"158 0 LINE",
"391 0 LINE",
"391 13 LINE",
"158 13 LINE"
);
},
{
closed = 0;
nodes = (
"502 590 LINE",
"502 577 LINE"
);
},
{
closed = 1;
nodes = (
"54 584 LINE",
"40 584 LINE",
"41 119 LINE",
"54 119 LINE"
);
},
{
closed = 1;
nodes = (
"507 583 LINE",
"493 583 LINE",
"494 117 LINE",
"507 117 LINE"
);
}
);
width = 488;
}
);
unicode = 006F;
},
{
glyphname = p;
lastChange = "2021-04-14 02:54:51 +0000";
layers = (
{
layerId = "16A4F72C-6E52-4851-BC55-1EF2E1D4C4EC";
paths = (
{
closed = 0;
nodes = (
"157 700 LINE",
"157 687 LINE"
);
},
{
closed = 0;
nodes = (
"157 13 LINE",
"157 0 LINE"
);
},
{
closed = 1;
nodes = (
"381 691 LINE",
"497 574 LINE",
"507 583 LINE",
"390 700 LINE"
);
},
{
closed = 1;
nodes = (
"390 687 LINE",
"390 700 LINE",
"157 700 LINE",
"157 687 LINE"
);
},
{
closed = 1;
nodes = (
"507 346 LINE",
"507 359 LINE",
"161 359 LINE",
"161 346 LINE"
);
},
{
closed = 1;
nodes = (
"494 350 LINE",
"507 350 LINE",
"507 583 LINE",
"494 583 LINE"
);
},
{
closed = 1;
nodes = (
"40 0 LINE",
"273 0 LINE",
"273 13 LINE",
"40 13 LINE"
);
},
{
closed = 1;
nodes = (
"40 687 LINE",
"273 687 LINE",
"273 700 LINE",
"40 700 LINE"
);
},
{
closed = 1;
nodes = (
"151 7 LINE",
"164 7 LINE",
"164 688 LINE",
"151 688 LINE"
);
}
);
width = 547;
},
{
layerId = "97FB2712-2ECD-43E8-8EDB-5EDF297461B7";
paths = (
{
closed = 0;
nodes = (
"157 700 LINE",
"157 687 LINE"
);
},
{
closed = 0;
nodes = (
"157 13 LINE",
"157 0 LINE"
);
},
{
closed = 1;
nodes = (
"381 691 LINE",
"497 574 LINE",
"507 583 LINE",
"390 700 LINE"
);
},
{
closed = 1;
nodes = (
"390 687 LINE",
"390 700 LINE",
"157 700 LINE",
"157 687 LINE"
);
},
{
closed = 1;
nodes = (
"507 346 LINE",
"507 359 LINE",
"161 359 LINE",
"161 346 LINE"
);
},
{
closed = 1;
nodes = (
"494 350 LINE",
"507 350 LINE",
"507 583 LINE",
"494 583 LINE"
);
},
{
closed = 1;
nodes = (
"40 0 LINE",
"273 0 LINE",
"273 13 LINE",
"40 13 LINE"
);
},
{
closed = 1;
nodes = (
"40 687 LINE",
"273 687 LINE",
"273 700 LINE",
"40 700 LINE"
);
},
{
closed = 1;
nodes = (
"151 7 LINE",
"164 7 LINE",
"164 688 LINE",
"151 688 LINE"
);
}
);
width = 547;
}
);
unicode = 0070;
},
{
glyphname = q;
lastChange = "2021-04-14 02:57:17 +0000";
layers = (
{
layerId = "16A4F72C-6E52-4851-BC55-1EF2E1D4C4EC";
paths = (
{
closed = 0;
nodes = (
"47 590 LINE",
"47 577 LINE"
);
},
{
closed = 0;
nodes = (
"271 13 LINE",
"271 0 LINE"
);
},
{
closed = 1;
nodes = (
"157 687 LINE",
"390 687 LINE",
"390 700 LINE",
"157 700 LINE"
);
},
{
closed = 1;
nodes = (
"381 691 LINE",
"497 574 LINE",
"507 583 LINE",
"390 700 LINE"
);
},
{
closed = 1;
nodes = (
"40 583 LINE",
"50 574 LINE",
"166 691 LINE",
"157 700 LINE"
);
},
{
closed = 1;
nodes = (
"41 119 LINE",
"158 0 LINE",
"168 9 LINE",
"50 128 LINE"
);
},
{
closed = 1;
nodes = (
"507 117 LINE",
"497 126 LINE",
"381 9 LINE",
"390 0 LINE"
);
},
{
closed = 1;
nodes = (
"158 0 LINE",
"391 0 LINE",
"391 13 LINE",
"158 13 LINE"
);
},
{
closed = 0;
nodes = (
"502 590 LINE",
"502 577 LINE"
);
},
{
closed = 1;
nodes = (
"391 0 LINE",
"624 0 LINE",
"624 13 LINE",
"391 13 LINE"
);
},
{
closed = 1;
nodes = (
"54 584 LINE",
"40 584 LINE",
"41 119 LINE",
"54 119 LINE"
);
},
{
closed = 1;
nodes = (
"507 583 LINE",
"493 583 LINE",
"494 117 LINE",
"507 117 LINE"
);
}
);
width = 663;
},
{
layerId = "97FB2712-2ECD-43E8-8EDB-5EDF297461B7";
paths = (
{
closed = 0;
nodes = (
"47 590 LINE",
"47 577 LINE"
);
},
{
closed = 0;
nodes = (
"271 13 LINE",
"271 0 LINE"
);
},
{
closed = 1;
nodes = (
"157 687 LINE",
"390 687 LINE",
"390 700 LINE",
"157 700 LINE"
);
},
{
closed = 1;
nodes = (
"381 691 LINE",
"497 574 LINE",
"507 583 LINE",
"390 700 LINE"
);
},
{
closed = 1;
nodes = (
"40 583 LINE",
"50 574 LINE",
"166 691 LINE",
"157 700 LINE"
);
},
{
closed = 1;
nodes = (
"41 119 LINE",
"158 0 LINE",
"168 9 LINE",
"50 128 LINE"
);
},
{
closed = 1;
nodes = (
"507 117 LINE",
"497 126 LINE",
"381 9 LINE",
"390 0 LINE"
);
},
{
closed = 1;
nodes = (
"158 0 LINE",
"391 0 LINE",
"391 13 LINE",
"158 13 LINE"
);
},
{
closed = 0;
nodes = (
"502 590 LINE",
"502 577 LINE"
);
},
{
closed = 1;
nodes = (
"391 0 LINE",
"624 0 LINE",
"624 13 LINE",
"391 13 LINE"
);
},
{
closed = 1;
nodes = (
"54 584 LINE",
"40 584 LINE",
"41 119 LINE",
"54 119 LINE"
);
},
{
closed = 1;
nodes = (
"507 583 LINE",
"493 583 LINE",
"494 117 LINE",
"507 117 LINE"
);
}
);
width = 664;
}
);
unicode = 0071;
},
{
glyphname = r;
lastChange = "2021-04-14 02:59:09 +0000";
layers = (
{
layerId = "16A4F72C-6E52-4851-BC55-1EF2E1D4C4EC";
paths = (
{
closed = 0;
nodes = (
"158 700 LINE",
"158 687 LINE"
);
},
{
closed = 0;
nodes = (
"158 13 LINE",
"158 0 LINE"
);
},
{
closed = 1;
nodes = (
"382 691 LINE",
"498 574 LINE",
"508 583 LINE",
"391 700 LINE"
);
},
{
closed = 1;
nodes = (
"391 687 LINE",
"391 700 LINE",
"158 700 LINE",
"158 687 LINE"
);
},
{
closed = 1;
nodes = (
"508 346 LINE",
"508 359 LINE",
"265 359 LINE",
"265 346 LINE"
);
},
{
closed = 1;
nodes = (
"495 350 LINE",
"508 350 LINE",
"508 583 LINE",
"495 583 LINE"
);
},
{
closed = 1;
nodes = (
"158 346 LINE",
"386 346 LINE",
"386 359 LINE",
"158 359 LINE"
);
},
{
closed = 1;
nodes = (
"377 350 LINE",
"487 0 LINE",
"502 0 LINE",
"386 359 LINE"
);
},
{
closed = 1;
nodes = (
"376 0 LINE",
"609 0 LINE",
"609 13 LINE",
"376 13 LINE"
);
},
{
closed = 1;
nodes = (
"40 0 LINE",
"273 0 LINE",
"273 13 LINE",
"40 13 LINE"
);
},
{
closed = 1;
nodes = (
"41 687 LINE",
"274 687 LINE",
"274 700 LINE",
"41 700 LINE"
);
},
{
closed = 1;
nodes = (
"151 689 LINE",
"151 11 LINE",
"164 11 LINE",
"164 689 LINE"
);
}
);
width = 649;
},
{
layerId = "97FB2712-2ECD-43E8-8EDB-5EDF297461B7";
paths = (
{
closed = 0;
nodes = (
"158 700 LINE",
"158 687 LINE"
);
},
{
closed = 0;
nodes = (
"158 13 LINE",
"158 0 LINE"
);
},
{
closed = 1;
nodes = (
"382 691 LINE",
"498 574 LINE",
"508 583 LINE",
"391 700 LINE"
);
},
{
closed = 1;
nodes = (
"391 687 LINE",
"391 700 LINE",
"158 700 LINE",
"158 687 LINE"
);
},
{
closed = 1;
nodes = (
"508 346 LINE",
"508 359 LINE",
"265 359 LINE",
"265 346 LINE"
);
},
{
closed = 1;
nodes = (
"495 350 LINE",
"508 350 LINE",
"508 583 LINE",
"495 583 LINE"
);
},
{
closed = 1;
nodes = (
"158 346 LINE",
"386 346 LINE",
"386 359 LINE",
"158 359 LINE"
);
},
{
closed = 1;
nodes = (
"377 350 LINE",
"487 0 LINE",
"502 0 LINE",
"386 359 LINE"
);
},
{
closed = 1;
nodes = (
"376 0 LINE",
"609 0 LINE",
"609 13 LINE",
"376 13 LINE"
);
},
{
closed = 1;
nodes = (
"40 0 LINE",
"273 0 LINE",
"273 13 LINE",
"40 13 LINE"
);
},
{
closed = 1;
nodes = (
"41 687 LINE",
"274 687 LINE",
"274 700 LINE",
"41 700 LINE"
);
},
{
closed = 1;
nodes = (
"151 689 LINE",
"151 11 LINE",
"164 11 LINE",
"164 689 LINE"
);
}
);
width = 649;
}
);
unicode = 0072;
},
{
glyphname = s;
lastChange = "2021-04-14 03:00:48 +0000";
layers = (
{
layerId = "16A4F72C-6E52-4851-BC55-1EF2E1D4C4EC";
paths = (
{
closed = 1;
nodes = (
"160 687 LINE",
"393 687 LINE",
"393 700 LINE",
"160 700 LINE"
);
},
{
closed = 1;
nodes = (
"384 691 LINE",
"500 574 LINE",
"510 583 LINE",
"393 700 LINE"
);
},
{
closed = 1;
nodes = (
"43 583 LINE",
"51 572 LINE",
"169 691 LINE",
"160 700 LINE"
);
},
{
closed = 1;
nodes = (
"510 463 LINE",
"510 583 LINE",
"497 583 LINE",
"497 463 LINE"
);
},
{
closed = 1;
nodes = (
"390 5 LINE",
"157 5 LINE",
"157 -8 LINE",
"390 -8 LINE"
);
},
{
closed = 1;
nodes = (
"166 1 LINE",
"50 118 LINE",
"40 109 LINE",
"157 -8 LINE"
);
},
{
closed = 1;
nodes = (
"508 128 LINE",
"499 138 LINE",
"381 1 LINE",
"390 -8 LINE"
);
},
{
closed = 1;
nodes = (
"40 229 LINE",
"40 109 LINE",
"53 109 LINE",
"53 229 LINE"
);
},
{
closed = 1;
nodes = (
"56 463 LINE",
"56 583 LINE",
"43 583 LINE",
"43 463 LINE"
);
},
{
closed = 1;
nodes = (
"177 355 LINE",
"51 474 LINE",
"43 463 LINE",
"168 346 LINE"
);
},
{
closed = 1;
nodes = (
"495 248 LINE",
"495 128 LINE",
"508 128 LINE",
"508 248 LINE"
);
},
{
closed = 1;
nodes = (
"381 350 LINE",
"500 237 LINE",
"508 248 LINE",
"390 359 LINE"
);
},
{
closed = 1;
nodes = (
"168 346 LINE",
"390 346 LINE",
"390 359 LINE",
"168 359 LINE"
);
}
);
width = 550;
},
{
layerId = "97FB2712-2ECD-43E8-8EDB-5EDF297461B7";
paths = (
{
closed = 1;
nodes = (
"160 687 LINE",
"393 687 LINE",
"393 700 LINE",
"160 700 LINE"
);
},
{
closed = 1;
nodes = (
"384 691 LINE",
"500 574 LINE",
"510 583 LINE",
"393 700 LINE"
);
},
{
closed = 1;
nodes = (
"43 583 LINE",
"51 572 LINE",
"169 691 LINE",
"160 700 LINE"
);
},
{
closed = 1;
nodes = (
"510 463 LINE",
"510 583 LINE",
"497 583 LINE",
"497 463 LINE"
);
},
{
closed = 1;
nodes = (
"390 5 LINE",
"157 5 LINE",
"157 -8 LINE",
"390 -8 LINE"
);
},
{
closed = 1;
nodes = (
"166 1 LINE",
"50 118 LINE",
"40 109 LINE",
"157 -8 LINE"
);
},
{
closed = 1;
nodes = (
"508 128 LINE",
"499 138 LINE",
"381 1 LINE",
"390 -8 LINE"
);
},
{
closed = 1;
nodes = (
"40 229 LINE",
"40 109 LINE",
"53 109 LINE",
"53 229 LINE"
);
},
{
closed = 1;
nodes = (
"56 463 LINE",
"56 583 LINE",
"43 583 LINE",
"43 463 LINE"
);
},
{
closed = 1;
nodes = (
"177 355 LINE",
"51 474 LINE",
"43 463 LINE",
"168 346 LINE"
);
},
{
closed = 1;
nodes = (
"495 248 LINE",
"495 128 LINE",
"508 128 LINE",
"508 248 LINE"
);
},
{
closed = 1;
nodes = (
"381 350 LINE",
"500 237 LINE",
"508 248 LINE",
"390 359 LINE"
);
},
{
closed = 1;
nodes = (
"168 346 LINE",
"390 346 LINE",
"390 359 LINE",
"168 359 LINE"
);
}
);
width = 550;
}
);
unicode = 0073;
},
{
glyphname = t;
lastChange = "2021-04-14 03:01:46 +0000";
layers = (
{
layerId = "16A4F72C-6E52-4851-BC55-1EF2E1D4C4EC";
paths = (
{
closed = 0;
nodes = (
"271 700 LINE",
"271 687 LINE"
);
},
{
closed = 0;
nodes = (
"271 13 LINE",
"271 0 LINE"
);
},
{
closed = 1;
nodes = (
"157 687 LINE",
"390 687 LINE",
"390 700 LINE",
"157 700 LINE"
);
},
{
closed = 1;
nodes = (
"381 691 LINE",
"497 574 LINE",
"507 583 LINE",
"390 700 LINE"
);
},
{
closed = 1;
nodes = (
"40 583 LINE",
"50 574 LINE",
"166 691 LINE",
"157 700 LINE"
);
},
{
closed = 1;
nodes = (
"157 0 LINE",
"390 0 LINE",
"390 13 LINE",
"157 13 LINE"
);
},
{
closed = 1;
nodes = (
"264 690 LINE",
"264 7 LINE",
"277 7 LINE",
"277 690 LINE"
);
}
);
width = 547;
},
{
layerId = "97FB2712-2ECD-43E8-8EDB-5EDF297461B7";
paths = (
{
closed = 0;
nodes = (
"271 700 LINE",
"271 687 LINE"
);
},
{
closed = 0;
nodes = (
"271 13 LINE",
"271 0 LINE"
);
},
{
closed = 1;
nodes = (
"157 687 LINE",
"390 687 LINE",
"390 700 LINE",
"157 700 LINE"
);
},
{
closed = 1;
nodes = (
"381 691 LINE",
"497 574 LINE",
"507 583 LINE",
"390 700 LINE"
);
},
{
closed = 1;
nodes = (
"40 583 LINE",
"50 574 LINE",
"166 691 LINE",
"157 700 LINE"
);
},
{
closed = 1;
nodes = (
"157 0 LINE",
"390 0 LINE",
"390 13 LINE",
"157 13 LINE"
);
},
{
closed = 1;
nodes = (
"264 690 LINE",
"264 7 LINE",
"277 7 LINE",
"277 690 LINE"
);
}
);
width = 547;
}
);
unicode = 0074;
},
{
glyphname = u;
lastChange = "2021-04-15 23:22:23 +0000";
layers = (
{
layerId = "16A4F72C-6E52-4851-BC55-1EF2E1D4C4EC";
paths = (
{
closed = 1;
nodes = (
"150 119 LINE",
"267 0 LINE",
"277 9 LINE",
"159 128 LINE"
);
},
{
closed = 1;
nodes = (
"617 117 LINE",
"607 126 LINE",
"491 9 LINE",
"500 0 LINE"
);
},
{
closed = 1;
nodes = (
"267 0 LINE",
"500 0 LINE",
"500 13 LINE",
"267 13 LINE"
);
},
{
closed = 1;
nodes = (
"157 688 LINE",
"151 695 LINE",
"150 119 LINE",
"163 118 LINE",
"164 696 LINE"
);
},
{
closed = 1;
nodes = (
"611 687 LINE",
"605 694 LINE",
"604 118 LINE",
"617 117 LINE",
"618 695 LINE"
);
},
{
closed = 1;
nodes = (
"40 687 LINE",
"273 687 LINE",
"273 700 LINE",
"40 700 LINE"
);
},
{
closed = 1;
nodes = (
"495 687 LINE",
"728 687 LINE",
"728 700 LINE",
"495 700 LINE"
);
}
);
width = 768;
},
{
layerId = "97FB2712-2ECD-43E8-8EDB-5EDF297461B7";
paths = (
{
closed = 1;
nodes = (
"150 119 LINE",
"267 0 LINE",
"277 9 LINE",
"159 128 LINE"
);
},
{
closed = 1;
nodes = (
"617 117 LINE",
"607 126 LINE",
"491 9 LINE",
"500 0 LINE"
);
},
{
closed = 1;
nodes = (
"267 0 LINE",
"500 0 LINE",
"500 13 LINE",
"267 13 LINE"
);
},
{
closed = 1;
nodes = (
"157 688 LINE",
"151 695 LINE",
"150 119 LINE",
"163 118 LINE",
"164 696 LINE"
);
},
{
closed = 1;
nodes = (
"611 687 LINE",
"605 694 LINE",
"604 118 LINE",
"617 117 LINE",
"618 695 LINE"
);
},
{
closed = 1;
nodes = (
"40 687 LINE",
"273 687 LINE",
"273 700 LINE",
"40 700 LINE"
);
},
{
closed = 1;
nodes = (
"495 687 LINE",
"728 687 LINE",
"728 700 LINE",
"495 700 LINE"
);
}
);
width = 768;
}
);
unicode = 0075;
},
{
glyphname = v;
lastChange = "2021-04-15 23:23:42 +0000";
layers = (
{
layerId = "16A4F72C-6E52-4851-BC55-1EF2E1D4C4EC";
paths = (
{
closed = 1;
nodes = (
"376 0 LINE",
"385 9 LINE",
"166 238 LINE",
"157 228 LINE"
);
},
{
closed = 1;
nodes = (
"40 687 LINE",
"273 687 LINE",
"273 700 LINE",
"40 700 LINE"
);
},
{
closed = 1;
nodes = (
"495 687 LINE",
"728 687 LINE",
"728 700 LINE",
"495 700 LINE"
);
},
{
closed = 1;
nodes = (
"157 691 LINE",
"157 228 LINE",
"170 228 LINE",
"170 691 LINE"
);
},
{
closed = 1;
nodes = (
"598 691 LINE",
"598 228 LINE",
"611 228 LINE",
"611 691 LINE"
);
},
{
closed = 1;
nodes = (
"602 238 LINE",
"383 9 LINE",
"392 0 LINE",
"611 228 LINE"
);
},
{
closed = 1;
nodes = (
"376 0 LINE",
"392 0 LINE",
"392 10 LINE",
"376 10 LINE"
);
}
);
width = 768;
},
{
layerId = "97FB2712-2ECD-43E8-8EDB-5EDF297461B7";
paths = (
{
closed = 1;
nodes = (
"376 0 LINE",
"385 9 LINE",
"166 238 LINE",
"157 228 LINE"
);
},
{
closed = 1;
nodes = (
"40 687 LINE",
"273 687 LINE",
"273 700 LINE",
"40 700 LINE"
);
},
{
closed = 1;
nodes = (
"495 687 LINE",
"728 687 LINE",
"728 700 LINE",
"495 700 LINE"
);
},
{
closed = 1;
nodes = (
"157 691 LINE",
"157 228 LINE",
"170 228 LINE",
"170 691 LINE"
);
},
{
closed = 1;
nodes = (
"598 691 LINE",
"598 228 LINE",
"611 228 LINE",
"611 691 LINE"
);
},
{
closed = 1;
nodes = (
"602 238 LINE",
"383 9 LINE",
"392 0 LINE",
"611 228 LINE"
);
},
{
closed = 1;
nodes = (
"376 0 LINE",
"392 0 LINE",
"392 10 LINE",
"376 10 LINE"
);
}
);
width = 768;
}
);
unicode = 0076;
},
{
glyphname = w;
lastChange = "2021-04-14 03:08:26 +0000";
layers = (
{
layerId = "16A4F72C-6E52-4851-BC55-1EF2E1D4C4EC";
paths = (
{
closed = 1;
nodes = (
"382 116 LINE",
"395 116 LINE",
"395 700 LINE",
"382 700 LINE"
);
},
{
closed = 1;
nodes = (
"275 0 LINE",
"395 118 LINE",
"388 129 LINE",
"265 9 LINE"
);
},
{
closed = 1;
nodes = (
"159 13 LINE",
"159 0 LINE",
"275 0 LINE",
"275 13 LINE"
);
},
{
closed = 1;
nodes = (
"612 0 LINE",
"625 0 LINE",
"625 700 LINE",
"612 700 LINE"
);
},
{
closed = 1;
nodes = (
"389 129 LINE",
"382 118 LINE",
"502 0 LINE",
"512 9 LINE"
);
},
{
closed = 1;
nodes = (
"502 13 LINE",
"502 0 LINE",
"618 0 LINE",
"618 13 LINE"
);
},
{
closed = 1;
nodes = (
"502 687 LINE",
"735 687 LINE",
"735 700 LINE",
"502 700 LINE"
);
},
{
closed = 1;
nodes = (
"42 687 LINE",
"275 687 LINE",
"275 700 LINE",
"42 700 LINE"
);
},
{
closed = 1;
nodes = (
"152 0 LINE",
"165 0 LINE",
"165 700 LINE",
"152 700 LINE"
);
}
);
width = 775;
},
{
layerId = "97FB2712-2ECD-43E8-8EDB-5EDF297461B7";
paths = (
{
closed = 1;
nodes = (
"380 116 LINE",
"393 116 LINE",
"393 700 LINE",
"380 700 LINE"
);
},
{
closed = 1;
nodes = (
"273 0 LINE",
"393 118 LINE",
"386 129 LINE",
"263 9 LINE"
);
},
{
closed = 1;
nodes = (
"157 13 LINE",
"157 0 LINE",
"273 0 LINE",
"273 13 LINE"
);
},
{
closed = 1;
nodes = (
"610 0 LINE",
"623 0 LINE",
"623 700 LINE",
"610 700 LINE"
);
},
{
closed = 1;
nodes = (
"387 129 LINE",
"380 118 LINE",
"500 0 LINE",
"510 9 LINE"
);
},
{
closed = 1;
nodes = (
"500 13 LINE",
"500 0 LINE",
"616 0 LINE",
"616 13 LINE"
);
},
{
closed = 1;
nodes = (
"500 687 LINE",
"733 687 LINE",
"733 700 LINE",
"500 700 LINE"
);
},
{
closed = 1;
nodes = (
"40 687 LINE",
"273 687 LINE",
"273 700 LINE",
"40 700 LINE"
);
},
{
closed = 1;
nodes = (
"150 0 LINE",
"163 0 LINE",
"163 700 LINE",
"150 700 LINE"
);
}
);
width = 773;
}
);
unicode = 0077;
},
{
glyphname = x;
lastChange = "2021-04-14 03:11:50 +0000";
layers = (
{
layerId = "16A4F72C-6E52-4851-BC55-1EF2E1D4C4EC";
paths = (
{
closed = 1;
nodes = (
"607 700 LINE",
"607 468 LINE",
"620 468 LINE",
"620 700 LINE"
);
},
{
closed = 1;
nodes = (
"610 477 LINE",
"484 351 LINE",
"493 342 LINE",
"620 468 LINE"
);
},
{
closed = 1;
nodes = (
"150 468 LINE",
"163 468 LINE",
"163 700 LINE",
"150 700 LINE"
);
},
{
closed = 1;
nodes = (
"278 341 LINE",
"287 350 LINE",
"160 478 LINE",
"150 469 LINE"
);
},
{
closed = 1;
nodes = (
"621 233 LINE",
"608 233 LINE",
"608 0 LINE",
"621 0 LINE"
);
},
{
closed = 1;
nodes = (
"493 360 LINE",
"484 351 LINE",
"611 224 LINE",
"621 233 LINE"
);
},
{
closed = 1;
nodes = (
"164 0 LINE",
"164 233 LINE",
"151 233 LINE",
"151 0 LINE"
);
},
{
closed = 1;
nodes = (
"161 224 LINE",
"287 350 LINE",
"278 359 LINE",
"151 233 LINE"
);
},
{
closed = 1;
nodes = (
"41 0 LINE",
"274 0 LINE",
"274 13 LINE",
"41 13 LINE"
);
},
{
closed = 1;
nodes = (
"498 0 LINE",
"731 0 LINE",
"731 13 LINE",
"498 13 LINE"
);
},
{
closed = 1;
nodes = (
"40 687 LINE",
"273 687 LINE",
"273 700 LINE",
"40 700 LINE"
);
},
{
closed = 1;
nodes = (
"497 687 LINE",
"730 687 LINE",
"730 700 LINE",
"497 700 LINE"
);
},
{
closed = 1;
nodes = (
"278 347 LINE",
"493 347 LINE",
"493 360 LINE",
"278 360 LINE"
);
}
);
width = 771;
},
{
layerId = "97FB2712-2ECD-43E8-8EDB-5EDF297461B7";
paths = (
{
closed = 1;
nodes = (
"607 700 LINE",
"607 468 LINE",
"620 468 LINE",
"620 700 LINE"
);
},
{
closed = 1;
nodes = (
"610 477 LINE",
"484 351 LINE",
"493 342 LINE",
"620 468 LINE"
);
},
{
closed = 1;
nodes = (
"150 468 LINE",
"163 468 LINE",
"163 700 LINE",
"150 700 LINE"
);
},
{
closed = 1;
nodes = (
"278 341 LINE",
"287 350 LINE",
"160 478 LINE",
"150 469 LINE"
);
},
{
closed = 1;
nodes = (
"621 233 LINE",
"608 233 LINE",
"608 0 LINE",
"621 0 LINE"
);
},
{
closed = 1;
nodes = (
"493 360 LINE",
"484 351 LINE",
"611 224 LINE",
"621 233 LINE"
);
},
{
closed = 1;
nodes = (
"164 0 LINE",
"164 233 LINE",
"151 233 LINE",
"151 0 LINE"
);
},
{
closed = 1;
nodes = (
"161 224 LINE",
"287 350 LINE",
"278 359 LINE",
"151 233 LINE"
);
},
{
closed = 1;
nodes = (
"41 0 LINE",
"274 0 LINE",
"274 13 LINE",
"41 13 LINE"
);
},
{
closed = 1;
nodes = (
"498 0 LINE",
"731 0 LINE",
"731 13 LINE",
"498 13 LINE"
);
},
{
closed = 1;
nodes = (
"40 687 LINE",
"273 687 LINE",
"273 700 LINE",
"40 700 LINE"
);
},
{
closed = 1;
nodes = (
"497 687 LINE",
"730 687 LINE",
"730 700 LINE",
"497 700 LINE"
);
},
{
closed = 1;
nodes = (
"278 347 LINE",
"493 347 LINE",
"493 360 LINE",
"278 360 LINE"
);
}
);
width = 771;
}
);
unicode = 0078;
},
{
glyphname = y;
lastChange = "2021-04-14 03:13:18 +0000";
layers = (
{
layerId = "16A4F72C-6E52-4851-BC55-1EF2E1D4C4EC";
paths = (
{
closed = 0;
nodes = (
"386 13 LINE",
"386 0 LINE"
);
},
{
closed = 1;
nodes = (
"607 700 LINE",
"607 468 LINE",
"620 468 LINE",
"620 700 LINE"
);
},
{
closed = 1;
nodes = (
"610 477 LINE",
"380 247 LINE",
"389 238 LINE",
"620 468 LINE"
);
},
{
closed = 1;
nodes = (
"150 468 LINE",
"163 468 LINE",
"163 700 LINE",
"150 700 LINE"
);
},
{
closed = 1;
nodes = (
"381 238 LINE",
"390 247 LINE",
"160 477 LINE",
"150 468 LINE"
);
},
{
closed = 1;
nodes = (
"269 0 LINE",
"502 0 LINE",
"502 13 LINE",
"269 13 LINE"
);
},
{
closed = 1;
nodes = (
"40 687 LINE",
"273 687 LINE",
"273 700 LINE",
"40 700 LINE"
);
},
{
closed = 1;
nodes = (
"497 687 LINE",
"730 687 LINE",
"730 700 LINE",
"497 700 LINE"
);
},
{
closed = 1;
nodes = (
"379 248 LINE",
"379 4 LINE",
"392 4 LINE",
"392 248 LINE"
);
}
);
width = 770;
},
{
layerId = "97FB2712-2ECD-43E8-8EDB-5EDF297461B7";
paths = (
{
closed = 0;
nodes = (
"386 13 LINE",
"386 0 LINE"
);
},
{
closed = 1;
nodes = (
"607 700 LINE",
"607 468 LINE",
"620 468 LINE",
"620 700 LINE"
);
},
{
closed = 1;
nodes = (
"610 477 LINE",
"380 247 LINE",
"389 238 LINE",
"620 468 LINE"
);
},
{
closed = 1;
nodes = (
"150 468 LINE",
"163 468 LINE",
"163 700 LINE",
"150 700 LINE"
);
},
{
closed = 1;
nodes = (
"381 238 LINE",
"390 247 LINE",
"160 477 LINE",
"150 468 LINE"
);
},
{
closed = 1;
nodes = (
"269 0 LINE",
"502 0 LINE",
"502 13 LINE",
"269 13 LINE"
);
},
{
closed = 1;
nodes = (
"40 687 LINE",
"273 687 LINE",
"273 700 LINE",
"40 700 LINE"
);
},
{
closed = 1;
nodes = (
"497 687 LINE",
"730 687 LINE",
"730 700 LINE",
"497 700 LINE"
);
},
{
closed = 1;
nodes = (
"379 248 LINE",
"379 4 LINE",
"392 4 LINE",
"392 248 LINE"
);
}
);
width = 770;
}
);
unicode = 0079;
},
{
glyphname = z;
lastChange = "2021-04-14 03:18:01 +0000";
layers = (
{
layerId = "16A4F72C-6E52-4851-BC55-1EF2E1D4C4EC";
paths = (
{
closed = 0;
nodes = (
"275 700 LINE",
"275 687 LINE"
);
},
{
closed = 0;
nodes = (
"275 13 LINE",
"275 0 LINE"
);
},
{
closed = 1;
nodes = (
"40 687 LINE",
"277 687 LINE",
"277 700 LINE",
"40 700 LINE"
);
},
{
closed = 1;
nodes = (
"40 700 LINE",
"40 586 LINE",
"53 586 LINE",
"53 700 LINE"
);
},
{
closed = 1;
nodes = (
"495 120 LINE",
"495 0 LINE",
"508 0 LINE",
"508 120 LINE"
);
},
{
closed = 1;
nodes = (
"275 687 LINE",
"495 687 LINE",
"495 700 LINE",
"275 700 LINE"
);
},
{
closed = 1;
nodes = (
"52 0 LINE",
"276 0 LINE",
"276 13 LINE",
"52 13 LINE"
);
},
{
closed = 1;
nodes = (
"275 0 LINE",
"508 0 LINE",
"508 13 LINE",
"275 13 LINE"
);
},
{
closed = 1;
nodes = (
"52 13 LINE",
"62 4 LINE",
"285 227 LINE",
"276 236 LINE"
);
},
{
closed = 1;
nodes = (
"272 482 LINE",
"282 473 LINE",
"495 687 LINE",
"486 696 LINE"
);
},
{
closed = 1;
nodes = (
"272 482 LINE",
"272 227 LINE",
"285 227 LINE",
"285 482 LINE"
);
}
);
width = 548;
},
{
layerId = "97FB2712-2ECD-43E8-8EDB-5EDF297461B7";
paths = (
{
closed = 0;
nodes = (
"275 700 LINE",
"275 687 LINE"
);
},
{
closed = 0;
nodes = (
"275 13 LINE",
"275 0 LINE"
);
},
{
closed = 1;
nodes = (
"40 687 LINE",
"277 687 LINE",
"277 700 LINE",
"40 700 LINE"
);
},
{
closed = 1;
nodes = (
"40 700 LINE",
"40 586 LINE",
"53 586 LINE",
"53 700 LINE"
);
},
{
closed = 1;
nodes = (
"495 120 LINE",
"495 0 LINE",
"508 0 LINE",
"508 120 LINE"
);
},
{
closed = 1;
nodes = (
"275 687 LINE",
"495 687 LINE",
"495 700 LINE",
"275 700 LINE"
);
},
{
closed = 1;
nodes = (
"52 0 LINE",
"276 0 LINE",
"276 13 LINE",
"52 13 LINE"
);
},
{
closed = 1;
nodes = (
"275 0 LINE",
"508 0 LINE",
"508 13 LINE",
"275 13 LINE"
);
},
{
closed = 1;
nodes = (
"52 13 LINE",
"62 4 LINE",
"285 227 LINE",
"276 236 LINE"
);
},
{
closed = 1;
nodes = (
"272 482 LINE",
"282 473 LINE",
"495 687 LINE",
"486 696 LINE"
);
},
{
closed = 1;
nodes = (
"272 482 LINE",
"272 227 LINE",
"285 227 LINE",
"285 482 LINE"
);
}
);
width = 548;
}
);
unicode = 007A;
},
{
glyphname = period;
lastChange = "2021-04-14 00:49:21 +0000";
layers = (
{
layerId = "16A4F72C-6E52-4851-BC55-1EF2E1D4C4EC";
paths = (
{
closed = 1;
nodes = (
"305 234 LINE",
"306 233 LINE",
"306 0 LINE",
"344 39 OFFCURVE",
"383 78 OFFCURVE",
"422 118 CURVE",
"382 157 OFFCURVE",
"342 197 OFFCURVE",
"305 234 CURVE",
"266 196 OFFCURVE",
"226 156 OFFCURVE",
"187 118 CURVE",
"225 78 OFFCURVE",
"266 39 OFFCURVE",
"304 0 CURVE",
"304 233 LINE"
);
}
);
width = 600;
},
{
layerId = "97FB2712-2ECD-43E8-8EDB-5EDF297461B7";
paths = (
{
closed = 1;
nodes = (
"305 234 LINE",
"306 233 LINE",
"306 0 LINE",
"364 0 OFFCURVE",
"422 60 OFFCURVE",
"422 118 CURVE",
"422 176 OFFCURVE",
"363 234 OFFCURVE",
"305 234 CURVE",
"247 234 OFFCURVE",
"187 176 OFFCURVE",
"187 118 CURVE",
"187 60 OFFCURVE",
"246 0 OFFCURVE",
"304 0 CURVE",
"304 233 LINE"
);
}
);
width = 600;
}
);
unicode = 002E;
},
{
glyphname = comma;
lastChange = "2021-04-14 00:50:13 +0000";
layers = (
{
layerId = "16A4F72C-6E52-4851-BC55-1EF2E1D4C4EC";
paths = (
{
closed = 1;
nodes = (
"305 234 LINE",
"306 233 LINE",
"306 0 LINE",
"344 39 OFFCURVE",
"383 78 OFFCURVE",
"422 118 CURVE",
"382 157 OFFCURVE",
"342 197 OFFCURVE",
"305 234 CURVE",
"266 196 OFFCURVE",
"226 156 OFFCURVE",
"187 118 CURVE",
"225 78 OFFCURVE",
"266 39 OFFCURVE",
"304 0 CURVE",
"304 233 LINE"
);
},
{
closed = 1;
nodes = (
"188 -115 LINE",
"304 0 LINE",
"296 10 LINE",
"178 -106 LINE"
);
}
);
width = 600;
},
{
layerId = "97FB2712-2ECD-43E8-8EDB-5EDF297461B7";
paths = (
{
closed = 1;
nodes = (
"305 234 LINE",
"306 233 LINE",
"306 0 LINE",
"364 0 OFFCURVE",
"422 60 OFFCURVE",
"422 118 CURVE",
"422 176 OFFCURVE",
"363 234 OFFCURVE",
"305 234 CURVE",
"247 234 OFFCURVE",
"187 176 OFFCURVE",
"187 118 CURVE",
"187 60 OFFCURVE",
"246 0 OFFCURVE",
"304 0 CURVE",
"304 233 LINE"
);
},
{
closed = 1;
nodes = (
"188 -115 LINE",
"304 0 LINE",
"296 10 LINE",
"178 -106 LINE"
);
}
);
width = 600;
}
);
unicode = 002C;
},
{
glyphname = question;
lastChange = "2021-04-14 19:20:31 +0000";
layers = (
{
layerId = "16A4F72C-6E52-4851-BC55-1EF2E1D4C4EC";
paths = (
{
closed = 1;
nodes = (
"354 35 LINE",
"316 -4 OFFCURVE",
"275 -44 OFFCURVE",
"237 -84 CURVE",
"276 -122 OFFCURVE",
"316 -162 OFFCURVE",
"355 -200 CURVE",
"393 -162 OFFCURVE",
"433 -122 OFFCURVE",
"472 -84 CURVE",
"433 -45 OFFCURVE",
"394 -5 OFFCURVE",
"356 35 CURVE",
"356 -199 LINE",
"355 -200 LINE",
"354 -199 LINE"
);
},
{
closed = 1;
nodes = (
"589 502 LINE",
"551 463 OFFCURVE",
"510 423 OFFCURVE",
"472 384 CURVE",
"511 345 OFFCURVE",
"551 306 OFFCURVE",
"590 268 CURVE",
"628 306 OFFCURVE",
"668 345 OFFCURVE",
"707 384 CURVE",
"669 423 OFFCURVE",
"630 462 OFFCURVE",
"591 502 CURVE",
"591 269 LINE",
"590 268 LINE",
"589 269 LINE"
);
},
{
closed = 1;
nodes = (
"353 735 LINE",
"315 696 OFFCURVE",
"274 657 OFFCURVE",
"236 617 CURVE",
"275 579 OFFCURVE",
"315 539 OFFCURVE",
"354 501 CURVE",
"392 539 OFFCURVE",
"432 579 OFFCURVE",
"471 617 CURVE",
"432 657 OFFCURVE",
"393 696 OFFCURVE",
"355 735 CURVE",
"355 502 LINE",
"354 501 LINE",
"353 502 LINE"
);
},
{
closed = 1;
nodes = (
"348 28 LINE",
"355 36 LINE",
"361 29 LINE",
"360 507 LINE",
"354 501 LINE",
"354 501 LINE",
"347 508 LINE"
);
},
{
closed = 1;
nodes = (
"360 373 LINE",
"480 491 LINE",
"473 502 LINE",
"350 382 LINE"
);
},
{
closed = 1;
nodes = (
"235 502 LINE",
"228 491 LINE",
"348 373 LINE",
"358 382 LINE"
);
},
{
closed = 1;
nodes = (
"589 489 LINE",
"589 502 LINE",
"473 502 LINE",
"473 489 LINE"
);
},
{
closed = 1;
nodes = (
"235 502 LINE",
"119 502 LINE",
"119 489 LINE",
"235 489 LINE"
);
},
{
closed = 1;
nodes = (
"589 269 LINE",
"551 230 OFFCURVE",
"510 190 OFFCURVE",
"472 151 CURVE",
"511 112 OFFCURVE",
"551 73 OFFCURVE",
"590 35 CURVE",
"628 73 OFFCURVE",
"668 112 OFFCURVE",
"707 151 CURVE",
"669 190 OFFCURVE",
"630 229 OFFCURVE",
"591 269 CURVE",
"591 36 LINE",
"590 35 LINE",
"589 36 LINE"
);
},
{
closed = 1;
nodes = (
"117 502 LINE",
"79 463 OFFCURVE",
"38 423 OFFCURVE",
"0 384 CURVE",
"39 345 OFFCURVE",
"79 306 OFFCURVE",
"118 268 CURVE",
"156 306 OFFCURVE",
"196 345 OFFCURVE",
"235 384 CURVE",
"197 423 OFFCURVE",
"158 462 OFFCURVE",
"119 502 CURVE",
"119 269 LINE",
"118 268 LINE",
"117 269 LINE"
);
},
{
closed = 1;
nodes = (
"117 269 LINE",
"79 230 OFFCURVE",
"38 190 OFFCURVE",
"0 151 CURVE",
"39 112 OFFCURVE",
"79 73 OFFCURVE",
"118 35 CURVE",
"156 73 OFFCURVE",
"196 112 OFFCURVE",
"235 151 CURVE",
"197 190 OFFCURVE",
"158 229 OFFCURVE",
"119 269 CURVE",
"119 36 LINE",
"118 35 LINE",
"117 36 LINE"
);
},
{
closed = 1;
nodes = (
"360 23 LINE",
"480 141 LINE",
"473 152 LINE",
"350 32 LINE"
);
},
{
closed = 1;
nodes = (
"235 152 LINE",
"228 141 LINE",
"348 23 LINE",
"358 32 LINE"
);
},
{
closed = 1;
nodes = (
"589 139 LINE",
"589 152 LINE",
"473 152 LINE",
"473 139 LINE"
);
},
{
closed = 1;
nodes = (
"235 152 LINE",
"119 152 LINE",
"119 139 LINE",
"235 139 LINE"
);
}
);
width = 707;
},
{
layerId = "97FB2712-2ECD-43E8-8EDB-5EDF297461B7";
paths = (
{
closed = 1;
nodes = (
"354 35 LINE",
"296 35 OFFCURVE",
"237 -26 OFFCURVE",
"237 -84 CURVE",
"237 -142 OFFCURVE",
"297 -200 OFFCURVE",
"355 -200 CURVE",
"413 -200 OFFCURVE",
"472 -142 OFFCURVE",
"472 -84 CURVE",
"472 -26 OFFCURVE",
"414 35 OFFCURVE",
"356 35 CURVE",
"356 -199 LINE",
"355 -200 LINE",
"354 -199 LINE"
);
},
{
closed = 1;
nodes = (
"589 502 LINE",
"531 502 OFFCURVE",
"472 442 OFFCURVE",
"472 384 CURVE",
"472 326 OFFCURVE",
"532 268 OFFCURVE",
"590 268 CURVE",
"648 268 OFFCURVE",
"707 326 OFFCURVE",
"707 384 CURVE",
"707 442 OFFCURVE",
"649 502 OFFCURVE",
"591 502 CURVE",
"591 269 LINE",
"590 268 LINE",
"589 269 LINE"
);
},
{
closed = 1;
nodes = (
"353 735 LINE",
"295 735 OFFCURVE",
"236 675 OFFCURVE",
"236 617 CURVE",
"236 559 OFFCURVE",
"296 501 OFFCURVE",
"354 501 CURVE",
"412 501 OFFCURVE",
"471 559 OFFCURVE",
"471 617 CURVE",
"471 675 OFFCURVE",
"413 735 OFFCURVE",
"355 735 CURVE",
"355 502 LINE",
"354 501 LINE",
"353 502 LINE"
);
},
{
closed = 1;
nodes = (
"348 28 LINE",
"355 36 LINE",
"361 29 LINE",
"360 507 LINE",
"354 501 LINE",
"354 501 LINE",
"347 508 LINE"
);
},
{
closed = 1;
nodes = (
"360 373 LINE",
"480 491 LINE",
"473 502 LINE",
"350 382 LINE"
);
},
{
closed = 1;
nodes = (
"235 502 LINE",
"228 491 LINE",
"348 373 LINE",
"358 382 LINE"
);
},
{
closed = 1;
nodes = (
"589 489 LINE",
"589 502 LINE",
"473 502 LINE",
"473 489 LINE"
);
},
{
closed = 1;
nodes = (
"235 502 LINE",
"119 502 LINE",
"119 489 LINE",
"235 489 LINE"
);
},
{
closed = 1;
nodes = (
"589 269 LINE",
"531 269 OFFCURVE",
"472 209 OFFCURVE",
"472 151 CURVE",
"472 93 OFFCURVE",
"532 35 OFFCURVE",
"590 35 CURVE",
"648 35 OFFCURVE",
"707 93 OFFCURVE",
"707 151 CURVE",
"707 209 OFFCURVE",
"649 269 OFFCURVE",
"591 269 CURVE",
"591 36 LINE",
"590 35 LINE",
"589 36 LINE"
);
},
{
closed = 1;
nodes = (
"117 502 LINE",
"59 502 OFFCURVE",
"0 442 OFFCURVE",
"0 384 CURVE",
"0 326 OFFCURVE",
"60 268 OFFCURVE",
"118 268 CURVE",
"176 268 OFFCURVE",
"235 326 OFFCURVE",
"235 384 CURVE",
"235 442 OFFCURVE",
"177 502 OFFCURVE",
"119 502 CURVE",
"119 269 LINE",
"118 268 LINE",
"117 269 LINE"
);
},
{
closed = 1;
nodes = (
"117 269 LINE",
"59 269 OFFCURVE",
"0 209 OFFCURVE",
"0 151 CURVE",
"0 93 OFFCURVE",
"60 35 OFFCURVE",
"118 35 CURVE",
"176 35 OFFCURVE",
"235 93 OFFCURVE",
"235 151 CURVE",
"235 209 OFFCURVE",
"177 269 OFFCURVE",
"119 269 CURVE",
"119 36 LINE",
"118 35 LINE",
"117 36 LINE"
);
},
{
closed = 1;
nodes = (
"360 23 LINE",
"480 141 LINE",
"473 152 LINE",
"350 32 LINE"
);
},
{
closed = 1;
nodes = (
"235 152 LINE",
"228 141 LINE",
"348 23 LINE",
"358 32 LINE"
);
},
{
closed = 1;
nodes = (
"589 139 LINE",
"589 152 LINE",
"473 152 LINE",
"473 139 LINE"
);
},
{
closed = 1;
nodes = (
"235 152 LINE",
"119 152 LINE",
"119 139 LINE",
"235 139 LINE"
);
}
);
width = 707;
}
);
unicode = 003F;
},
{
glyphname = asterisk;
lastChange = "2021-04-14 19:17:47 +0000";
layers = (
{
layerId = "16A4F72C-6E52-4851-BC55-1EF2E1D4C4EC";
paths = (
{
closed = 1;
nodes = (
"284 567 LINE",
"246 528 OFFCURVE",
"205 489 OFFCURVE",
"167 449 CURVE",
"206 411 OFFCURVE",
"246 371 OFFCURVE",
"285 333 CURVE",
"323 371 OFFCURVE",
"363 411 OFFCURVE",
"402 449 CURVE",
"362 489 OFFCURVE",
"323 528 OFFCURVE",
"286 567 CURVE",
"286 334 LINE",
"285 333 LINE",
"284 334 LINE"
);
},
{
closed = 1;
nodes = (
"284 231 LINE",
"246 192 OFFCURVE",
"205 153 OFFCURVE",
"167 113 CURVE",
"206 75 OFFCURVE",
"246 35 OFFCURVE",
"285 -3 CURVE",
"323 36 OFFCURVE",
"363 76 OFFCURVE",
"402 113 CURVE",
"363 153 OFFCURVE",
"324 192 OFFCURVE",
"286 231 CURVE",
"286 -2 LINE",
"285 -3 LINE",
"284 -2 LINE"
);
},
{
closed = 1;
nodes = (
"117 399 LINE",
"79 360 OFFCURVE",
"38 321 OFFCURVE",
"0 281 CURVE",
"39 243 OFFCURVE",
"79 203 OFFCURVE",
"118 165 CURVE",
"156 203 OFFCURVE",
"196 243 OFFCURVE",
"235 281 CURVE",
"196 321 OFFCURVE",
"157 360 OFFCURVE",
"119 399 CURVE",
"119 166 LINE",
"118 165 LINE",
"117 166 LINE"
);
},
{
closed = 1;
nodes = (
"452 399 LINE",
"414 360 OFFCURVE",
"373 321 OFFCURVE",
"335 281 CURVE",
"374 243 OFFCURVE",
"414 203 OFFCURVE",
"453 165 CURVE",
"491 203 OFFCURVE",
"531 243 OFFCURVE",
"570 281 CURVE",
"531 321 OFFCURVE",
"492 360 OFFCURVE",
"454 399 CURVE",
"454 166 LINE",
"453 165 LINE",
"452 166 LINE"
);
},
{
closed = 1;
nodes = (
"343 276 LINE",
"343 289 LINE",
"227 289 LINE",
"227 276 LINE"
);
},
{
closed = 1;
nodes = (
"279 224 LINE",
"285 232 LINE",
"292 224 LINE",
"292 340 LINE",
"285 333 LINE",
"279 340 LINE"
);
},
{
closed = 1;
nodes = (
"284 800 LINE",
"246 761 OFFCURVE",
"205 722 OFFCURVE",
"167 682 CURVE",
"206 644 OFFCURVE",
"246 604 OFFCURVE",
"285 566 CURVE",
"323 604 OFFCURVE",
"363 644 OFFCURVE",
"402 682 CURVE",
"362 722 OFFCURVE",
"323 761 OFFCURVE",
"286 800 CURVE",
"286 567 LINE",
"285 566 LINE",
"284 567 LINE"
);
},
{
closed = 1;
nodes = (
"284 -2 LINE",
"246 -41 OFFCURVE",
"205 -80 OFFCURVE",
"167 -120 CURVE",
"206 -158 OFFCURVE",
"246 -198 OFFCURVE",
"285 -236 CURVE",
"323 -197 OFFCURVE",
"363 -157 OFFCURVE",
"402 -120 CURVE",
"363 -80 OFFCURVE",
"324 -41 OFFCURVE",
"286 -2 CURVE",
"286 -235 LINE",
"285 -236 LINE",
"284 -235 LINE"
);
},
{
closed = 1;
nodes = (
"515 553 LINE",
"522 564 LINE",
"402 682 LINE",
"392 673 LINE"
);
},
{
closed = 1;
nodes = (
"167 682 LINE",
"47 564 LINE",
"54 553 LINE",
"177 673 LINE"
);
},
{
closed = 1;
nodes = (
"402 -120 LINE",
"522 -2 LINE",
"515 9 LINE",
"392 -111 LINE"
);
},
{
closed = 1;
nodes = (
"54 9 LINE",
"47 -2 LINE",
"167 -120 LINE",
"177 -111 LINE"
);
}
);
width = 570;
},
{
layerId = "97FB2712-2ECD-43E8-8EDB-5EDF297461B7";
paths = (
{
closed = 1;
nodes = (
"284 567 LINE",
"226 567 OFFCURVE",
"167 507 OFFCURVE",
"167 449 CURVE",
"167 391 OFFCURVE",
"227 333 OFFCURVE",
"285 333 CURVE",
"343 333 OFFCURVE",
"402 391 OFFCURVE",
"402 449 CURVE",
"402 507 OFFCURVE",
"344 567 OFFCURVE",
"286 567 CURVE",
"286 334 LINE",
"285 333 LINE",
"284 334 LINE"
);
},
{
closed = 1;
nodes = (
"284 231 LINE",
"226 231 OFFCURVE",
"167 171 OFFCURVE",
"167 113 CURVE",
"167 55 OFFCURVE",
"227 -3 OFFCURVE",
"285 -3 CURVE",
"343 -3 OFFCURVE",
"402 55 OFFCURVE",
"402 113 CURVE",
"402 171 OFFCURVE",
"344 231 OFFCURVE",
"286 231 CURVE",
"286 -2 LINE",
"285 -3 LINE",
"284 -2 LINE"
);
},
{
closed = 1;
nodes = (
"117 399 LINE",
"59 399 OFFCURVE",
"0 339 OFFCURVE",
"0 281 CURVE",
"0 223 OFFCURVE",
"60 165 OFFCURVE",
"118 165 CURVE",
"176 165 OFFCURVE",
"235 223 OFFCURVE",
"235 281 CURVE",
"235 339 OFFCURVE",
"177 399 OFFCURVE",
"119 399 CURVE",
"119 166 LINE",
"118 165 LINE",
"117 166 LINE"
);
},
{
closed = 1;
nodes = (
"452 399 LINE",
"394 399 OFFCURVE",
"335 339 OFFCURVE",
"335 281 CURVE",
"335 223 OFFCURVE",
"395 165 OFFCURVE",
"453 165 CURVE",
"511 165 OFFCURVE",
"570 223 OFFCURVE",
"570 281 CURVE",
"570 339 OFFCURVE",
"512 399 OFFCURVE",
"454 399 CURVE",
"454 166 LINE",
"453 165 LINE",
"452 166 LINE"
);
},
{
closed = 1;
nodes = (
"343 276 LINE",
"343 289 LINE",
"227 289 LINE",
"227 276 LINE"
);
},
{
closed = 1;
nodes = (
"279 224 LINE",
"285 232 LINE",
"292 224 LINE",
"292 340 LINE",
"285 333 LINE",
"279 340 LINE"
);
},
{
closed = 1;
nodes = (
"284 800 LINE",
"226 800 OFFCURVE",
"167 740 OFFCURVE",
"167 682 CURVE",
"167 624 OFFCURVE",
"227 566 OFFCURVE",
"285 566 CURVE",
"343 566 OFFCURVE",
"402 624 OFFCURVE",
"402 682 CURVE",
"402 740 OFFCURVE",
"344 800 OFFCURVE",
"286 800 CURVE",
"286 567 LINE",
"285 566 LINE",
"284 567 LINE"
);
},
{
closed = 1;
nodes = (
"284 -2 LINE",
"226 -2 OFFCURVE",
"167 -62 OFFCURVE",
"167 -120 CURVE",
"167 -178 OFFCURVE",
"227 -236 OFFCURVE",
"285 -236 CURVE",
"343 -236 OFFCURVE",
"402 -178 OFFCURVE",
"402 -120 CURVE",
"402 -62 OFFCURVE",
"344 -2 OFFCURVE",
"286 -2 CURVE",
"286 -235 LINE",
"285 -236 LINE",
"284 -235 LINE"
);
},
{
closed = 1;
nodes = (
"515 553 LINE",
"522 564 LINE",
"402 682 LINE",
"392 673 LINE"
);
},
{
closed = 1;
nodes = (
"167 682 LINE",
"47 564 LINE",
"54 553 LINE",
"177 673 LINE"
);
},
{
closed = 1;
nodes = (
"402 -120 LINE",
"522 -2 LINE",
"515 9 LINE",
"392 -111 LINE"
);
},
{
closed = 1;
nodes = (
"54 9 LINE",
"47 -2 LINE",
"167 -120 LINE",
"177 -111 LINE"
);
}
);
width = 570;
}
);
unicode = 002A;
},
{
glyphname = numbersign;
lastChange = "2021-04-14 19:15:54 +0000";
layers = (
{
layerId = "16A4F72C-6E52-4851-BC55-1EF2E1D4C4EC";
paths = (
{
closed = 1;
nodes = (
"284 700 LINE",
"246 661 OFFCURVE",
"205 622 OFFCURVE",
"167 582 CURVE",
"206 544 OFFCURVE",
"246 504 OFFCURVE",
"285 466 CURVE",
"323 504 OFFCURVE",
"363 544 OFFCURVE",
"402 582 CURVE",
"362 622 OFFCURVE",
"324 661 OFFCURVE",
"286 700 CURVE",
"286 467 LINE",
"285 466 LINE",
"284 467 LINE"
);
},
{
closed = 1;
nodes = (
"284 364 LINE",
"246 325 OFFCURVE",
"205 286 OFFCURVE",
"167 246 CURVE",
"206 208 OFFCURVE",
"246 168 OFFCURVE",
"285 130 CURVE",
"323 168 OFFCURVE",
"363 208 OFFCURVE",
"402 246 CURVE",
"363 286 OFFCURVE",
"324 325 OFFCURVE",
"286 364 CURVE",
"286 131 LINE",
"285 130 LINE",
"284 131 LINE"
);
},
{
closed = 1;
nodes = (
"117 532 LINE",
"79 493 OFFCURVE",
"38 454 OFFCURVE",
"0 414 CURVE",
"39 376 OFFCURVE",
"79 336 OFFCURVE",
"118 298 CURVE",
"156 336 OFFCURVE",
"196 376 OFFCURVE",
"235 414 CURVE",
"196 454 OFFCURVE",
"157 493 OFFCURVE",
"119 532 CURVE",
"119 299 LINE",
"118 298 LINE",
"117 299 LINE"
);
},
{
closed = 1;
nodes = (
"452 532 LINE",
"414 493 OFFCURVE",
"373 454 OFFCURVE",
"335 414 CURVE",
"374 376 OFFCURVE",
"414 336 OFFCURVE",
"453 298 CURVE",
"491 336 OFFCURVE",
"531 376 OFFCURVE",
"570 414 CURVE",
"531 454 OFFCURVE",
"492 493 OFFCURVE",
"454 532 CURVE",
"454 299 LINE",
"453 298 LINE",
"452 299 LINE"
);
},
{
closed = 1;
nodes = (
"343 409 LINE",
"343 422 LINE",
"227 422 LINE",
"227 409 LINE"
);
},
{
closed = 1;
nodes = (
"279 357 LINE",
"285 365 LINE",
"292 357 LINE",
"292 473 LINE",
"285 466 LINE",
"279 473 LINE"
);
},
{
closed = 1;
nodes = (
"560 700 LINE",
"282 422 LINE",
"292 413 LINE",
"570 691 LINE"
);
},
{
closed = 1;
nodes = (
"279 413 LINE",
"289 422 LINE",
"11 700 LINE",
"1 691 LINE"
);
},
{
closed = 1;
nodes = (
"292 418 LINE",
"282 409 LINE",
"560 131 LINE",
"570 140 LINE"
);
},
{
closed = 1;
nodes = (
"11 131 LINE",
"289 409 LINE",
"279 418 LINE",
"1 140 LINE"
);
}
);
width = 570;
},
{
layerId = "97FB2712-2ECD-43E8-8EDB-5EDF297461B7";
paths = (
{
closed = 1;
nodes = (
"284 700 LINE",
"226 700 OFFCURVE",
"167 640 OFFCURVE",
"167 582 CURVE",
"167 524 OFFCURVE",
"227 466 OFFCURVE",
"285 466 CURVE",
"343 466 OFFCURVE",
"402 524 OFFCURVE",
"402 582 CURVE",
"402 640 OFFCURVE",
"344 700 OFFCURVE",
"286 700 CURVE",
"286 467 LINE",
"285 466 LINE",
"284 467 LINE"
);
},
{
closed = 1;
nodes = (
"284 364 LINE",
"226 364 OFFCURVE",
"167 304 OFFCURVE",
"167 246 CURVE",
"167 188 OFFCURVE",
"227 130 OFFCURVE",
"285 130 CURVE",
"343 130 OFFCURVE",
"402 188 OFFCURVE",
"402 246 CURVE",
"402 304 OFFCURVE",
"344 364 OFFCURVE",
"286 364 CURVE",
"286 131 LINE",
"285 130 LINE",
"284 131 LINE"
);
},
{
closed = 1;
nodes = (
"117 532 LINE",
"59 532 OFFCURVE",
"0 472 OFFCURVE",
"0 414 CURVE",
"0 356 OFFCURVE",
"60 298 OFFCURVE",
"118 298 CURVE",
"176 298 OFFCURVE",
"235 356 OFFCURVE",
"235 414 CURVE",
"235 472 OFFCURVE",
"177 532 OFFCURVE",
"119 532 CURVE",
"119 299 LINE",
"118 298 LINE",
"117 299 LINE"
);
},
{
closed = 1;
nodes = (
"452 532 LINE",
"394 532 OFFCURVE",
"335 472 OFFCURVE",
"335 414 CURVE",
"335 356 OFFCURVE",
"395 298 OFFCURVE",
"453 298 CURVE",
"511 298 OFFCURVE",
"570 356 OFFCURVE",
"570 414 CURVE",
"570 472 OFFCURVE",
"512 532 OFFCURVE",
"454 532 CURVE",
"454 299 LINE",
"453 298 LINE",
"452 299 LINE"
);
},
{
closed = 1;
nodes = (
"343 409 LINE",
"343 422 LINE",
"227 422 LINE",
"227 409 LINE"
);
},
{
closed = 1;
nodes = (
"279 357 LINE",
"285 365 LINE",
"292 357 LINE",
"292 473 LINE",
"285 466 LINE",
"279 473 LINE"
);
},
{
closed = 1;
nodes = (
"560 700 LINE",
"282 422 LINE",
"292 413 LINE",
"570 691 LINE"
);
},
{
closed = 1;
nodes = (
"279 413 LINE",
"289 422 LINE",
"11 700 LINE",
"1 691 LINE"
);
},
{
closed = 1;
nodes = (
"292 418 LINE",
"282 409 LINE",
"560 131 LINE",
"570 140 LINE"
);
},
{
closed = 1;
nodes = (
"11 131 LINE",
"289 409 LINE",
"279 418 LINE",
"1 140 LINE"
);
}
);
width = 570;
}
);
unicode = 0023;
},
{
glyphname = hyphen;
lastChange = "2021-04-14 00:47:12 +0000";
layers = (
{
layerId = "16A4F72C-6E52-4851-BC55-1EF2E1D4C4EC";
paths = (
{
closed = 1;
nodes = (
"235 359 LINE",
"236 358 LINE",
"236 125 LINE",
"274 164 OFFCURVE",
"313 203 OFFCURVE",
"352 243 CURVE",
"312 282 OFFCURVE",
"272 322 OFFCURVE",
"235 359 CURVE",
"196 321 OFFCURVE",
"156 281 OFFCURVE",
"117 243 CURVE",
"155 203 OFFCURVE",
"196 164 OFFCURVE",
"234 125 CURVE",
"234 358 LINE"
);
},
{
closed = 1;
nodes = (
"10 119 LINE",
"126 234 LINE",
"117 243 LINE",
"0 128 LINE"
);
},
{
closed = 1;
nodes = (
"929 367 LINE",
"812 251 LINE",
"822 243 LINE",
"939 358 LINE"
);
},
{
closed = 1;
nodes = (
"470 359 LINE",
"471 358 LINE",
"471 125 LINE",
"509 164 OFFCURVE",
"548 203 OFFCURVE",
"587 243 CURVE",
"548 281 OFFCURVE",
"508 321 OFFCURVE",
"470 359 CURVE",
"431 321 OFFCURVE",
"391 281 OFFCURVE",
"352 243 CURVE",
"390 203 OFFCURVE",
"431 164 OFFCURVE",
"469 125 CURVE",
"469 358 LINE"
);
},
{
closed = 1;
nodes = (
"705 359 LINE",
"706 358 LINE",
"706 125 LINE",
"744 164 OFFCURVE",
"783 203 OFFCURVE",
"822 243 CURVE",
"783 281 OFFCURVE",
"743 321 OFFCURVE",
"705 359 CURVE",
"666 321 OFFCURVE",
"626 281 OFFCURVE",
"587 243 CURVE",
"625 203 OFFCURVE",
"666 164 OFFCURVE",
"704 125 CURVE",
"704 358 LINE"
);
}
);
width = 939;
},
{
layerId = "97FB2712-2ECD-43E8-8EDB-5EDF297461B7";
paths = (
{
closed = 1;
nodes = (
"235 359 LINE",
"236 358 LINE",
"236 125 LINE",
"294 125 OFFCURVE",
"352 185 OFFCURVE",
"352 243 CURVE",
"352 301 OFFCURVE",
"293 359 OFFCURVE",
"235 359 CURVE",
"177 359 OFFCURVE",
"117 301 OFFCURVE",
"117 243 CURVE",
"117 185 OFFCURVE",
"176 125 OFFCURVE",
"234 125 CURVE",
"234 358 LINE"
);
},
{
closed = 1;
nodes = (
"10 119 LINE",
"126 234 LINE",
"117 243 LINE",
"0 128 LINE"
);
},
{
closed = 1;
nodes = (
"929 367 LINE",
"812 251 LINE",
"822 243 LINE",
"939 358 LINE"
);
},
{
closed = 1;
nodes = (
"470 359 LINE",
"471 358 LINE",
"471 125 LINE",
"529 125 OFFCURVE",
"587 185 OFFCURVE",
"587 243 CURVE",
"587 301 OFFCURVE",
"528 359 OFFCURVE",
"470 359 CURVE",
"412 359 OFFCURVE",
"352 301 OFFCURVE",
"352 243 CURVE",
"352 185 OFFCURVE",
"411 125 OFFCURVE",
"469 125 CURVE",
"469 358 LINE"
);
},
{
closed = 1;
nodes = (
"705 359 LINE",
"706 358 LINE",
"706 125 LINE",
"764 125 OFFCURVE",
"822 185 OFFCURVE",
"822 243 CURVE",
"822 301 OFFCURVE",
"763 359 OFFCURVE",
"705 359 CURVE",
"647 359 OFFCURVE",
"587 301 OFFCURVE",
"587 243 CURVE",
"587 185 OFFCURVE",
"646 125 OFFCURVE",
"704 125 CURVE",
"704 358 LINE"
);
}
);
width = 939;
}
);
unicode = 002D;
},
{
glyphname = quotedoubleprime;
lastChange = "2021-04-16 16:54:15 +0000";
layers = (
{
layerId = "16A4F72C-6E52-4851-BC55-1EF2E1D4C4EC";
paths = (
{
closed = 1;
nodes = (
"127 704 LINE",
"128 703 LINE",
"128 470 LINE",
"166 509 OFFCURVE",
"205 548 OFFCURVE",
"244 588 CURVE",
"204 627 OFFCURVE",
"164 667 OFFCURVE",
"127 704 CURVE",
"88 666 OFFCURVE",
"48 626 OFFCURVE",
"9 588 CURVE",
"47 548 OFFCURVE",
"88 509 OFFCURVE",
"126 470 CURVE",
"126 703 LINE"
);
},
{
closed = 1;
nodes = (
"10 355 LINE",
"126 470 LINE",
"118 480 LINE",
"0 364 LINE"
);
},
{
closed = 1;
nodes = (
"417 704 LINE",
"418 703 LINE",
"418 470 LINE",
"456 509 OFFCURVE",
"495 548 OFFCURVE",
"534 588 CURVE",
"494 627 OFFCURVE",
"454 667 OFFCURVE",
"417 704 CURVE",
"378 666 OFFCURVE",
"338 626 OFFCURVE",
"299 588 CURVE",
"337 548 OFFCURVE",
"378 509 OFFCURVE",
"416 470 CURVE",
"416 703 LINE"
);
},
{
closed = 1;
nodes = (
"300 355 LINE",
"416 470 LINE",
"408 480 LINE",
"290 364 LINE"
);
}
);
width = 534;
},
{
layerId = "97FB2712-2ECD-43E8-8EDB-5EDF297461B7";
paths = (
{
closed = 1;
nodes = (
"203 701 LINE",
"204 700 LINE",
"204 467 LINE",
"262 467 OFFCURVE",
"320 527 OFFCURVE",
"320 585 CURVE",
"320 643 OFFCURVE",
"261 701 OFFCURVE",
"203 701 CURVE",
"145 701 OFFCURVE",
"85 643 OFFCURVE",
"85 585 CURVE",
"85 527 OFFCURVE",
"144 467 OFFCURVE",
"202 467 CURVE",
"202 700 LINE"
);
},
{
closed = 1;
nodes = (
"86 352 LINE",
"202 467 LINE",
"194 477 LINE",
"76 361 LINE"
);
},
{
closed = 1;
nodes = (
"483 701 LINE",
"484 700 LINE",
"484 467 LINE",
"542 467 OFFCURVE",
"600 527 OFFCURVE",
"600 585 CURVE",
"600 643 OFFCURVE",
"541 701 OFFCURVE",
"483 701 CURVE",
"425 701 OFFCURVE",
"365 643 OFFCURVE",
"365 585 CURVE",
"365 527 OFFCURVE",
"424 467 OFFCURVE",
"482 467 CURVE",
"482 700 LINE"
);
},
{
closed = 1;
nodes = (
"366 352 LINE",
"482 467 LINE",
"474 477 LINE",
"356 361 LINE"
);
}
);
width = 600;
}
);
unicode = 301E;
},
{
glyphname = quotedoubleprimeReversed;
lastChange = "2021-04-16 16:54:06 +0000";
layers = (
{
layerId = "16A4F72C-6E52-4851-BC55-1EF2E1D4C4EC";
paths = (
{
closed = 1;
nodes = (
"408 470 LINE",
"446 509 OFFCURVE",
"487 548 OFFCURVE",
"525 588 CURVE",
"486 626 OFFCURVE",
"446 666 OFFCURVE",
"407 704 CURVE",
"370 667 OFFCURVE",
"330 627 OFFCURVE",
"290 588 CURVE",
"329 548 OFFCURVE",
"368 509 OFFCURVE",
"406 470 CURVE",
"406 703 LINE",
"407 704 LINE",
"408 703 LINE"
);
},
{
closed = 1;
nodes = (
"416 480 LINE",
"408 470 LINE",
"524 355 LINE",
"534 364 LINE"
);
},
{
closed = 1;
nodes = (
"118 470 LINE",
"156 509 OFFCURVE",
"197 548 OFFCURVE",
"235 588 CURVE",
"196 626 OFFCURVE",
"156 666 OFFCURVE",
"117 704 CURVE",
"80 667 OFFCURVE",
"40 627 OFFCURVE",
"0 588 CURVE",
"39 548 OFFCURVE",
"78 509 OFFCURVE",
"116 470 CURVE",
"116 703 LINE",
"117 704 LINE",
"118 703 LINE"
);
},
{
closed = 1;
nodes = (
"126 480 LINE",
"118 470 LINE",
"234 355 LINE",
"244 364 LINE"
);
}
);
width = 534;
},
{
layerId = "97FB2712-2ECD-43E8-8EDB-5EDF297461B7";
paths = (
{
closed = 1;
nodes = (
"398 467 LINE",
"456 467 OFFCURVE",
"515 527 OFFCURVE",
"515 585 CURVE",
"515 643 OFFCURVE",
"455 701 OFFCURVE",
"397 701 CURVE",
"339 701 OFFCURVE",
"280 643 OFFCURVE",
"280 585 CURVE",
"280 527 OFFCURVE",
"338 467 OFFCURVE",
"396 467 CURVE",
"396 700 LINE",
"397 701 LINE",
"398 700 LINE"
);
},
{
closed = 1;
nodes = (
"406 477 LINE",
"398 467 LINE",
"514 352 LINE",
"524 361 LINE"
);
},
{
closed = 1;
nodes = (
"118 467 LINE",
"176 467 OFFCURVE",
"235 527 OFFCURVE",
"235 585 CURVE",
"235 643 OFFCURVE",
"175 701 OFFCURVE",
"117 701 CURVE",
"59 701 OFFCURVE",
"0 643 OFFCURVE",
"0 585 CURVE",
"0 527 OFFCURVE",
"58 467 OFFCURVE",
"116 467 CURVE",
"116 700 LINE",
"117 701 LINE",
"118 700 LINE"
);
},
{
closed = 1;
nodes = (
"126 477 LINE",
"118 467 LINE",
"234 352 LINE",
"244 361 LINE"
);
}
);
width = 524;
}
);
unicode = 301D;
},
{
glyphname = quotedbl;
lastChange = "2021-04-14 19:14:09 +0000";
layers = (
{
layerId = "16A4F72C-6E52-4851-BC55-1EF2E1D4C4EC";
paths = (
{
closed = 1;
nodes = (
"195 704 LINE",
"196 703 LINE",
"196 470 LINE",
"234 509 OFFCURVE",
"273 548 OFFCURVE",
"312 588 CURVE",
"272 627 OFFCURVE",
"232 667 OFFCURVE",
"195 704 CURVE",
"156 666 OFFCURVE",
"116 626 OFFCURVE",
"77 588 CURVE",
"115 548 OFFCURVE",
"156 509 OFFCURVE",
"194 470 CURVE",
"194 703 LINE"
);
},
{
closed = 1;
nodes = (
"78 355 LINE",
"194 470 LINE",
"186 480 LINE",
"68 364 LINE"
);
},
{
closed = 1;
nodes = (
"485 704 LINE",
"486 703 LINE",
"486 470 LINE",
"524 509 OFFCURVE",
"563 548 OFFCURVE",
"602 588 CURVE",
"562 627 OFFCURVE",
"522 667 OFFCURVE",
"485 704 CURVE",
"446 666 OFFCURVE",
"406 626 OFFCURVE",
"367 588 CURVE",
"405 548 OFFCURVE",
"446 509 OFFCURVE",
"484 470 CURVE",
"484 703 LINE"
);
},
{
closed = 1;
nodes = (
"368 355 LINE",
"484 470 LINE",
"476 480 LINE",
"358 364 LINE"
);
}
);
width = 600;
},
{
layerId = "97FB2712-2ECD-43E8-8EDB-5EDF297461B7";
paths = (
{
closed = 1;
nodes = (
"203 701 LINE",
"204 700 LINE",
"204 467 LINE",
"262 467 OFFCURVE",
"320 527 OFFCURVE",
"320 585 CURVE",
"320 643 OFFCURVE",
"261 701 OFFCURVE",
"203 701 CURVE",
"145 701 OFFCURVE",
"85 643 OFFCURVE",
"85 585 CURVE",
"85 527 OFFCURVE",
"144 467 OFFCURVE",
"202 467 CURVE",
"202 700 LINE"
);
},
{
closed = 1;
nodes = (
"86 352 LINE",
"202 467 LINE",
"194 477 LINE",
"76 361 LINE"
);
},
{
closed = 1;
nodes = (
"483 701 LINE",
"484 700 LINE",
"484 467 LINE",
"542 467 OFFCURVE",
"600 527 OFFCURVE",
"600 585 CURVE",
"600 643 OFFCURVE",
"541 701 OFFCURVE",
"483 701 CURVE",
"425 701 OFFCURVE",
"365 643 OFFCURVE",
"365 585 CURVE",
"365 527 OFFCURVE",
"424 467 OFFCURVE",
"482 467 CURVE",
"482 700 LINE"
);
},
{
closed = 1;
nodes = (
"366 352 LINE",
"482 467 LINE",
"474 477 LINE",
"356 361 LINE"
);
}
);
width = 600;
}
);
unicode = 0022;
},
{
glyphname = percent;
lastChange = "2021-04-16 13:30:48 +0000";
layers = (
{
layerId = "16A4F72C-6E52-4851-BC55-1EF2E1D4C4EC";
paths = (
{
closed = 1;
nodes = (
"118 700 LINE",
"119 699 LINE",
"119 466 LINE",
"157 505 OFFCURVE",
"196 544 OFFCURVE",
"235 584 CURVE",
"195 623 OFFCURVE",
"155 663 OFFCURVE",
"118 700 CURVE",
"79 662 OFFCURVE",
"39 622 OFFCURVE",
"0 584 CURVE",
"38 544 OFFCURVE",
"79 505 OFFCURVE",
"117 466 CURVE",
"117 699 LINE"
);
}
);
width = 235;
},
{
layerId = "97FB2712-2ECD-43E8-8EDB-5EDF297461B7";
paths = (
{
closed = 1;
nodes = (
"118 700 LINE",
"119 699 LINE",
"119 466 LINE",
"177 466 OFFCURVE",
"235 526 OFFCURVE",
"235 584 CURVE",
"235 642 OFFCURVE",
"176 700 OFFCURVE",
"118 700 CURVE",
"60 700 OFFCURVE",
"0 642 OFFCURVE",
"0 584 CURVE",
"0 526 OFFCURVE",
"59 466 OFFCURVE",
"117 466 CURVE",
"117 699 LINE"
);
}
);
width = 235;
}
);
unicode = 0025;
},
{
glyphname = newGlyph;
lastChange = "2021-04-14 01:27:01 +0000";
layers = (
{
layerId = "16A4F72C-6E52-4851-BC55-1EF2E1D4C4EC";
paths = (
{
closed = 1;
nodes = (
"354 0 LINE",
"316 -39 OFFCURVE",
"275 -79 OFFCURVE",
"237 -119 CURVE",
"276 -157 OFFCURVE",
"316 -197 OFFCURVE",
"355 -235 CURVE",
"393 -197 OFFCURVE",
"433 -157 OFFCURVE",
"472 -119 CURVE",
"433 -80 OFFCURVE",
"394 -40 OFFCURVE",
"356 0 CURVE",
"356 -234 LINE",
"355 -235 LINE",
"354 -234 LINE"
);
},
{
closed = 1;
nodes = (
"589 467 LINE",
"551 428 OFFCURVE",
"510 388 OFFCURVE",
"472 349 CURVE",
"511 310 OFFCURVE",
"551 271 OFFCURVE",
"590 233 CURVE",
"628 271 OFFCURVE",
"668 310 OFFCURVE",
"707 349 CURVE",
"669 388 OFFCURVE",
"630 427 OFFCURVE",
"591 467 CURVE",
"591 234 LINE",
"590 233 LINE",
"589 234 LINE"
);
},
{
closed = 1;
nodes = (
"353 700 LINE",
"315 661 OFFCURVE",
"274 622 OFFCURVE",
"236 582 CURVE",
"275 544 OFFCURVE",
"315 504 OFFCURVE",
"354 466 CURVE",
"392 504 OFFCURVE",
"432 544 OFFCURVE",
"471 582 CURVE",
"432 622 OFFCURVE",
"393 661 OFFCURVE",
"355 700 CURVE",
"355 467 LINE",
"354 466 LINE",
"353 467 LINE"
);
},
{
closed = 1;
nodes = (
"348 -7 LINE",
"355 1 LINE",
"361 -6 LINE",
"360 472 LINE",
"354 466 LINE",
"354 466 LINE",
"347 473 LINE"
);
},
{
closed = 1;
nodes = (
"360 338 LINE",
"480 456 LINE",
"473 467 LINE",
"350 347 LINE"
);
},
{
closed = 1;
nodes = (
"235 467 LINE",
"228 456 LINE",
"348 338 LINE",
"358 347 LINE"
);
},
{
closed = 1;
nodes = (
"589 454 LINE",
"589 467 LINE",
"473 467 LINE",
"473 454 LINE"
);
},
{
closed = 1;
nodes = (
"235 467 LINE",
"119 467 LINE",
"119 454 LINE",
"235 454 LINE"
);
},
{
closed = 1;
nodes = (
"589 234 LINE",
"551 195 OFFCURVE",
"510 155 OFFCURVE",
"472 116 CURVE",
"511 77 OFFCURVE",
"551 38 OFFCURVE",
"590 0 CURVE",
"628 38 OFFCURVE",
"668 77 OFFCURVE",
"707 116 CURVE",
"669 155 OFFCURVE",
"630 194 OFFCURVE",
"591 234 CURVE",
"591 1 LINE",
"590 0 LINE",
"589 1 LINE"
);
},
{
closed = 1;
nodes = (
"117 467 LINE",
"79 428 OFFCURVE",
"38 388 OFFCURVE",
"0 349 CURVE",
"39 310 OFFCURVE",
"79 271 OFFCURVE",
"118 233 CURVE",
"156 271 OFFCURVE",
"196 310 OFFCURVE",
"235 349 CURVE",
"197 388 OFFCURVE",
"158 427 OFFCURVE",
"119 467 CURVE",
"119 234 LINE",
"118 233 LINE",
"117 234 LINE"
);
},
{
closed = 1;
nodes = (
"117 234 LINE",
"79 195 OFFCURVE",
"38 155 OFFCURVE",
"0 116 CURVE",
"39 77 OFFCURVE",
"79 38 OFFCURVE",
"118 0 CURVE",
"156 38 OFFCURVE",
"196 77 OFFCURVE",
"235 116 CURVE",
"197 155 OFFCURVE",
"158 194 OFFCURVE",
"119 234 CURVE",
"119 1 LINE",
"118 0 LINE",
"117 1 LINE"
);
},
{
closed = 1;
nodes = (
"360 -12 LINE",
"480 106 LINE",
"473 117 LINE",
"350 -3 LINE"
);
},
{
closed = 1;
nodes = (
"235 117 LINE",
"228 106 LINE",
"348 -12 LINE",
"358 -3 LINE"
);
},
{
closed = 1;
nodes = (
"589 104 LINE",
"589 117 LINE",
"473 117 LINE",
"473 104 LINE"
);
},
{
closed = 1;
nodes = (
"235 117 LINE",
"119 117 LINE",
"119 104 LINE",
"235 104 LINE"
);
}
);
width = 707;
},
{
layerId = "97FB2712-2ECD-43E8-8EDB-5EDF297461B7";
paths = (
{
closed = 1;
nodes = (
"354 0 LINE",
"296 0 OFFCURVE",
"237 -61 OFFCURVE",
"237 -119 CURVE",
"237 -177 OFFCURVE",
"297 -235 OFFCURVE",
"355 -235 CURVE",
"413 -235 OFFCURVE",
"472 -177 OFFCURVE",
"472 -119 CURVE",
"472 -61 OFFCURVE",
"414 0 OFFCURVE",
"356 0 CURVE",
"356 -234 LINE",
"355 -235 LINE",
"354 -234 LINE"
);
},
{
closed = 1;
nodes = (
"589 467 LINE",
"531 467 OFFCURVE",
"472 407 OFFCURVE",
"472 349 CURVE",
"472 291 OFFCURVE",
"532 233 OFFCURVE",
"590 233 CURVE",
"648 233 OFFCURVE",
"707 291 OFFCURVE",
"707 349 CURVE",
"707 407 OFFCURVE",
"649 467 OFFCURVE",
"591 467 CURVE",
"591 234 LINE",
"590 233 LINE",
"589 234 LINE"
);
},
{
closed = 1;
nodes = (
"353 700 LINE",
"295 700 OFFCURVE",
"236 640 OFFCURVE",
"236 582 CURVE",
"236 524 OFFCURVE",
"296 466 OFFCURVE",
"354 466 CURVE",
"412 466 OFFCURVE",
"471 524 OFFCURVE",
"471 582 CURVE",
"471 640 OFFCURVE",
"413 700 OFFCURVE",
"355 700 CURVE",
"355 467 LINE",
"354 466 LINE",
"353 467 LINE"
);
},
{
closed = 1;
nodes = (
"348 -7 LINE",
"355 1 LINE",
"361 -6 LINE",
"360 472 LINE",
"354 466 LINE",
"354 466 LINE",
"347 473 LINE"
);
},
{
closed = 1;
nodes = (
"360 338 LINE",
"480 456 LINE",
"473 467 LINE",
"350 347 LINE"
);
},
{
closed = 1;
nodes = (
"235 467 LINE",
"228 456 LINE",
"348 338 LINE",
"358 347 LINE"
);
},
{
closed = 1;
nodes = (
"589 454 LINE",
"589 467 LINE",
"473 467 LINE",
"473 454 LINE"
);
},
{
closed = 1;
nodes = (
"235 467 LINE",
"119 467 LINE",
"119 454 LINE",
"235 454 LINE"
);
},
{
closed = 1;
nodes = (
"589 234 LINE",
"531 234 OFFCURVE",
"472 174 OFFCURVE",
"472 116 CURVE",
"472 58 OFFCURVE",
"532 0 OFFCURVE",
"590 0 CURVE",
"648 0 OFFCURVE",
"707 58 OFFCURVE",
"707 116 CURVE",
"707 174 OFFCURVE",
"649 234 OFFCURVE",
"591 234 CURVE",
"591 1 LINE",
"590 0 LINE",
"589 1 LINE"
);
},
{
closed = 1;
nodes = (
"117 467 LINE",
"59 467 OFFCURVE",
"0 407 OFFCURVE",
"0 349 CURVE",
"0 291 OFFCURVE",
"60 233 OFFCURVE",
"118 233 CURVE",
"176 233 OFFCURVE",
"235 291 OFFCURVE",
"235 349 CURVE",
"235 407 OFFCURVE",
"177 467 OFFCURVE",
"119 467 CURVE",
"119 234 LINE",
"118 233 LINE",
"117 234 LINE"
);
},
{
closed = 1;
nodes = (
"117 234 LINE",
"59 234 OFFCURVE",
"0 174 OFFCURVE",
"0 116 CURVE",
"0 58 OFFCURVE",
"60 0 OFFCURVE",
"118 0 CURVE",
"176 0 OFFCURVE",
"235 58 OFFCURVE",
"235 116 CURVE",
"235 174 OFFCURVE",
"177 234 OFFCURVE",
"119 234 CURVE",
"119 1 LINE",
"118 0 LINE",
"117 1 LINE"
);
},
{
closed = 1;
nodes = (
"360 -12 LINE",
"480 106 LINE",
"473 117 LINE",
"350 -3 LINE"
);
},
{
closed = 1;
nodes = (
"235 117 LINE",
"228 106 LINE",
"348 -12 LINE",
"358 -3 LINE"
);
},
{
closed = 1;
nodes = (
"589 104 LINE",
"589 117 LINE",
"473 117 LINE",
"473 104 LINE"
);
},
{
closed = 1;
nodes = (
"235 117 LINE",
"119 117 LINE",
"119 104 LINE",
"235 104 LINE"
);
}
);
width = 707;
}
);
},
{
glyphname = newGlyph.001;
lastChange = "2021-04-14 01:43:31 +0000";
layers = (
{
layerId = "16A4F72C-6E52-4851-BC55-1EF2E1D4C4EC";
paths = (
{
closed = 1;
nodes = (
"284 552 LINE",
"246 513 OFFCURVE",
"205 474 OFFCURVE",
"167 434 CURVE",
"206 396 OFFCURVE",
"246 356 OFFCURVE",
"285 318 CURVE",
"323 356 OFFCURVE",
"363 396 OFFCURVE",
"402 434 CURVE",
"362 474 OFFCURVE",
"324 513 OFFCURVE",
"286 552 CURVE",
"286 319 LINE",
"285 318 LINE",
"284 319 LINE"
);
},
{
closed = 1;
nodes = (
"284 216 LINE",
"246 177 OFFCURVE",
"205 138 OFFCURVE",
"167 98 CURVE",
"206 60 OFFCURVE",
"246 20 OFFCURVE",
"285 -18 CURVE",
"323 20 OFFCURVE",
"363 60 OFFCURVE",
"402 98 CURVE",
"363 138 OFFCURVE",
"324 177 OFFCURVE",
"286 216 CURVE",
"286 -17 LINE",
"285 -18 LINE",
"284 -17 LINE"
);
},
{
closed = 1;
nodes = (
"117 384 LINE",
"79 345 OFFCURVE",
"38 306 OFFCURVE",
"0 266 CURVE",
"39 228 OFFCURVE",
"79 188 OFFCURVE",
"118 150 CURVE",
"156 188 OFFCURVE",
"196 228 OFFCURVE",
"235 266 CURVE",
"196 306 OFFCURVE",
"157 345 OFFCURVE",
"119 384 CURVE",
"119 151 LINE",
"118 150 LINE",
"117 151 LINE"
);
},
{
closed = 1;
nodes = (
"452 384 LINE",
"414 345 OFFCURVE",
"373 306 OFFCURVE",
"335 266 CURVE",
"374 228 OFFCURVE",
"414 188 OFFCURVE",
"453 150 CURVE",
"491 188 OFFCURVE",
"531 228 OFFCURVE",
"570 266 CURVE",
"531 306 OFFCURVE",
"492 345 OFFCURVE",
"454 384 CURVE",
"454 151 LINE",
"453 150 LINE",
"452 151 LINE"
);
},
{
closed = 1;
nodes = (
"343 261 LINE",
"343 274 LINE",
"227 274 LINE",
"227 261 LINE"
);
},
{
closed = 1;
nodes = (
"279 209 LINE",
"285 217 LINE",
"292 209 LINE",
"292 325 LINE",
"285 318 LINE",
"279 325 LINE"
);
},
{
closed = 1;
nodes = (
"560 552 LINE",
"282 274 LINE",
"292 265 LINE",
"570 543 LINE"
);
},
{
closed = 1;
nodes = (
"279 265 LINE",
"289 274 LINE",
"11 552 LINE",
"1 543 LINE"
);
},
{
closed = 1;
nodes = (
"292 270 LINE",
"282 261 LINE",
"560 -17 LINE",
"570 -8 LINE"
);
},
{
closed = 1;
nodes = (
"11 -17 LINE",
"289 261 LINE",
"279 270 LINE",
"1 -8 LINE"
);
}
);
width = 570;
},
{
layerId = "97FB2712-2ECD-43E8-8EDB-5EDF297461B7";
paths = (
{
closed = 1;
nodes = (
"284 552 LINE",
"226 552 OFFCURVE",
"167 492 OFFCURVE",
"167 434 CURVE",
"167 376 OFFCURVE",
"227 318 OFFCURVE",
"285 318 CURVE",
"343 318 OFFCURVE",
"402 376 OFFCURVE",
"402 434 CURVE",
"402 492 OFFCURVE",
"344 552 OFFCURVE",
"286 552 CURVE",
"286 319 LINE",
"285 318 LINE",
"284 319 LINE"
);
},
{
closed = 1;
nodes = (
"284 216 LINE",
"226 216 OFFCURVE",
"167 156 OFFCURVE",
"167 98 CURVE",
"167 40 OFFCURVE",
"227 -18 OFFCURVE",
"285 -18 CURVE",
"343 -18 OFFCURVE",
"402 40 OFFCURVE",
"402 98 CURVE",
"402 156 OFFCURVE",
"344 216 OFFCURVE",
"286 216 CURVE",
"286 -17 LINE",
"285 -18 LINE",
"284 -17 LINE"
);
},
{
closed = 1;
nodes = (
"117 384 LINE",
"59 384 OFFCURVE",
"0 324 OFFCURVE",
"0 266 CURVE",
"0 208 OFFCURVE",
"60 150 OFFCURVE",
"118 150 CURVE",
"176 150 OFFCURVE",
"235 208 OFFCURVE",
"235 266 CURVE",
"235 324 OFFCURVE",
"177 384 OFFCURVE",
"119 384 CURVE",
"119 151 LINE",
"118 150 LINE",
"117 151 LINE"
);
},
{
closed = 1;
nodes = (
"452 384 LINE",
"394 384 OFFCURVE",
"335 324 OFFCURVE",
"335 266 CURVE",
"335 208 OFFCURVE",
"395 150 OFFCURVE",
"453 150 CURVE",
"511 150 OFFCURVE",
"570 208 OFFCURVE",
"570 266 CURVE",
"570 324 OFFCURVE",
"512 384 OFFCURVE",
"454 384 CURVE",
"454 151 LINE",
"453 150 LINE",
"452 151 LINE"
);
},
{
closed = 1;
nodes = (
"343 261 LINE",
"343 274 LINE",
"227 274 LINE",
"227 261 LINE"
);
},
{
closed = 1;
nodes = (
"279 209 LINE",
"285 217 LINE",
"292 209 LINE",
"292 325 LINE",
"285 318 LINE",
"279 325 LINE"
);
},
{
closed = 1;
nodes = (
"560 552 LINE",
"282 274 LINE",
"292 265 LINE",
"570 543 LINE"
);
},
{
closed = 1;
nodes = (
"279 265 LINE",
"289 274 LINE",
"11 552 LINE",
"1 543 LINE"
);
},
{
closed = 1;
nodes = (
"292 270 LINE",
"282 261 LINE",
"560 -17 LINE",
"570 -8 LINE"
);
},
{
closed = 1;
nodes = (
"11 -17 LINE",
"289 261 LINE",
"279 270 LINE",
"1 -8 LINE"
);
}
);
width = 570;
}
);
},
